G04 #@! TF.GenerationSoftware,KiCad,Pcbnew,(5.1.8)-1*
G04 #@! TF.CreationDate,2020-12-04T13:09:01+09:00*
G04 #@! TF.ProjectId,NBoxRpi,4e426f78-5270-4692-9e6b-696361645f70,Rev.2.1*
G04 #@! TF.SameCoordinates,Original*
G04 #@! TF.FileFunction,Soldermask,Top*
G04 #@! TF.FilePolarity,Negative*
%FSLAX46Y46*%
G04 Gerber Fmt 4.6, Leading zero omitted, Abs format (unit mm)*
G04 Created by KiCad (PCBNEW (5.1.8)-1) date 2020-12-04 13:09:01*
%MOMM*%
%LPD*%
G01*
G04 APERTURE LIST*
%ADD10C,3.000000*%
%ADD11O,1.700000X1.700000*%
%ADD12R,1.700000X1.700000*%
%ADD13C,1.524000*%
%ADD14O,1.600000X1.600000*%
%ADD15R,1.600000X1.600000*%
%ADD16C,1.600000*%
%ADD17R,2.500000X1.800000*%
%ADD18C,1.000000*%
%ADD19R,0.900000X0.800000*%
%ADD20R,1.524000X1.524000*%
G04 APERTURE END LIST*
D10*
G04 #@! TO.C,MH2*
X146050000Y-157480000D03*
G04 #@! TD*
G04 #@! TO.C,MH4*
X146050000Y-168910000D03*
G04 #@! TD*
D11*
G04 #@! TO.C,J9*
X114935000Y-118110000D03*
X114935000Y-115570000D03*
D12*
X114935000Y-113030000D03*
G04 #@! TD*
D13*
G04 #@! TO.C,J6*
X100330000Y-185420000D03*
X100330000Y-190500000D03*
X97790000Y-185420000D03*
X97790000Y-190500000D03*
X95250000Y-185420000D03*
X95250000Y-190500000D03*
X92710000Y-185420000D03*
X92710000Y-190500000D03*
G04 #@! TD*
D11*
G04 #@! TO.C,J8*
X87630000Y-139700000D03*
X90170000Y-139700000D03*
X92710000Y-139700000D03*
X95250000Y-139700000D03*
D12*
X97790000Y-139700000D03*
G04 #@! TD*
D13*
G04 #@! TO.C,BT1*
X107950000Y-140970000D03*
X118110000Y-140970000D03*
X113030000Y-137370000D03*
G04 #@! TD*
D14*
G04 #@! TO.C,U2*
X109220000Y-180340000D03*
X116840000Y-172720000D03*
X109220000Y-177800000D03*
X116840000Y-175260000D03*
X109220000Y-175260000D03*
X116840000Y-177800000D03*
X109220000Y-172720000D03*
D15*
X116840000Y-180340000D03*
G04 #@! TD*
D13*
G04 #@! TO.C,J4*
X93980000Y-114300000D03*
X93980000Y-119380000D03*
X91440000Y-114300000D03*
X91440000Y-119380000D03*
X88900000Y-114300000D03*
X88900000Y-119380000D03*
G04 #@! TD*
D14*
G04 #@! TO.C,PC2*
X133350000Y-131445000D03*
X130810000Y-123825000D03*
X130810000Y-131445000D03*
D15*
X133350000Y-123825000D03*
G04 #@! TD*
D11*
G04 #@! TO.C,J3*
X118745000Y-118110000D03*
X118745000Y-115570000D03*
D12*
X118745000Y-113030000D03*
G04 #@! TD*
D16*
G04 #@! TO.C,F2*
X95170000Y-180340000D03*
X90170000Y-180340000D03*
G04 #@! TD*
D13*
G04 #@! TO.C,J2*
X118110000Y-185420000D03*
X118110000Y-190500000D03*
X115570000Y-185420000D03*
X115570000Y-190500000D03*
X113030000Y-185420000D03*
X113030000Y-190500000D03*
X110490000Y-185420000D03*
X110490000Y-190500000D03*
G04 #@! TD*
G04 #@! TO.C,J7*
X138430000Y-190500000D03*
X138430000Y-185420000D03*
X135890000Y-185420000D03*
X143510000Y-190500000D03*
X143510000Y-185420000D03*
X135890000Y-190500000D03*
X140970000Y-190500000D03*
X140970000Y-185420000D03*
X133350000Y-185420000D03*
X133350000Y-190500000D03*
X130810000Y-185420000D03*
X130810000Y-190500000D03*
X128270000Y-185420000D03*
X128270000Y-190500000D03*
X125730000Y-185420000D03*
X125730000Y-190500000D03*
G04 #@! TD*
G04 #@! TO.C,J5*
X128270000Y-114300000D03*
X128270000Y-119380000D03*
X130810000Y-119380000D03*
X123190000Y-114300000D03*
X123190000Y-119380000D03*
X130810000Y-114300000D03*
X125730000Y-114300000D03*
X125730000Y-119380000D03*
X133350000Y-119380000D03*
X133350000Y-114300000D03*
X135890000Y-119380000D03*
X135890000Y-114300000D03*
X138430000Y-119380000D03*
X138430000Y-114300000D03*
X140970000Y-119380000D03*
X140970000Y-114300000D03*
G04 #@! TD*
G04 #@! TO.C,D16*
G36*
G01*
X86757500Y-184740000D02*
X87232500Y-184740000D01*
G75*
G02*
X87470000Y-184977500I0J-237500D01*
G01*
X87470000Y-185552500D01*
G75*
G02*
X87232500Y-185790000I-237500J0D01*
G01*
X86757500Y-185790000D01*
G75*
G02*
X86520000Y-185552500I0J237500D01*
G01*
X86520000Y-184977500D01*
G75*
G02*
X86757500Y-184740000I237500J0D01*
G01*
G37*
G36*
G01*
X86757500Y-182990000D02*
X87232500Y-182990000D01*
G75*
G02*
X87470000Y-183227500I0J-237500D01*
G01*
X87470000Y-183802500D01*
G75*
G02*
X87232500Y-184040000I-237500J0D01*
G01*
X86757500Y-184040000D01*
G75*
G02*
X86520000Y-183802500I0J237500D01*
G01*
X86520000Y-183227500D01*
G75*
G02*
X86757500Y-182990000I237500J0D01*
G01*
G37*
G04 #@! TD*
G04 #@! TO.C,D13*
G36*
G01*
X86757500Y-193785000D02*
X87232500Y-193785000D01*
G75*
G02*
X87470000Y-194022500I0J-237500D01*
G01*
X87470000Y-194597500D01*
G75*
G02*
X87232500Y-194835000I-237500J0D01*
G01*
X86757500Y-194835000D01*
G75*
G02*
X86520000Y-194597500I0J237500D01*
G01*
X86520000Y-194022500D01*
G75*
G02*
X86757500Y-193785000I237500J0D01*
G01*
G37*
G36*
G01*
X86757500Y-192035000D02*
X87232500Y-192035000D01*
G75*
G02*
X87470000Y-192272500I0J-237500D01*
G01*
X87470000Y-192847500D01*
G75*
G02*
X87232500Y-193085000I-237500J0D01*
G01*
X86757500Y-193085000D01*
G75*
G02*
X86520000Y-192847500I0J237500D01*
G01*
X86520000Y-192272500D01*
G75*
G02*
X86757500Y-192035000I237500J0D01*
G01*
G37*
G04 #@! TD*
D10*
G04 #@! TO.C,MH3*
X87630000Y-168910000D03*
G04 #@! TD*
D17*
G04 #@! TO.C,D15*
X91630000Y-130810000D03*
X87630000Y-130810000D03*
G04 #@! TD*
D13*
G04 #@! TO.C,P1*
X140970000Y-148590000D03*
X140970000Y-146050000D03*
X138430000Y-148590000D03*
X138430000Y-146050000D03*
X135890000Y-148590000D03*
X135890000Y-146050000D03*
X133350000Y-148590000D03*
X133350000Y-146050000D03*
X130810000Y-148590000D03*
X130810000Y-146050000D03*
X128270000Y-148590000D03*
X128270000Y-146050000D03*
X125730000Y-148590000D03*
X125730000Y-146050000D03*
X123190000Y-148590000D03*
X123190000Y-146050000D03*
X120650000Y-148590000D03*
X120650000Y-146050000D03*
X118110000Y-148590000D03*
X118110000Y-146050000D03*
X115570000Y-148590000D03*
X115570000Y-146050000D03*
X113030000Y-148590000D03*
X113030000Y-146050000D03*
X110490000Y-148590000D03*
X110490000Y-146050000D03*
X107950000Y-148590000D03*
X107950000Y-146050000D03*
X105410000Y-148590000D03*
X105410000Y-146050000D03*
X102870000Y-148590000D03*
X102870000Y-146050000D03*
X100330000Y-148590000D03*
X100330000Y-146050000D03*
X97790000Y-148590000D03*
X97790000Y-146050000D03*
X95250000Y-148590000D03*
X95250000Y-146050000D03*
X92710000Y-148590000D03*
X92710000Y-146050000D03*
G04 #@! TD*
D18*
G04 #@! TO.C,Y1*
X106680000Y-133350000D03*
X106680000Y-135250000D03*
G04 #@! TD*
G04 #@! TO.C,U3*
G36*
G01*
X106195000Y-125935000D02*
X105895000Y-125935000D01*
G75*
G02*
X105745000Y-125785000I0J150000D01*
G01*
X105745000Y-124335000D01*
G75*
G02*
X105895000Y-124185000I150000J0D01*
G01*
X106195000Y-124185000D01*
G75*
G02*
X106345000Y-124335000I0J-150000D01*
G01*
X106345000Y-125785000D01*
G75*
G02*
X106195000Y-125935000I-150000J0D01*
G01*
G37*
G36*
G01*
X107465000Y-125935000D02*
X107165000Y-125935000D01*
G75*
G02*
X107015000Y-125785000I0J150000D01*
G01*
X107015000Y-124335000D01*
G75*
G02*
X107165000Y-124185000I150000J0D01*
G01*
X107465000Y-124185000D01*
G75*
G02*
X107615000Y-124335000I0J-150000D01*
G01*
X107615000Y-125785000D01*
G75*
G02*
X107465000Y-125935000I-150000J0D01*
G01*
G37*
G36*
G01*
X108735000Y-125935000D02*
X108435000Y-125935000D01*
G75*
G02*
X108285000Y-125785000I0J150000D01*
G01*
X108285000Y-124335000D01*
G75*
G02*
X108435000Y-124185000I150000J0D01*
G01*
X108735000Y-124185000D01*
G75*
G02*
X108885000Y-124335000I0J-150000D01*
G01*
X108885000Y-125785000D01*
G75*
G02*
X108735000Y-125935000I-150000J0D01*
G01*
G37*
G36*
G01*
X110005000Y-125935000D02*
X109705000Y-125935000D01*
G75*
G02*
X109555000Y-125785000I0J150000D01*
G01*
X109555000Y-124335000D01*
G75*
G02*
X109705000Y-124185000I150000J0D01*
G01*
X110005000Y-124185000D01*
G75*
G02*
X110155000Y-124335000I0J-150000D01*
G01*
X110155000Y-125785000D01*
G75*
G02*
X110005000Y-125935000I-150000J0D01*
G01*
G37*
G36*
G01*
X110005000Y-131085000D02*
X109705000Y-131085000D01*
G75*
G02*
X109555000Y-130935000I0J150000D01*
G01*
X109555000Y-129485000D01*
G75*
G02*
X109705000Y-129335000I150000J0D01*
G01*
X110005000Y-129335000D01*
G75*
G02*
X110155000Y-129485000I0J-150000D01*
G01*
X110155000Y-130935000D01*
G75*
G02*
X110005000Y-131085000I-150000J0D01*
G01*
G37*
G36*
G01*
X108735000Y-131085000D02*
X108435000Y-131085000D01*
G75*
G02*
X108285000Y-130935000I0J150000D01*
G01*
X108285000Y-129485000D01*
G75*
G02*
X108435000Y-129335000I150000J0D01*
G01*
X108735000Y-129335000D01*
G75*
G02*
X108885000Y-129485000I0J-150000D01*
G01*
X108885000Y-130935000D01*
G75*
G02*
X108735000Y-131085000I-150000J0D01*
G01*
G37*
G36*
G01*
X107465000Y-131085000D02*
X107165000Y-131085000D01*
G75*
G02*
X107015000Y-130935000I0J150000D01*
G01*
X107015000Y-129485000D01*
G75*
G02*
X107165000Y-129335000I150000J0D01*
G01*
X107465000Y-129335000D01*
G75*
G02*
X107615000Y-129485000I0J-150000D01*
G01*
X107615000Y-130935000D01*
G75*
G02*
X107465000Y-131085000I-150000J0D01*
G01*
G37*
G36*
G01*
X106195000Y-131085000D02*
X105895000Y-131085000D01*
G75*
G02*
X105745000Y-130935000I0J150000D01*
G01*
X105745000Y-129485000D01*
G75*
G02*
X105895000Y-129335000I150000J0D01*
G01*
X106195000Y-129335000D01*
G75*
G02*
X106345000Y-129485000I0J-150000D01*
G01*
X106345000Y-130935000D01*
G75*
G02*
X106195000Y-131085000I-150000J0D01*
G01*
G37*
G04 #@! TD*
D19*
G04 #@! TO.C,U5*
X93250000Y-134300000D03*
X95250000Y-133350000D03*
X95250000Y-135250000D03*
G04 #@! TD*
D14*
G04 #@! TO.C,U1*
X113030000Y-123825000D03*
X120650000Y-131445000D03*
X115570000Y-123825000D03*
X118110000Y-131445000D03*
X118110000Y-123825000D03*
X115570000Y-131445000D03*
X120650000Y-123825000D03*
D15*
X113030000Y-131445000D03*
G04 #@! TD*
D14*
G04 #@! TO.C,U9*
X143510000Y-180340000D03*
X140970000Y-172720000D03*
X140970000Y-180340000D03*
D15*
X143510000Y-172720000D03*
G04 #@! TD*
D14*
G04 #@! TO.C,U8*
X138430000Y-180340000D03*
X135890000Y-172720000D03*
X135890000Y-180340000D03*
D15*
X138430000Y-172720000D03*
G04 #@! TD*
D14*
G04 #@! TO.C,U7*
X133350000Y-180340000D03*
X130810000Y-172720000D03*
X130810000Y-180340000D03*
D15*
X133350000Y-172720000D03*
G04 #@! TD*
D14*
G04 #@! TO.C,U6*
X128270000Y-180340000D03*
X125730000Y-172720000D03*
X125730000Y-180340000D03*
D15*
X128270000Y-172720000D03*
G04 #@! TD*
G04 #@! TO.C,R22*
G36*
G01*
X86597500Y-121110000D02*
X86122500Y-121110000D01*
G75*
G02*
X85885000Y-120872500I0J237500D01*
G01*
X85885000Y-120297500D01*
G75*
G02*
X86122500Y-120060000I237500J0D01*
G01*
X86597500Y-120060000D01*
G75*
G02*
X86835000Y-120297500I0J-237500D01*
G01*
X86835000Y-120872500D01*
G75*
G02*
X86597500Y-121110000I-237500J0D01*
G01*
G37*
G36*
G01*
X86597500Y-122860000D02*
X86122500Y-122860000D01*
G75*
G02*
X85885000Y-122622500I0J237500D01*
G01*
X85885000Y-122047500D01*
G75*
G02*
X86122500Y-121810000I237500J0D01*
G01*
X86597500Y-121810000D01*
G75*
G02*
X86835000Y-122047500I0J-237500D01*
G01*
X86835000Y-122622500D01*
G75*
G02*
X86597500Y-122860000I-237500J0D01*
G01*
G37*
G04 #@! TD*
G04 #@! TO.C,R25*
G36*
G01*
X144495000Y-143747500D02*
X144495000Y-143272500D01*
G75*
G02*
X144732500Y-143035000I237500J0D01*
G01*
X145307500Y-143035000D01*
G75*
G02*
X145545000Y-143272500I0J-237500D01*
G01*
X145545000Y-143747500D01*
G75*
G02*
X145307500Y-143985000I-237500J0D01*
G01*
X144732500Y-143985000D01*
G75*
G02*
X144495000Y-143747500I0J237500D01*
G01*
G37*
G36*
G01*
X142745000Y-143747500D02*
X142745000Y-143272500D01*
G75*
G02*
X142982500Y-143035000I237500J0D01*
G01*
X143557500Y-143035000D01*
G75*
G02*
X143795000Y-143272500I0J-237500D01*
G01*
X143795000Y-143747500D01*
G75*
G02*
X143557500Y-143985000I-237500J0D01*
G01*
X142982500Y-143985000D01*
G75*
G02*
X142745000Y-143747500I0J237500D01*
G01*
G37*
G04 #@! TD*
G04 #@! TO.C,R24*
G36*
G01*
X140685000Y-143747500D02*
X140685000Y-143272500D01*
G75*
G02*
X140922500Y-143035000I237500J0D01*
G01*
X141497500Y-143035000D01*
G75*
G02*
X141735000Y-143272500I0J-237500D01*
G01*
X141735000Y-143747500D01*
G75*
G02*
X141497500Y-143985000I-237500J0D01*
G01*
X140922500Y-143985000D01*
G75*
G02*
X140685000Y-143747500I0J237500D01*
G01*
G37*
G36*
G01*
X138935000Y-143747500D02*
X138935000Y-143272500D01*
G75*
G02*
X139172500Y-143035000I237500J0D01*
G01*
X139747500Y-143035000D01*
G75*
G02*
X139985000Y-143272500I0J-237500D01*
G01*
X139985000Y-143747500D01*
G75*
G02*
X139747500Y-143985000I-237500J0D01*
G01*
X139172500Y-143985000D01*
G75*
G02*
X138935000Y-143747500I0J237500D01*
G01*
G37*
G04 #@! TD*
G04 #@! TO.C,R23*
G36*
G01*
X132430000Y-143747500D02*
X132430000Y-143272500D01*
G75*
G02*
X132667500Y-143035000I237500J0D01*
G01*
X133242500Y-143035000D01*
G75*
G02*
X133480000Y-143272500I0J-237500D01*
G01*
X133480000Y-143747500D01*
G75*
G02*
X133242500Y-143985000I-237500J0D01*
G01*
X132667500Y-143985000D01*
G75*
G02*
X132430000Y-143747500I0J237500D01*
G01*
G37*
G36*
G01*
X130680000Y-143747500D02*
X130680000Y-143272500D01*
G75*
G02*
X130917500Y-143035000I237500J0D01*
G01*
X131492500Y-143035000D01*
G75*
G02*
X131730000Y-143272500I0J-237500D01*
G01*
X131730000Y-143747500D01*
G75*
G02*
X131492500Y-143985000I-237500J0D01*
G01*
X130917500Y-143985000D01*
G75*
G02*
X130680000Y-143747500I0J237500D01*
G01*
G37*
G04 #@! TD*
G04 #@! TO.C,R21*
G36*
G01*
X128620000Y-143747500D02*
X128620000Y-143272500D01*
G75*
G02*
X128857500Y-143035000I237500J0D01*
G01*
X129432500Y-143035000D01*
G75*
G02*
X129670000Y-143272500I0J-237500D01*
G01*
X129670000Y-143747500D01*
G75*
G02*
X129432500Y-143985000I-237500J0D01*
G01*
X128857500Y-143985000D01*
G75*
G02*
X128620000Y-143747500I0J237500D01*
G01*
G37*
G36*
G01*
X126870000Y-143747500D02*
X126870000Y-143272500D01*
G75*
G02*
X127107500Y-143035000I237500J0D01*
G01*
X127682500Y-143035000D01*
G75*
G02*
X127920000Y-143272500I0J-237500D01*
G01*
X127920000Y-143747500D01*
G75*
G02*
X127682500Y-143985000I-237500J0D01*
G01*
X127107500Y-143985000D01*
G75*
G02*
X126870000Y-143747500I0J237500D01*
G01*
G37*
G04 #@! TD*
G04 #@! TO.C,R12*
G36*
G01*
X143795000Y-133112500D02*
X143795000Y-133587500D01*
G75*
G02*
X143557500Y-133825000I-237500J0D01*
G01*
X142982500Y-133825000D01*
G75*
G02*
X142745000Y-133587500I0J237500D01*
G01*
X142745000Y-133112500D01*
G75*
G02*
X142982500Y-132875000I237500J0D01*
G01*
X143557500Y-132875000D01*
G75*
G02*
X143795000Y-133112500I0J-237500D01*
G01*
G37*
G36*
G01*
X145545000Y-133112500D02*
X145545000Y-133587500D01*
G75*
G02*
X145307500Y-133825000I-237500J0D01*
G01*
X144732500Y-133825000D01*
G75*
G02*
X144495000Y-133587500I0J237500D01*
G01*
X144495000Y-133112500D01*
G75*
G02*
X144732500Y-132875000I237500J0D01*
G01*
X145307500Y-132875000D01*
G75*
G02*
X145545000Y-133112500I0J-237500D01*
G01*
G37*
G04 #@! TD*
G04 #@! TO.C,R11*
G36*
G01*
X139985000Y-133112500D02*
X139985000Y-133587500D01*
G75*
G02*
X139747500Y-133825000I-237500J0D01*
G01*
X139172500Y-133825000D01*
G75*
G02*
X138935000Y-133587500I0J237500D01*
G01*
X138935000Y-133112500D01*
G75*
G02*
X139172500Y-132875000I237500J0D01*
G01*
X139747500Y-132875000D01*
G75*
G02*
X139985000Y-133112500I0J-237500D01*
G01*
G37*
G36*
G01*
X141735000Y-133112500D02*
X141735000Y-133587500D01*
G75*
G02*
X141497500Y-133825000I-237500J0D01*
G01*
X140922500Y-133825000D01*
G75*
G02*
X140685000Y-133587500I0J237500D01*
G01*
X140685000Y-133112500D01*
G75*
G02*
X140922500Y-132875000I237500J0D01*
G01*
X141497500Y-132875000D01*
G75*
G02*
X141735000Y-133112500I0J-237500D01*
G01*
G37*
G04 #@! TD*
G04 #@! TO.C,R10*
G36*
G01*
X132430000Y-133587500D02*
X132430000Y-133112500D01*
G75*
G02*
X132667500Y-132875000I237500J0D01*
G01*
X133242500Y-132875000D01*
G75*
G02*
X133480000Y-133112500I0J-237500D01*
G01*
X133480000Y-133587500D01*
G75*
G02*
X133242500Y-133825000I-237500J0D01*
G01*
X132667500Y-133825000D01*
G75*
G02*
X132430000Y-133587500I0J237500D01*
G01*
G37*
G36*
G01*
X130680000Y-133587500D02*
X130680000Y-133112500D01*
G75*
G02*
X130917500Y-132875000I237500J0D01*
G01*
X131492500Y-132875000D01*
G75*
G02*
X131730000Y-133112500I0J-237500D01*
G01*
X131730000Y-133587500D01*
G75*
G02*
X131492500Y-133825000I-237500J0D01*
G01*
X130917500Y-133825000D01*
G75*
G02*
X130680000Y-133587500I0J237500D01*
G01*
G37*
G04 #@! TD*
G04 #@! TO.C,R9*
G36*
G01*
X128620000Y-133587500D02*
X128620000Y-133112500D01*
G75*
G02*
X128857500Y-132875000I237500J0D01*
G01*
X129432500Y-132875000D01*
G75*
G02*
X129670000Y-133112500I0J-237500D01*
G01*
X129670000Y-133587500D01*
G75*
G02*
X129432500Y-133825000I-237500J0D01*
G01*
X128857500Y-133825000D01*
G75*
G02*
X128620000Y-133587500I0J237500D01*
G01*
G37*
G36*
G01*
X126870000Y-133587500D02*
X126870000Y-133112500D01*
G75*
G02*
X127107500Y-132875000I237500J0D01*
G01*
X127682500Y-132875000D01*
G75*
G02*
X127920000Y-133112500I0J-237500D01*
G01*
X127920000Y-133587500D01*
G75*
G02*
X127682500Y-133825000I-237500J0D01*
G01*
X127107500Y-133825000D01*
G75*
G02*
X126870000Y-133587500I0J237500D01*
G01*
G37*
G04 #@! TD*
D14*
G04 #@! TO.C,PC4*
X143510000Y-131445000D03*
X140970000Y-123825000D03*
X140970000Y-131445000D03*
D15*
X143510000Y-123825000D03*
G04 #@! TD*
D14*
G04 #@! TO.C,PC3*
X138430000Y-131445000D03*
X135890000Y-123825000D03*
X135890000Y-131445000D03*
D15*
X138430000Y-123825000D03*
G04 #@! TD*
D14*
G04 #@! TO.C,PC1*
X128270000Y-131445000D03*
X125730000Y-123825000D03*
X125730000Y-131445000D03*
D15*
X128270000Y-123825000D03*
G04 #@! TD*
D10*
G04 #@! TO.C,MH1*
X87630000Y-157480000D03*
G04 #@! TD*
D13*
G04 #@! TO.C,J1*
X108870000Y-112395000D03*
X106870000Y-112395000D03*
X104870000Y-112395000D03*
D20*
X102870000Y-112395000D03*
G04 #@! TD*
D16*
G04 #@! TO.C,F1*
X101600000Y-119460000D03*
X101600000Y-124460000D03*
G04 #@! TD*
G04 #@! TO.C,D10*
G36*
G01*
X86122500Y-116315000D02*
X86597500Y-116315000D01*
G75*
G02*
X86835000Y-116552500I0J-237500D01*
G01*
X86835000Y-117127500D01*
G75*
G02*
X86597500Y-117365000I-237500J0D01*
G01*
X86122500Y-117365000D01*
G75*
G02*
X85885000Y-117127500I0J237500D01*
G01*
X85885000Y-116552500D01*
G75*
G02*
X86122500Y-116315000I237500J0D01*
G01*
G37*
G36*
G01*
X86122500Y-114565000D02*
X86597500Y-114565000D01*
G75*
G02*
X86835000Y-114802500I0J-237500D01*
G01*
X86835000Y-115377500D01*
G75*
G02*
X86597500Y-115615000I-237500J0D01*
G01*
X86122500Y-115615000D01*
G75*
G02*
X85885000Y-115377500I0J237500D01*
G01*
X85885000Y-114802500D01*
G75*
G02*
X86122500Y-114565000I237500J0D01*
G01*
G37*
G04 #@! TD*
G04 #@! TO.C,D14*
G36*
G01*
X143005000Y-140097500D02*
X143005000Y-140572500D01*
G75*
G02*
X142767500Y-140810000I-237500J0D01*
G01*
X142192500Y-140810000D01*
G75*
G02*
X141955000Y-140572500I0J237500D01*
G01*
X141955000Y-140097500D01*
G75*
G02*
X142192500Y-139860000I237500J0D01*
G01*
X142767500Y-139860000D01*
G75*
G02*
X143005000Y-140097500I0J-237500D01*
G01*
G37*
G36*
G01*
X141255000Y-140097500D02*
X141255000Y-140572500D01*
G75*
G02*
X141017500Y-140810000I-237500J0D01*
G01*
X140442500Y-140810000D01*
G75*
G02*
X140205000Y-140572500I0J237500D01*
G01*
X140205000Y-140097500D01*
G75*
G02*
X140442500Y-139860000I237500J0D01*
G01*
X141017500Y-139860000D01*
G75*
G02*
X141255000Y-140097500I0J-237500D01*
G01*
G37*
G04 #@! TD*
G04 #@! TO.C,D12*
G36*
G01*
X139195000Y-140097500D02*
X139195000Y-140572500D01*
G75*
G02*
X138957500Y-140810000I-237500J0D01*
G01*
X138382500Y-140810000D01*
G75*
G02*
X138145000Y-140572500I0J237500D01*
G01*
X138145000Y-140097500D01*
G75*
G02*
X138382500Y-139860000I237500J0D01*
G01*
X138957500Y-139860000D01*
G75*
G02*
X139195000Y-140097500I0J-237500D01*
G01*
G37*
G36*
G01*
X137445000Y-140097500D02*
X137445000Y-140572500D01*
G75*
G02*
X137207500Y-140810000I-237500J0D01*
G01*
X136632500Y-140810000D01*
G75*
G02*
X136395000Y-140572500I0J237500D01*
G01*
X136395000Y-140097500D01*
G75*
G02*
X136632500Y-139860000I237500J0D01*
G01*
X137207500Y-139860000D01*
G75*
G02*
X137445000Y-140097500I0J-237500D01*
G01*
G37*
G04 #@! TD*
G04 #@! TO.C,D11*
G36*
G01*
X135385000Y-140097500D02*
X135385000Y-140572500D01*
G75*
G02*
X135147500Y-140810000I-237500J0D01*
G01*
X134572500Y-140810000D01*
G75*
G02*
X134335000Y-140572500I0J237500D01*
G01*
X134335000Y-140097500D01*
G75*
G02*
X134572500Y-139860000I237500J0D01*
G01*
X135147500Y-139860000D01*
G75*
G02*
X135385000Y-140097500I0J-237500D01*
G01*
G37*
G36*
G01*
X133635000Y-140097500D02*
X133635000Y-140572500D01*
G75*
G02*
X133397500Y-140810000I-237500J0D01*
G01*
X132822500Y-140810000D01*
G75*
G02*
X132585000Y-140572500I0J237500D01*
G01*
X132585000Y-140097500D01*
G75*
G02*
X132822500Y-139860000I237500J0D01*
G01*
X133397500Y-139860000D01*
G75*
G02*
X133635000Y-140097500I0J-237500D01*
G01*
G37*
G04 #@! TD*
G04 #@! TO.C,D9*
G36*
G01*
X131575000Y-140097500D02*
X131575000Y-140572500D01*
G75*
G02*
X131337500Y-140810000I-237500J0D01*
G01*
X130762500Y-140810000D01*
G75*
G02*
X130525000Y-140572500I0J237500D01*
G01*
X130525000Y-140097500D01*
G75*
G02*
X130762500Y-139860000I237500J0D01*
G01*
X131337500Y-139860000D01*
G75*
G02*
X131575000Y-140097500I0J-237500D01*
G01*
G37*
G36*
G01*
X129825000Y-140097500D02*
X129825000Y-140572500D01*
G75*
G02*
X129587500Y-140810000I-237500J0D01*
G01*
X129012500Y-140810000D01*
G75*
G02*
X128775000Y-140572500I0J237500D01*
G01*
X128775000Y-140097500D01*
G75*
G02*
X129012500Y-139860000I237500J0D01*
G01*
X129587500Y-139860000D01*
G75*
G02*
X129825000Y-140097500I0J-237500D01*
G01*
G37*
G04 #@! TD*
G04 #@! TO.C,D8*
G36*
G01*
X143005000Y-136287500D02*
X143005000Y-136762500D01*
G75*
G02*
X142767500Y-137000000I-237500J0D01*
G01*
X142192500Y-137000000D01*
G75*
G02*
X141955000Y-136762500I0J237500D01*
G01*
X141955000Y-136287500D01*
G75*
G02*
X142192500Y-136050000I237500J0D01*
G01*
X142767500Y-136050000D01*
G75*
G02*
X143005000Y-136287500I0J-237500D01*
G01*
G37*
G36*
G01*
X141255000Y-136287500D02*
X141255000Y-136762500D01*
G75*
G02*
X141017500Y-137000000I-237500J0D01*
G01*
X140442500Y-137000000D01*
G75*
G02*
X140205000Y-136762500I0J237500D01*
G01*
X140205000Y-136287500D01*
G75*
G02*
X140442500Y-136050000I237500J0D01*
G01*
X141017500Y-136050000D01*
G75*
G02*
X141255000Y-136287500I0J-237500D01*
G01*
G37*
G04 #@! TD*
G04 #@! TO.C,D7*
G36*
G01*
X139195000Y-136287500D02*
X139195000Y-136762500D01*
G75*
G02*
X138957500Y-137000000I-237500J0D01*
G01*
X138382500Y-137000000D01*
G75*
G02*
X138145000Y-136762500I0J237500D01*
G01*
X138145000Y-136287500D01*
G75*
G02*
X138382500Y-136050000I237500J0D01*
G01*
X138957500Y-136050000D01*
G75*
G02*
X139195000Y-136287500I0J-237500D01*
G01*
G37*
G36*
G01*
X137445000Y-136287500D02*
X137445000Y-136762500D01*
G75*
G02*
X137207500Y-137000000I-237500J0D01*
G01*
X136632500Y-137000000D01*
G75*
G02*
X136395000Y-136762500I0J237500D01*
G01*
X136395000Y-136287500D01*
G75*
G02*
X136632500Y-136050000I237500J0D01*
G01*
X137207500Y-136050000D01*
G75*
G02*
X137445000Y-136287500I0J-237500D01*
G01*
G37*
G04 #@! TD*
G04 #@! TO.C,D6*
G36*
G01*
X135385000Y-136287500D02*
X135385000Y-136762500D01*
G75*
G02*
X135147500Y-137000000I-237500J0D01*
G01*
X134572500Y-137000000D01*
G75*
G02*
X134335000Y-136762500I0J237500D01*
G01*
X134335000Y-136287500D01*
G75*
G02*
X134572500Y-136050000I237500J0D01*
G01*
X135147500Y-136050000D01*
G75*
G02*
X135385000Y-136287500I0J-237500D01*
G01*
G37*
G36*
G01*
X133635000Y-136287500D02*
X133635000Y-136762500D01*
G75*
G02*
X133397500Y-137000000I-237500J0D01*
G01*
X132822500Y-137000000D01*
G75*
G02*
X132585000Y-136762500I0J237500D01*
G01*
X132585000Y-136287500D01*
G75*
G02*
X132822500Y-136050000I237500J0D01*
G01*
X133397500Y-136050000D01*
G75*
G02*
X133635000Y-136287500I0J-237500D01*
G01*
G37*
G04 #@! TD*
G04 #@! TO.C,D5*
G36*
G01*
X131575000Y-136287500D02*
X131575000Y-136762500D01*
G75*
G02*
X131337500Y-137000000I-237500J0D01*
G01*
X130762500Y-137000000D01*
G75*
G02*
X130525000Y-136762500I0J237500D01*
G01*
X130525000Y-136287500D01*
G75*
G02*
X130762500Y-136050000I237500J0D01*
G01*
X131337500Y-136050000D01*
G75*
G02*
X131575000Y-136287500I0J-237500D01*
G01*
G37*
G36*
G01*
X129825000Y-136287500D02*
X129825000Y-136762500D01*
G75*
G02*
X129587500Y-137000000I-237500J0D01*
G01*
X129012500Y-137000000D01*
G75*
G02*
X128775000Y-136762500I0J237500D01*
G01*
X128775000Y-136287500D01*
G75*
G02*
X129012500Y-136050000I237500J0D01*
G01*
X129587500Y-136050000D01*
G75*
G02*
X129825000Y-136287500I0J-237500D01*
G01*
G37*
G04 #@! TD*
G04 #@! TO.C,C5*
X95250000Y-124500000D03*
D15*
X95250000Y-127000000D03*
G04 #@! TD*
G04 #@! TO.C,C1*
G36*
G01*
X100092500Y-131160000D02*
X100567500Y-131160000D01*
G75*
G02*
X100805000Y-131397500I0J-237500D01*
G01*
X100805000Y-131972500D01*
G75*
G02*
X100567500Y-132210000I-237500J0D01*
G01*
X100092500Y-132210000D01*
G75*
G02*
X99855000Y-131972500I0J237500D01*
G01*
X99855000Y-131397500D01*
G75*
G02*
X100092500Y-131160000I237500J0D01*
G01*
G37*
G36*
G01*
X100092500Y-129410000D02*
X100567500Y-129410000D01*
G75*
G02*
X100805000Y-129647500I0J-237500D01*
G01*
X100805000Y-130222500D01*
G75*
G02*
X100567500Y-130460000I-237500J0D01*
G01*
X100092500Y-130460000D01*
G75*
G02*
X99855000Y-130222500I0J237500D01*
G01*
X99855000Y-129647500D01*
G75*
G02*
X100092500Y-129410000I237500J0D01*
G01*
G37*
G04 #@! TD*
G04 #@! TO.C,C4*
G36*
G01*
X97552500Y-131160000D02*
X98027500Y-131160000D01*
G75*
G02*
X98265000Y-131397500I0J-237500D01*
G01*
X98265000Y-131972500D01*
G75*
G02*
X98027500Y-132210000I-237500J0D01*
G01*
X97552500Y-132210000D01*
G75*
G02*
X97315000Y-131972500I0J237500D01*
G01*
X97315000Y-131397500D01*
G75*
G02*
X97552500Y-131160000I237500J0D01*
G01*
G37*
G36*
G01*
X97552500Y-129410000D02*
X98027500Y-129410000D01*
G75*
G02*
X98265000Y-129647500I0J-237500D01*
G01*
X98265000Y-130222500D01*
G75*
G02*
X98027500Y-130460000I-237500J0D01*
G01*
X97552500Y-130460000D01*
G75*
G02*
X97315000Y-130222500I0J237500D01*
G01*
X97315000Y-129647500D01*
G75*
G02*
X97552500Y-129410000I237500J0D01*
G01*
G37*
G04 #@! TD*
D16*
G04 #@! TO.C,C3*
X88900000Y-124500000D03*
D15*
X88900000Y-127000000D03*
G04 #@! TD*
M02*
