M48
; DRILL file {KiCad (5.1.8)-1} date 12/04/20 13:09:04
; FORMAT={-:-/ absolute / metric / decimal}
; #@! TF.CreationDate,2020-12-04T13:09:04+09:00
; #@! TF.GenerationSoftware,Kicad,Pcbnew,(5.1.8)-1
FMAT,2
METRIC
T1C0.400
T2C0.500
T3C0.762
T4C0.800
T5C0.900
T6C1.000
T7C3.000
%
G90
G05
T1
X87.63Y-177.8
X91.422Y-186.595
X95.885Y-156.845
X97.155Y-133.985
X100.33Y-159.385
X100.965Y-142.875
X100.965Y-156.845
X101.6Y-134.62
X104.14Y-177.8
X104.14Y-191.77
X105.41Y-156.845
X106.045Y-127.635
X106.68Y-153.67
X109.855Y-133.985
X109.855Y-153.67
X109.855Y-156.845
X110.49Y-139.7
X111.125Y-142.875
X113.03Y-153.67
X113.03Y-156.845
X113.03Y-165.1
X115.57Y-153.67
X115.57Y-165.1
X116.84Y-135.89
X120.65Y-120.65
X120.65Y-127.635
X121.285Y-178.435
X121.92Y-191.77
X122.363Y-162.517
X123.19Y-123.19
X123.19Y-127.635
X123.19Y-166.37
X123.19Y-168.275
X123.825Y-134.62
X123.825Y-138.43
X123.825Y-143.51
X127.278Y-167.386
X128.905Y-151.13
X128.905Y-156.845
X129.058Y-175.869
X130.175Y-134.62
X130.81Y-178.435
X131.445Y-168.91
X133.35Y-168.91
X133.985Y-138.43
X134.075Y-167.056
X134.181Y-175.915
X134.62Y-134.62
X135.255Y-168.91
X135.89Y-154.305
X135.89Y-159.385
X137.16Y-153.035
X137.16Y-157.48
X138.43Y-163.195
X138.943Y-175.543
X139.065Y-138.43
X140.15Y-175.082
X145.415Y-151.765
X146.05Y-177.8
X148.59Y-132.08
X148.59Y-152.4
X148.59Y-162.56
T2
X106.68Y-133.35
X106.68Y-135.25
T3
X102.87Y-112.395
X104.87Y-112.395
X106.87Y-112.395
X108.87Y-112.395
T4
X123.19Y-114.3
X125.73Y-114.3
X128.27Y-114.3
X130.81Y-114.3
X133.35Y-114.3
X135.89Y-114.3
X138.43Y-114.3
X140.97Y-114.3
X101.6Y-119.46
X101.6Y-124.46
X130.81Y-123.825
X130.81Y-131.445
X133.35Y-123.825
X133.35Y-131.445
X90.17Y-180.34
X95.17Y-180.34
X130.81Y-172.72
X130.81Y-180.34
X133.35Y-172.72
X133.35Y-180.34
X107.95Y-140.97
X113.03Y-137.37
X118.11Y-140.97
X92.71Y-190.5
X95.25Y-190.5
X97.79Y-190.5
X100.33Y-190.5
X125.73Y-190.5
X128.27Y-190.5
X130.81Y-190.5
X133.35Y-190.5
X135.89Y-190.5
X138.43Y-190.5
X140.97Y-190.5
X143.51Y-190.5
X135.89Y-172.72
X135.89Y-180.34
X138.43Y-172.72
X138.43Y-180.34
X88.9Y-124.5
X88.9Y-127.0
X110.49Y-190.5
X113.03Y-190.5
X115.57Y-190.5
X118.11Y-190.5
X113.03Y-123.825
X113.03Y-131.445
X115.57Y-123.825
X115.57Y-131.445
X118.11Y-123.825
X118.11Y-131.445
X120.65Y-123.825
X120.65Y-131.445
X95.25Y-124.5
X95.25Y-127.0
X135.89Y-123.825
X135.89Y-131.445
X138.43Y-123.825
X138.43Y-131.445
X125.73Y-123.825
X125.73Y-131.445
X128.27Y-123.825
X128.27Y-131.445
X109.22Y-172.72
X109.22Y-175.26
X109.22Y-177.8
X109.22Y-180.34
X116.84Y-172.72
X116.84Y-175.26
X116.84Y-177.8
X116.84Y-180.34
X88.9Y-114.3
X91.44Y-114.3
X93.98Y-114.3
X125.73Y-172.72
X125.73Y-180.34
X128.27Y-172.72
X128.27Y-180.34
X140.97Y-123.825
X140.97Y-131.445
X143.51Y-123.825
X143.51Y-131.445
X140.97Y-172.72
X140.97Y-180.34
X143.51Y-172.72
X143.51Y-180.34
T5
X110.49Y-185.42
X113.03Y-185.42
X115.57Y-185.42
X118.11Y-185.42
X88.9Y-119.38
X91.44Y-119.38
X93.98Y-119.38
X92.71Y-146.05
X92.71Y-148.59
X95.25Y-146.05
X95.25Y-148.59
X97.79Y-146.05
X97.79Y-148.59
X100.33Y-146.05
X100.33Y-148.59
X102.87Y-146.05
X102.87Y-148.59
X105.41Y-146.05
X105.41Y-148.59
X107.95Y-146.05
X107.95Y-148.59
X110.49Y-146.05
X110.49Y-148.59
X113.03Y-146.05
X113.03Y-148.59
X115.57Y-146.05
X115.57Y-148.59
X118.11Y-146.05
X118.11Y-148.59
X120.65Y-146.05
X120.65Y-148.59
X123.19Y-146.05
X123.19Y-148.59
X125.73Y-146.05
X125.73Y-148.59
X128.27Y-146.05
X128.27Y-148.59
X130.81Y-146.05
X130.81Y-148.59
X133.35Y-146.05
X133.35Y-148.59
X135.89Y-146.05
X135.89Y-148.59
X138.43Y-146.05
X138.43Y-148.59
X140.97Y-146.05
X140.97Y-148.59
X123.19Y-119.38
X125.73Y-119.38
X128.27Y-119.38
X130.81Y-119.38
X133.35Y-119.38
X135.89Y-119.38
X138.43Y-119.38
X140.97Y-119.38
X92.71Y-185.42
X95.25Y-185.42
X97.79Y-185.42
X100.33Y-185.42
X125.73Y-185.42
X128.27Y-185.42
X130.81Y-185.42
X133.35Y-185.42
X135.89Y-185.42
X138.43Y-185.42
X140.97Y-185.42
X143.51Y-185.42
T6
X114.935Y-113.03
X114.935Y-115.57
X114.935Y-118.11
X87.63Y-139.7
X90.17Y-139.7
X92.71Y-139.7
X95.25Y-139.7
X97.79Y-139.7
X118.745Y-113.03
X118.745Y-115.57
X118.745Y-118.11
T7
X87.63Y-168.91
X146.05Y-168.91
X87.63Y-157.48
X146.05Y-157.48
T0
M30
