G04 #@! TF.GenerationSoftware,KiCad,Pcbnew,(5.1.8)-1*
G04 #@! TF.CreationDate,2020-12-04T13:09:01+09:00*
G04 #@! TF.ProjectId,NBoxRpi,4e426f78-5270-4692-9e6b-696361645f70,Rev.2.1*
G04 #@! TF.SameCoordinates,Original*
G04 #@! TF.FileFunction,Legend,Top*
G04 #@! TF.FilePolarity,Positive*
%FSLAX46Y46*%
G04 Gerber Fmt 4.6, Leading zero omitted, Abs format (unit mm)*
G04 Created by KiCad (PCBNEW (5.1.8)-1) date 2020-12-04 13:09:01*
%MOMM*%
%LPD*%
G01*
G04 APERTURE LIST*
%ADD10C,0.200000*%
%ADD11C,0.120000*%
%ADD12C,0.150000*%
%ADD13C,0.300000*%
%ADD14C,0.100000*%
%ADD15C,0.010000*%
G04 APERTURE END LIST*
D10*
X83894285Y-111237857D02*
X83894285Y-110037857D01*
X84351428Y-110037857D01*
X84465714Y-110095000D01*
X84522857Y-110152142D01*
X84580000Y-110266428D01*
X84580000Y-110437857D01*
X84522857Y-110552142D01*
X84465714Y-110609285D01*
X84351428Y-110666428D01*
X83894285Y-110666428D01*
X85265714Y-111237857D02*
X85151428Y-111180714D01*
X85094285Y-111123571D01*
X85037142Y-111009285D01*
X85037142Y-110666428D01*
X85094285Y-110552142D01*
X85151428Y-110495000D01*
X85265714Y-110437857D01*
X85437142Y-110437857D01*
X85551428Y-110495000D01*
X85608571Y-110552142D01*
X85665714Y-110666428D01*
X85665714Y-111009285D01*
X85608571Y-111123571D01*
X85551428Y-111180714D01*
X85437142Y-111237857D01*
X85265714Y-111237857D01*
X86065714Y-110437857D02*
X86294285Y-111237857D01*
X86522857Y-110666428D01*
X86751428Y-111237857D01*
X86980000Y-110437857D01*
X85151428Y-112037857D02*
X84580000Y-112037857D01*
X84522857Y-112609285D01*
X84580000Y-112552142D01*
X84694285Y-112495000D01*
X84980000Y-112495000D01*
X85094285Y-112552142D01*
X85151428Y-112609285D01*
X85208571Y-112723571D01*
X85208571Y-113009285D01*
X85151428Y-113123571D01*
X85094285Y-113180714D01*
X84980000Y-113237857D01*
X84694285Y-113237857D01*
X84580000Y-113180714D01*
X84522857Y-113123571D01*
X85551428Y-112037857D02*
X85951428Y-113237857D01*
X86351428Y-112037857D01*
X112465000Y-109890000D02*
X112350714Y-109832857D01*
X112179285Y-109832857D01*
X112007857Y-109890000D01*
X111893571Y-110004285D01*
X111836428Y-110118571D01*
X111779285Y-110347142D01*
X111779285Y-110518571D01*
X111836428Y-110747142D01*
X111893571Y-110861428D01*
X112007857Y-110975714D01*
X112179285Y-111032857D01*
X112293571Y-111032857D01*
X112465000Y-110975714D01*
X112522142Y-110918571D01*
X112522142Y-110518571D01*
X112293571Y-110518571D01*
X113036428Y-111032857D02*
X113036428Y-109832857D01*
X113493571Y-109832857D01*
X113607857Y-109890000D01*
X113665000Y-109947142D01*
X113722142Y-110061428D01*
X113722142Y-110232857D01*
X113665000Y-110347142D01*
X113607857Y-110404285D01*
X113493571Y-110461428D01*
X113036428Y-110461428D01*
X114236428Y-111032857D02*
X114236428Y-109832857D01*
X115036428Y-109832857D02*
X115265000Y-109832857D01*
X115379285Y-109890000D01*
X115493571Y-110004285D01*
X115550714Y-110232857D01*
X115550714Y-110632857D01*
X115493571Y-110861428D01*
X115379285Y-110975714D01*
X115265000Y-111032857D01*
X115036428Y-111032857D01*
X114922142Y-110975714D01*
X114807857Y-110861428D01*
X114750714Y-110632857D01*
X114750714Y-110232857D01*
X114807857Y-110004285D01*
X114922142Y-109890000D01*
X115036428Y-109832857D01*
D11*
X112102952Y-112491904D02*
X112179142Y-112491904D01*
X112255333Y-112530000D01*
X112293428Y-112568095D01*
X112331523Y-112644285D01*
X112369619Y-112796666D01*
X112369619Y-112987142D01*
X112331523Y-113139523D01*
X112293428Y-113215714D01*
X112255333Y-113253809D01*
X112179142Y-113291904D01*
X112102952Y-113291904D01*
X112026761Y-113253809D01*
X111988666Y-113215714D01*
X111950571Y-113139523D01*
X111912476Y-112987142D01*
X111912476Y-112796666D01*
X111950571Y-112644285D01*
X111988666Y-112568095D01*
X112026761Y-112530000D01*
X112102952Y-112491904D01*
X113055333Y-112758571D02*
X113055333Y-113291904D01*
X112864857Y-112453809D02*
X112674380Y-113025238D01*
X113169619Y-113025238D01*
X112369619Y-115931904D02*
X111912476Y-115931904D01*
X112141047Y-115931904D02*
X112141047Y-115131904D01*
X112064857Y-115246190D01*
X111988666Y-115322380D01*
X111912476Y-115360476D01*
X112636285Y-115131904D02*
X113169619Y-115131904D01*
X112826761Y-115931904D01*
X112731523Y-117810000D02*
X112655333Y-117771904D01*
X112541047Y-117771904D01*
X112426761Y-117810000D01*
X112350571Y-117886190D01*
X112312476Y-117962380D01*
X112274380Y-118114761D01*
X112274380Y-118229047D01*
X112312476Y-118381428D01*
X112350571Y-118457619D01*
X112426761Y-118533809D01*
X112541047Y-118571904D01*
X112617238Y-118571904D01*
X112731523Y-118533809D01*
X112769619Y-118495714D01*
X112769619Y-118229047D01*
X112617238Y-118229047D01*
X144145000Y-141605000D02*
X143510000Y-141605000D01*
X144145000Y-135255000D02*
X144145000Y-141605000D01*
X143510000Y-135255000D02*
X144145000Y-135255000D01*
D10*
X145485000Y-137830000D02*
X145370714Y-137772857D01*
X145199285Y-137772857D01*
X145027857Y-137830000D01*
X144913571Y-137944285D01*
X144856428Y-138058571D01*
X144799285Y-138287142D01*
X144799285Y-138458571D01*
X144856428Y-138687142D01*
X144913571Y-138801428D01*
X145027857Y-138915714D01*
X145199285Y-138972857D01*
X145313571Y-138972857D01*
X145485000Y-138915714D01*
X145542142Y-138858571D01*
X145542142Y-138458571D01*
X145313571Y-138458571D01*
X146056428Y-138972857D02*
X146056428Y-137772857D01*
X146513571Y-137772857D01*
X146627857Y-137830000D01*
X146685000Y-137887142D01*
X146742142Y-138001428D01*
X146742142Y-138172857D01*
X146685000Y-138287142D01*
X146627857Y-138344285D01*
X146513571Y-138401428D01*
X146056428Y-138401428D01*
X147256428Y-138972857D02*
X147256428Y-137772857D01*
X148056428Y-137772857D02*
X148285000Y-137772857D01*
X148399285Y-137830000D01*
X148513571Y-137944285D01*
X148570714Y-138172857D01*
X148570714Y-138572857D01*
X148513571Y-138801428D01*
X148399285Y-138915714D01*
X148285000Y-138972857D01*
X148056428Y-138972857D01*
X147942142Y-138915714D01*
X147827857Y-138801428D01*
X147770714Y-138572857D01*
X147770714Y-138172857D01*
X147827857Y-137944285D01*
X147942142Y-137830000D01*
X148056428Y-137772857D01*
X141205000Y-137772857D02*
X141947857Y-137772857D01*
X141547857Y-138230000D01*
X141719285Y-138230000D01*
X141833571Y-138287142D01*
X141890714Y-138344285D01*
X141947857Y-138458571D01*
X141947857Y-138744285D01*
X141890714Y-138858571D01*
X141833571Y-138915714D01*
X141719285Y-138972857D01*
X141376428Y-138972857D01*
X141262142Y-138915714D01*
X141205000Y-138858571D01*
X137452142Y-137887142D02*
X137509285Y-137830000D01*
X137623571Y-137772857D01*
X137909285Y-137772857D01*
X138023571Y-137830000D01*
X138080714Y-137887142D01*
X138137857Y-138001428D01*
X138137857Y-138115714D01*
X138080714Y-138287142D01*
X137395000Y-138972857D01*
X138137857Y-138972857D01*
X134327857Y-138972857D02*
X133642142Y-138972857D01*
X133985000Y-138972857D02*
X133985000Y-137772857D01*
X133870714Y-137944285D01*
X133756428Y-138058571D01*
X133642142Y-138115714D01*
X130117857Y-137772857D02*
X130232142Y-137772857D01*
X130346428Y-137830000D01*
X130403571Y-137887142D01*
X130460714Y-138001428D01*
X130517857Y-138230000D01*
X130517857Y-138515714D01*
X130460714Y-138744285D01*
X130403571Y-138858571D01*
X130346428Y-138915714D01*
X130232142Y-138972857D01*
X130117857Y-138972857D01*
X130003571Y-138915714D01*
X129946428Y-138858571D01*
X129889285Y-138744285D01*
X129832142Y-138515714D01*
X129832142Y-138230000D01*
X129889285Y-138001428D01*
X129946428Y-137887142D01*
X130003571Y-137830000D01*
X130117857Y-137772857D01*
D12*
X92687142Y-160472380D02*
X92687142Y-159710476D01*
X92496666Y-159900952D02*
X92687142Y-159710476D01*
X92877619Y-159900952D01*
X94877619Y-160472380D02*
X94544285Y-159996190D01*
X94306190Y-160472380D02*
X94306190Y-159472380D01*
X94687142Y-159472380D01*
X94782380Y-159520000D01*
X94830000Y-159567619D01*
X94877619Y-159662857D01*
X94877619Y-159805714D01*
X94830000Y-159900952D01*
X94782380Y-159948571D01*
X94687142Y-159996190D01*
X94306190Y-159996190D01*
X95734761Y-160472380D02*
X95734761Y-159948571D01*
X95687142Y-159853333D01*
X95591904Y-159805714D01*
X95401428Y-159805714D01*
X95306190Y-159853333D01*
X95734761Y-160424761D02*
X95639523Y-160472380D01*
X95401428Y-160472380D01*
X95306190Y-160424761D01*
X95258571Y-160329523D01*
X95258571Y-160234285D01*
X95306190Y-160139047D01*
X95401428Y-160091428D01*
X95639523Y-160091428D01*
X95734761Y-160043809D01*
X96163333Y-160424761D02*
X96258571Y-160472380D01*
X96449047Y-160472380D01*
X96544285Y-160424761D01*
X96591904Y-160329523D01*
X96591904Y-160281904D01*
X96544285Y-160186666D01*
X96449047Y-160139047D01*
X96306190Y-160139047D01*
X96210952Y-160091428D01*
X96163333Y-159996190D01*
X96163333Y-159948571D01*
X96210952Y-159853333D01*
X96306190Y-159805714D01*
X96449047Y-159805714D01*
X96544285Y-159853333D01*
X97020476Y-159805714D02*
X97020476Y-160805714D01*
X97020476Y-159853333D02*
X97115714Y-159805714D01*
X97306190Y-159805714D01*
X97401428Y-159853333D01*
X97449047Y-159900952D01*
X97496666Y-159996190D01*
X97496666Y-160281904D01*
X97449047Y-160377142D01*
X97401428Y-160424761D01*
X97306190Y-160472380D01*
X97115714Y-160472380D01*
X97020476Y-160424761D01*
X97925238Y-160472380D02*
X97925238Y-159472380D01*
X97925238Y-159853333D02*
X98020476Y-159805714D01*
X98210952Y-159805714D01*
X98306190Y-159853333D01*
X98353809Y-159900952D01*
X98401428Y-159996190D01*
X98401428Y-160281904D01*
X98353809Y-160377142D01*
X98306190Y-160424761D01*
X98210952Y-160472380D01*
X98020476Y-160472380D01*
X97925238Y-160424761D01*
X99210952Y-160424761D02*
X99115714Y-160472380D01*
X98925238Y-160472380D01*
X98830000Y-160424761D01*
X98782380Y-160329523D01*
X98782380Y-159948571D01*
X98830000Y-159853333D01*
X98925238Y-159805714D01*
X99115714Y-159805714D01*
X99210952Y-159853333D01*
X99258571Y-159948571D01*
X99258571Y-160043809D01*
X98782380Y-160139047D01*
X99687142Y-160472380D02*
X99687142Y-159805714D01*
X99687142Y-159996190D02*
X99734761Y-159900952D01*
X99782380Y-159853333D01*
X99877619Y-159805714D01*
X99972857Y-159805714D01*
X100306190Y-160472380D02*
X100306190Y-159805714D01*
X100306190Y-159996190D02*
X100353809Y-159900952D01*
X100401428Y-159853333D01*
X100496666Y-159805714D01*
X100591904Y-159805714D01*
X100830000Y-159805714D02*
X101068095Y-160472380D01*
X101306190Y-159805714D02*
X101068095Y-160472380D01*
X100972857Y-160710476D01*
X100925238Y-160758095D01*
X100830000Y-160805714D01*
X102449047Y-160472380D02*
X102449047Y-159472380D01*
X102830000Y-159472380D01*
X102925238Y-159520000D01*
X102972857Y-159567619D01*
X103020476Y-159662857D01*
X103020476Y-159805714D01*
X102972857Y-159900952D01*
X102925238Y-159948571D01*
X102830000Y-159996190D01*
X102449047Y-159996190D01*
X103449047Y-160472380D02*
X103449047Y-159805714D01*
X103449047Y-159472380D02*
X103401428Y-159520000D01*
X103449047Y-159567619D01*
X103496666Y-159520000D01*
X103449047Y-159472380D01*
X103449047Y-159567619D01*
X105258571Y-160377142D02*
X105210952Y-160424761D01*
X105068095Y-160472380D01*
X104972857Y-160472380D01*
X104830000Y-160424761D01*
X104734761Y-160329523D01*
X104687142Y-160234285D01*
X104639523Y-160043809D01*
X104639523Y-159900952D01*
X104687142Y-159710476D01*
X104734761Y-159615238D01*
X104830000Y-159520000D01*
X104972857Y-159472380D01*
X105068095Y-159472380D01*
X105210952Y-159520000D01*
X105258571Y-159567619D01*
X105877619Y-159472380D02*
X106068095Y-159472380D01*
X106163333Y-159520000D01*
X106258571Y-159615238D01*
X106306190Y-159805714D01*
X106306190Y-160139047D01*
X106258571Y-160329523D01*
X106163333Y-160424761D01*
X106068095Y-160472380D01*
X105877619Y-160472380D01*
X105782380Y-160424761D01*
X105687142Y-160329523D01*
X105639523Y-160139047D01*
X105639523Y-159805714D01*
X105687142Y-159615238D01*
X105782380Y-159520000D01*
X105877619Y-159472380D01*
X106734761Y-160472380D02*
X106734761Y-159472380D01*
X107306190Y-160472380D01*
X107306190Y-159472380D01*
X107782380Y-160472380D02*
X107782380Y-159472380D01*
X108353809Y-160472380D01*
X108353809Y-159472380D01*
D11*
X83839285Y-191458809D02*
X83953571Y-191496904D01*
X84144047Y-191496904D01*
X84220238Y-191458809D01*
X84258333Y-191420714D01*
X84296428Y-191344523D01*
X84296428Y-191268333D01*
X84258333Y-191192142D01*
X84220238Y-191154047D01*
X84144047Y-191115952D01*
X83991666Y-191077857D01*
X83915476Y-191039761D01*
X83877380Y-191001666D01*
X83839285Y-190925476D01*
X83839285Y-190849285D01*
X83877380Y-190773095D01*
X83915476Y-190735000D01*
X83991666Y-190696904D01*
X84182142Y-190696904D01*
X84296428Y-190735000D01*
X84753571Y-191496904D02*
X84677380Y-191458809D01*
X84639285Y-191420714D01*
X84601190Y-191344523D01*
X84601190Y-191115952D01*
X84639285Y-191039761D01*
X84677380Y-191001666D01*
X84753571Y-190963571D01*
X84867857Y-190963571D01*
X84944047Y-191001666D01*
X84982142Y-191039761D01*
X85020238Y-191115952D01*
X85020238Y-191344523D01*
X84982142Y-191420714D01*
X84944047Y-191458809D01*
X84867857Y-191496904D01*
X84753571Y-191496904D01*
X85705952Y-190963571D02*
X85705952Y-191496904D01*
X85363095Y-190963571D02*
X85363095Y-191382619D01*
X85401190Y-191458809D01*
X85477380Y-191496904D01*
X85591666Y-191496904D01*
X85667857Y-191458809D01*
X85705952Y-191420714D01*
X86086904Y-191496904D02*
X86086904Y-190963571D01*
X86086904Y-191115952D02*
X86125000Y-191039761D01*
X86163095Y-191001666D01*
X86239285Y-190963571D01*
X86315476Y-190963571D01*
X86925000Y-191458809D02*
X86848809Y-191496904D01*
X86696428Y-191496904D01*
X86620238Y-191458809D01*
X86582142Y-191420714D01*
X86544047Y-191344523D01*
X86544047Y-191115952D01*
X86582142Y-191039761D01*
X86620238Y-191001666D01*
X86696428Y-190963571D01*
X86848809Y-190963571D01*
X86925000Y-191001666D01*
X87572619Y-191458809D02*
X87496428Y-191496904D01*
X87344047Y-191496904D01*
X87267857Y-191458809D01*
X87229761Y-191382619D01*
X87229761Y-191077857D01*
X87267857Y-191001666D01*
X87344047Y-190963571D01*
X87496428Y-190963571D01*
X87572619Y-191001666D01*
X87610714Y-191077857D01*
X87610714Y-191154047D01*
X87229761Y-191230238D01*
X103016190Y-117125714D02*
X102978095Y-117163809D01*
X102863809Y-117201904D01*
X102787619Y-117201904D01*
X102673333Y-117163809D01*
X102597142Y-117087619D01*
X102559047Y-117011428D01*
X102520952Y-116859047D01*
X102520952Y-116744761D01*
X102559047Y-116592380D01*
X102597142Y-116516190D01*
X102673333Y-116440000D01*
X102787619Y-116401904D01*
X102863809Y-116401904D01*
X102978095Y-116440000D01*
X103016190Y-116478095D01*
X103740000Y-117201904D02*
X103359047Y-117201904D01*
X103359047Y-116401904D01*
X104616190Y-117201904D02*
X104616190Y-116401904D01*
X104806666Y-116401904D01*
X104920952Y-116440000D01*
X104997142Y-116516190D01*
X105035238Y-116592380D01*
X105073333Y-116744761D01*
X105073333Y-116859047D01*
X105035238Y-117011428D01*
X104997142Y-117087619D01*
X104920952Y-117163809D01*
X104806666Y-117201904D01*
X104616190Y-117201904D01*
X105378095Y-116973333D02*
X105759047Y-116973333D01*
X105301904Y-117201904D02*
X105568571Y-116401904D01*
X105835238Y-117201904D01*
X87795714Y-176358571D02*
X88100476Y-176358571D01*
X87910000Y-176891904D02*
X87910000Y-176206190D01*
X87948095Y-176130000D01*
X88024285Y-176091904D01*
X88100476Y-176091904D01*
X88481428Y-176891904D02*
X88405238Y-176853809D01*
X88367142Y-176815714D01*
X88329047Y-176739523D01*
X88329047Y-176510952D01*
X88367142Y-176434761D01*
X88405238Y-176396666D01*
X88481428Y-176358571D01*
X88595714Y-176358571D01*
X88671904Y-176396666D01*
X88710000Y-176434761D01*
X88748095Y-176510952D01*
X88748095Y-176739523D01*
X88710000Y-176815714D01*
X88671904Y-176853809D01*
X88595714Y-176891904D01*
X88481428Y-176891904D01*
X89090952Y-176891904D02*
X89090952Y-176358571D01*
X89090952Y-176510952D02*
X89129047Y-176434761D01*
X89167142Y-176396666D01*
X89243333Y-176358571D01*
X89319523Y-176358571D01*
X90652857Y-176891904D02*
X90386190Y-176510952D01*
X90195714Y-176891904D02*
X90195714Y-176091904D01*
X90500476Y-176091904D01*
X90576666Y-176130000D01*
X90614761Y-176168095D01*
X90652857Y-176244285D01*
X90652857Y-176358571D01*
X90614761Y-176434761D01*
X90576666Y-176472857D01*
X90500476Y-176510952D01*
X90195714Y-176510952D01*
X91338571Y-176891904D02*
X91338571Y-176472857D01*
X91300476Y-176396666D01*
X91224285Y-176358571D01*
X91071904Y-176358571D01*
X90995714Y-176396666D01*
X91338571Y-176853809D02*
X91262380Y-176891904D01*
X91071904Y-176891904D01*
X90995714Y-176853809D01*
X90957619Y-176777619D01*
X90957619Y-176701428D01*
X90995714Y-176625238D01*
X91071904Y-176587142D01*
X91262380Y-176587142D01*
X91338571Y-176549047D01*
X91681428Y-176853809D02*
X91757619Y-176891904D01*
X91910000Y-176891904D01*
X91986190Y-176853809D01*
X92024285Y-176777619D01*
X92024285Y-176739523D01*
X91986190Y-176663333D01*
X91910000Y-176625238D01*
X91795714Y-176625238D01*
X91719523Y-176587142D01*
X91681428Y-176510952D01*
X91681428Y-176472857D01*
X91719523Y-176396666D01*
X91795714Y-176358571D01*
X91910000Y-176358571D01*
X91986190Y-176396666D01*
X92367142Y-176358571D02*
X92367142Y-177158571D01*
X92367142Y-176396666D02*
X92443333Y-176358571D01*
X92595714Y-176358571D01*
X92671904Y-176396666D01*
X92710000Y-176434761D01*
X92748095Y-176510952D01*
X92748095Y-176739523D01*
X92710000Y-176815714D01*
X92671904Y-176853809D01*
X92595714Y-176891904D01*
X92443333Y-176891904D01*
X92367142Y-176853809D01*
X93090952Y-176891904D02*
X93090952Y-176091904D01*
X93090952Y-176396666D02*
X93167142Y-176358571D01*
X93319523Y-176358571D01*
X93395714Y-176396666D01*
X93433809Y-176434761D01*
X93471904Y-176510952D01*
X93471904Y-176739523D01*
X93433809Y-176815714D01*
X93395714Y-176853809D01*
X93319523Y-176891904D01*
X93167142Y-176891904D01*
X93090952Y-176853809D01*
X94119523Y-176853809D02*
X94043333Y-176891904D01*
X93890952Y-176891904D01*
X93814761Y-176853809D01*
X93776666Y-176777619D01*
X93776666Y-176472857D01*
X93814761Y-176396666D01*
X93890952Y-176358571D01*
X94043333Y-176358571D01*
X94119523Y-176396666D01*
X94157619Y-176472857D01*
X94157619Y-176549047D01*
X93776666Y-176625238D01*
X94500476Y-176891904D02*
X94500476Y-176358571D01*
X94500476Y-176510952D02*
X94538571Y-176434761D01*
X94576666Y-176396666D01*
X94652857Y-176358571D01*
X94729047Y-176358571D01*
X94995714Y-176891904D02*
X94995714Y-176358571D01*
X94995714Y-176510952D02*
X95033809Y-176434761D01*
X95071904Y-176396666D01*
X95148095Y-176358571D01*
X95224285Y-176358571D01*
X95414761Y-176358571D02*
X95605238Y-176891904D01*
X95795714Y-176358571D02*
X95605238Y-176891904D01*
X95529047Y-177082380D01*
X95490952Y-177120476D01*
X95414761Y-177158571D01*
X96710000Y-176891904D02*
X96710000Y-176091904D01*
X97014761Y-176091904D01*
X97090952Y-176130000D01*
X97129047Y-176168095D01*
X97167142Y-176244285D01*
X97167142Y-176358571D01*
X97129047Y-176434761D01*
X97090952Y-176472857D01*
X97014761Y-176510952D01*
X96710000Y-176510952D01*
X97510000Y-176891904D02*
X97510000Y-176358571D01*
X97510000Y-176091904D02*
X97471904Y-176130000D01*
X97510000Y-176168095D01*
X97548095Y-176130000D01*
X97510000Y-176091904D01*
X97510000Y-176168095D01*
D10*
X117465714Y-109832857D02*
X117465714Y-110804285D01*
X117522857Y-110918571D01*
X117580000Y-110975714D01*
X117694285Y-111032857D01*
X117922857Y-111032857D01*
X118037142Y-110975714D01*
X118094285Y-110918571D01*
X118151428Y-110804285D01*
X118151428Y-109832857D01*
X118665714Y-110690000D02*
X119237142Y-110690000D01*
X118551428Y-111032857D02*
X118951428Y-109832857D01*
X119351428Y-111032857D01*
X120437142Y-111032857D02*
X120037142Y-110461428D01*
X119751428Y-111032857D02*
X119751428Y-109832857D01*
X120208571Y-109832857D01*
X120322857Y-109890000D01*
X120380000Y-109947142D01*
X120437142Y-110061428D01*
X120437142Y-110232857D01*
X120380000Y-110347142D01*
X120322857Y-110404285D01*
X120208571Y-110461428D01*
X119751428Y-110461428D01*
X120780000Y-109832857D02*
X121465714Y-109832857D01*
X121122857Y-111032857D02*
X121122857Y-109832857D01*
D11*
X107950000Y-133350000D02*
X113030000Y-133350000D01*
X113030000Y-135382000D02*
X113030000Y-133350000D01*
X113030000Y-135382000D02*
X107950000Y-135382000D01*
X87839523Y-137268000D02*
X87763333Y-137229904D01*
X87649047Y-137229904D01*
X87534761Y-137268000D01*
X87458571Y-137344190D01*
X87420476Y-137420380D01*
X87382380Y-137572761D01*
X87382380Y-137687047D01*
X87420476Y-137839428D01*
X87458571Y-137915619D01*
X87534761Y-137991809D01*
X87649047Y-138029904D01*
X87725238Y-138029904D01*
X87839523Y-137991809D01*
X87877619Y-137953714D01*
X87877619Y-137687047D01*
X87725238Y-137687047D01*
X94697619Y-138029904D02*
X94697619Y-137229904D01*
X94888095Y-137229904D01*
X95002380Y-137268000D01*
X95078571Y-137344190D01*
X95116666Y-137420380D01*
X95154761Y-137572761D01*
X95154761Y-137687047D01*
X95116666Y-137839428D01*
X95078571Y-137915619D01*
X95002380Y-137991809D01*
X94888095Y-138029904D01*
X94697619Y-138029904D01*
X95459523Y-137801333D02*
X95840476Y-137801333D01*
X95383333Y-138029904D02*
X95650000Y-137229904D01*
X95916666Y-138029904D01*
X92633809Y-137953714D02*
X92595714Y-137991809D01*
X92481428Y-138029904D01*
X92405238Y-138029904D01*
X92290952Y-137991809D01*
X92214761Y-137915619D01*
X92176666Y-137839428D01*
X92138571Y-137687047D01*
X92138571Y-137572761D01*
X92176666Y-137420380D01*
X92214761Y-137344190D01*
X92290952Y-137268000D01*
X92405238Y-137229904D01*
X92481428Y-137229904D01*
X92595714Y-137268000D01*
X92633809Y-137306095D01*
X93357619Y-138029904D02*
X92976666Y-138029904D01*
X92976666Y-137229904D01*
X96849523Y-137229904D02*
X97344761Y-137229904D01*
X97078095Y-137534666D01*
X97192380Y-137534666D01*
X97268571Y-137572761D01*
X97306666Y-137610857D01*
X97344761Y-137687047D01*
X97344761Y-137877523D01*
X97306666Y-137953714D01*
X97268571Y-137991809D01*
X97192380Y-138029904D01*
X96963809Y-138029904D01*
X96887619Y-137991809D01*
X96849523Y-137953714D01*
X97573333Y-137229904D02*
X97840000Y-138029904D01*
X98106666Y-137229904D01*
X98297142Y-137229904D02*
X98792380Y-137229904D01*
X98525714Y-137534666D01*
X98640000Y-137534666D01*
X98716190Y-137572761D01*
X98754285Y-137610857D01*
X98792380Y-137687047D01*
X98792380Y-137877523D01*
X98754285Y-137953714D01*
X98716190Y-137991809D01*
X98640000Y-138029904D01*
X98411428Y-138029904D01*
X98335238Y-137991809D01*
X98297142Y-137953714D01*
D10*
X89722857Y-142782857D02*
X89722857Y-141582857D01*
X90408571Y-142782857D01*
X90408571Y-141582857D01*
X91437142Y-142725714D02*
X91322857Y-142782857D01*
X91094285Y-142782857D01*
X90980000Y-142725714D01*
X90922857Y-142611428D01*
X90922857Y-142154285D01*
X90980000Y-142040000D01*
X91094285Y-141982857D01*
X91322857Y-141982857D01*
X91437142Y-142040000D01*
X91494285Y-142154285D01*
X91494285Y-142268571D01*
X90922857Y-142382857D01*
X92008571Y-142782857D02*
X92008571Y-141982857D01*
X92008571Y-142211428D02*
X92065714Y-142097142D01*
X92122857Y-142040000D01*
X92237142Y-141982857D01*
X92351428Y-141982857D01*
X92637142Y-141982857D02*
X92922857Y-142782857D01*
X93208571Y-141982857D01*
X94122857Y-142725714D02*
X94008571Y-142782857D01*
X93780000Y-142782857D01*
X93665714Y-142725714D01*
X93608571Y-142611428D01*
X93608571Y-142154285D01*
X93665714Y-142040000D01*
X93780000Y-141982857D01*
X94008571Y-141982857D01*
X94122857Y-142040000D01*
X94180000Y-142154285D01*
X94180000Y-142268571D01*
X93608571Y-142382857D01*
X94637142Y-142725714D02*
X94751428Y-142782857D01*
X94980000Y-142782857D01*
X95094285Y-142725714D01*
X95151428Y-142611428D01*
X95151428Y-142554285D01*
X95094285Y-142440000D01*
X94980000Y-142382857D01*
X94808571Y-142382857D01*
X94694285Y-142325714D01*
X94637142Y-142211428D01*
X94637142Y-142154285D01*
X94694285Y-142040000D01*
X94808571Y-141982857D01*
X94980000Y-141982857D01*
X95094285Y-142040000D01*
X95665714Y-142782857D02*
X95665714Y-141582857D01*
X96351428Y-142782857D02*
X95837142Y-142097142D01*
X96351428Y-141582857D02*
X95665714Y-142268571D01*
X97322857Y-142725714D02*
X97208571Y-142782857D01*
X96980000Y-142782857D01*
X96865714Y-142725714D01*
X96808571Y-142611428D01*
X96808571Y-142154285D01*
X96865714Y-142040000D01*
X96980000Y-141982857D01*
X97208571Y-141982857D01*
X97322857Y-142040000D01*
X97380000Y-142154285D01*
X97380000Y-142268571D01*
X96808571Y-142382857D01*
X97780000Y-141982857D02*
X98065714Y-142782857D01*
X98351428Y-141982857D02*
X98065714Y-142782857D01*
X97951428Y-143068571D01*
X97894285Y-143125714D01*
X97780000Y-143182857D01*
X100965000Y-175260000D02*
X83820000Y-175260000D01*
D13*
X84271934Y-174259761D02*
X84521934Y-172259761D01*
X85414791Y-174259761D01*
X85664791Y-172259761D01*
X87140982Y-174164523D02*
X86938601Y-174259761D01*
X86557648Y-174259761D01*
X86379077Y-174164523D01*
X86307648Y-173974047D01*
X86402886Y-173212142D01*
X86521934Y-173021666D01*
X86724315Y-172926428D01*
X87105267Y-172926428D01*
X87283839Y-173021666D01*
X87355267Y-173212142D01*
X87331458Y-173402619D01*
X86355267Y-173593095D01*
X88081458Y-174259761D02*
X88248125Y-172926428D01*
X88200505Y-173307380D02*
X88319553Y-173116904D01*
X88426696Y-173021666D01*
X88629077Y-172926428D01*
X88819553Y-172926428D01*
X89295744Y-172926428D02*
X89605267Y-174259761D01*
X90248125Y-172926428D01*
X91617172Y-174164523D02*
X91414791Y-174259761D01*
X91033839Y-174259761D01*
X90855267Y-174164523D01*
X90783839Y-173974047D01*
X90879077Y-173212142D01*
X90998125Y-173021666D01*
X91200505Y-172926428D01*
X91581458Y-172926428D01*
X91760029Y-173021666D01*
X91831458Y-173212142D01*
X91807648Y-173402619D01*
X90831458Y-173593095D01*
X92474315Y-174164523D02*
X92652886Y-174259761D01*
X93033839Y-174259761D01*
X93236220Y-174164523D01*
X93355267Y-173974047D01*
X93367172Y-173878809D01*
X93295744Y-173688333D01*
X93117172Y-173593095D01*
X92831458Y-173593095D01*
X92652886Y-173497857D01*
X92581458Y-173307380D01*
X92593363Y-173212142D01*
X92712410Y-173021666D01*
X92914791Y-172926428D01*
X93200505Y-172926428D01*
X93379077Y-173021666D01*
X96498125Y-173212142D02*
X96771934Y-173307380D01*
X96855267Y-173402619D01*
X96926696Y-173593095D01*
X96890982Y-173878809D01*
X96771934Y-174069285D01*
X96664791Y-174164523D01*
X96462410Y-174259761D01*
X95700505Y-174259761D01*
X95950505Y-172259761D01*
X96617172Y-172259761D01*
X96795744Y-172355000D01*
X96879077Y-172450238D01*
X96950505Y-172640714D01*
X96926696Y-172831190D01*
X96807648Y-173021666D01*
X96700505Y-173116904D01*
X96498125Y-173212142D01*
X95831458Y-173212142D01*
X98331458Y-172259761D02*
X98712410Y-172259761D01*
X98890982Y-172355000D01*
X99057648Y-172545476D01*
X99105267Y-172926428D01*
X99021934Y-173593095D01*
X98879077Y-173974047D01*
X98664791Y-174164523D01*
X98462410Y-174259761D01*
X98081458Y-174259761D01*
X97902886Y-174164523D01*
X97736220Y-173974047D01*
X97688601Y-173593095D01*
X97771934Y-172926428D01*
X97914791Y-172545476D01*
X98129077Y-172355000D01*
X98331458Y-172259761D01*
X99855267Y-172259761D02*
X100938601Y-174259761D01*
X101188601Y-172259761D02*
X99605267Y-174259761D01*
D11*
X91707142Y-194367142D02*
X92316666Y-194367142D01*
X92011904Y-194671904D02*
X92011904Y-194062380D01*
X92659523Y-193948095D02*
X92697619Y-193910000D01*
X92773809Y-193871904D01*
X92964285Y-193871904D01*
X93040476Y-193910000D01*
X93078571Y-193948095D01*
X93116666Y-194024285D01*
X93116666Y-194100476D01*
X93078571Y-194214761D01*
X92621428Y-194671904D01*
X93116666Y-194671904D01*
X93802380Y-194138571D02*
X93802380Y-194671904D01*
X93611904Y-193833809D02*
X93421428Y-194405238D01*
X93916666Y-194405238D01*
X96659523Y-194367142D02*
X97269047Y-194367142D01*
X97611904Y-193948095D02*
X97650000Y-193910000D01*
X97726190Y-193871904D01*
X97916666Y-193871904D01*
X97992857Y-193910000D01*
X98030952Y-193948095D01*
X98069047Y-194024285D01*
X98069047Y-194100476D01*
X98030952Y-194214761D01*
X97573809Y-194671904D01*
X98069047Y-194671904D01*
X98754761Y-194138571D02*
X98754761Y-194671904D01*
X98564285Y-193833809D02*
X98373809Y-194405238D01*
X98869047Y-194405238D01*
X89040000Y-110547142D02*
X89649523Y-110547142D01*
X89344761Y-110851904D02*
X89344761Y-110242380D01*
X90411428Y-110051904D02*
X90030476Y-110051904D01*
X89992380Y-110432857D01*
X90030476Y-110394761D01*
X90106666Y-110356666D01*
X90297142Y-110356666D01*
X90373333Y-110394761D01*
X90411428Y-110432857D01*
X90449523Y-110509047D01*
X90449523Y-110699523D01*
X90411428Y-110775714D01*
X90373333Y-110813809D01*
X90297142Y-110851904D01*
X90106666Y-110851904D01*
X90030476Y-110813809D01*
X89992380Y-110775714D01*
X91820952Y-110090000D02*
X91744761Y-110051904D01*
X91630476Y-110051904D01*
X91516190Y-110090000D01*
X91440000Y-110166190D01*
X91401904Y-110242380D01*
X91363809Y-110394761D01*
X91363809Y-110509047D01*
X91401904Y-110661428D01*
X91440000Y-110737619D01*
X91516190Y-110813809D01*
X91630476Y-110851904D01*
X91706666Y-110851904D01*
X91820952Y-110813809D01*
X91859047Y-110775714D01*
X91859047Y-110509047D01*
X91706666Y-110509047D01*
X93840000Y-110090000D02*
X93763809Y-110051904D01*
X93649523Y-110051904D01*
X93535238Y-110090000D01*
X93459047Y-110166190D01*
X93420952Y-110242380D01*
X93382857Y-110394761D01*
X93382857Y-110509047D01*
X93420952Y-110661428D01*
X93459047Y-110737619D01*
X93535238Y-110813809D01*
X93649523Y-110851904D01*
X93725714Y-110851904D01*
X93840000Y-110813809D01*
X93878095Y-110775714D01*
X93878095Y-110509047D01*
X93725714Y-110509047D01*
D10*
X105978571Y-118415000D02*
X105864285Y-118357857D01*
X105692857Y-118357857D01*
X105521428Y-118415000D01*
X105407142Y-118529285D01*
X105350000Y-118643571D01*
X105292857Y-118872142D01*
X105292857Y-119043571D01*
X105350000Y-119272142D01*
X105407142Y-119386428D01*
X105521428Y-119500714D01*
X105692857Y-119557857D01*
X105807142Y-119557857D01*
X105978571Y-119500714D01*
X106035714Y-119443571D01*
X106035714Y-119043571D01*
X105807142Y-119043571D01*
X107235714Y-119557857D02*
X106835714Y-118986428D01*
X106550000Y-119557857D02*
X106550000Y-118357857D01*
X107007142Y-118357857D01*
X107121428Y-118415000D01*
X107178571Y-118472142D01*
X107235714Y-118586428D01*
X107235714Y-118757857D01*
X107178571Y-118872142D01*
X107121428Y-118929285D01*
X107007142Y-118986428D01*
X106550000Y-118986428D01*
X107978571Y-118357857D02*
X108207142Y-118357857D01*
X108321428Y-118415000D01*
X108435714Y-118529285D01*
X108492857Y-118757857D01*
X108492857Y-119157857D01*
X108435714Y-119386428D01*
X108321428Y-119500714D01*
X108207142Y-119557857D01*
X107978571Y-119557857D01*
X107864285Y-119500714D01*
X107750000Y-119386428D01*
X107692857Y-119157857D01*
X107692857Y-118757857D01*
X107750000Y-118529285D01*
X107864285Y-118415000D01*
X107978571Y-118357857D01*
X108835714Y-118357857D02*
X109235714Y-119557857D01*
X109635714Y-118357857D01*
X110035714Y-118929285D02*
X110435714Y-118929285D01*
X110607142Y-119557857D02*
X110035714Y-119557857D01*
X110035714Y-118357857D01*
X110607142Y-118357857D01*
X104892857Y-121557857D02*
X104892857Y-120357857D01*
X105407142Y-120472142D02*
X105464285Y-120415000D01*
X105578571Y-120357857D01*
X105864285Y-120357857D01*
X105978571Y-120415000D01*
X106035714Y-120472142D01*
X106092857Y-120586428D01*
X106092857Y-120700714D01*
X106035714Y-120872142D01*
X105350000Y-121557857D01*
X106092857Y-121557857D01*
X107292857Y-121443571D02*
X107235714Y-121500714D01*
X107064285Y-121557857D01*
X106950000Y-121557857D01*
X106778571Y-121500714D01*
X106664285Y-121386428D01*
X106607142Y-121272142D01*
X106550000Y-121043571D01*
X106550000Y-120872142D01*
X106607142Y-120643571D01*
X106664285Y-120529285D01*
X106778571Y-120415000D01*
X106950000Y-120357857D01*
X107064285Y-120357857D01*
X107235714Y-120415000D01*
X107292857Y-120472142D01*
X108150000Y-122015000D02*
X108092857Y-121957857D01*
X107978571Y-121786428D01*
X107921428Y-121672142D01*
X107864285Y-121500714D01*
X107807142Y-121215000D01*
X107807142Y-120986428D01*
X107864285Y-120700714D01*
X107921428Y-120529285D01*
X107978571Y-120415000D01*
X108092857Y-120243571D01*
X108150000Y-120186428D01*
X109178571Y-120357857D02*
X108607142Y-120357857D01*
X108550000Y-120929285D01*
X108607142Y-120872142D01*
X108721428Y-120815000D01*
X109007142Y-120815000D01*
X109121428Y-120872142D01*
X109178571Y-120929285D01*
X109235714Y-121043571D01*
X109235714Y-121329285D01*
X109178571Y-121443571D01*
X109121428Y-121500714D01*
X109007142Y-121557857D01*
X108721428Y-121557857D01*
X108607142Y-121500714D01*
X108550000Y-121443571D01*
X109578571Y-120357857D02*
X109978571Y-121557857D01*
X110378571Y-120357857D01*
X110664285Y-122015000D02*
X110721428Y-121957857D01*
X110835714Y-121786428D01*
X110892857Y-121672142D01*
X110950000Y-121500714D01*
X111007142Y-121215000D01*
X111007142Y-120986428D01*
X110950000Y-120700714D01*
X110892857Y-120529285D01*
X110835714Y-120415000D01*
X110721428Y-120243571D01*
X110664285Y-120186428D01*
D11*
X121151619Y-113291904D02*
X120884952Y-112910952D01*
X120694476Y-113291904D02*
X120694476Y-112491904D01*
X120999238Y-112491904D01*
X121075428Y-112530000D01*
X121113523Y-112568095D01*
X121151619Y-112644285D01*
X121151619Y-112758571D01*
X121113523Y-112834761D01*
X121075428Y-112872857D01*
X120999238Y-112910952D01*
X120694476Y-112910952D01*
X120675428Y-115131904D02*
X121132571Y-115131904D01*
X120904000Y-115931904D02*
X120904000Y-115131904D01*
X121113523Y-117810000D02*
X121037333Y-117771904D01*
X120923047Y-117771904D01*
X120808761Y-117810000D01*
X120732571Y-117886190D01*
X120694476Y-117962380D01*
X120656380Y-118114761D01*
X120656380Y-118229047D01*
X120694476Y-118381428D01*
X120732571Y-118457619D01*
X120808761Y-118533809D01*
X120923047Y-118571904D01*
X120999238Y-118571904D01*
X121113523Y-118533809D01*
X121151619Y-118495714D01*
X121151619Y-118229047D01*
X120999238Y-118229047D01*
X125032380Y-110775714D02*
X124994285Y-110813809D01*
X124879999Y-110851904D01*
X124803809Y-110851904D01*
X124689523Y-110813809D01*
X124613333Y-110737619D01*
X124575238Y-110661428D01*
X124537142Y-110509047D01*
X124537142Y-110394761D01*
X124575238Y-110242380D01*
X124613333Y-110166190D01*
X124689523Y-110090000D01*
X124803809Y-110051904D01*
X124879999Y-110051904D01*
X124994285Y-110090000D01*
X125032380Y-110128095D01*
X125908571Y-110051904D02*
X126441904Y-110851904D01*
X126441904Y-110051904D02*
X125908571Y-110851904D01*
X126899047Y-110051904D02*
X126975238Y-110051904D01*
X127051428Y-110090000D01*
X127089523Y-110128095D01*
X127127619Y-110204285D01*
X127165714Y-110356666D01*
X127165714Y-110547142D01*
X127127619Y-110699523D01*
X127089523Y-110775714D01*
X127051428Y-110813809D01*
X126975238Y-110851904D01*
X126899047Y-110851904D01*
X126822857Y-110813809D01*
X126784761Y-110775714D01*
X126746666Y-110699523D01*
X126708571Y-110547142D01*
X126708571Y-110356666D01*
X126746666Y-110204285D01*
X126784761Y-110128095D01*
X126822857Y-110090000D01*
X126899047Y-110051904D01*
X129184761Y-110775714D02*
X129146666Y-110813809D01*
X129032380Y-110851904D01*
X128956190Y-110851904D01*
X128841904Y-110813809D01*
X128765714Y-110737619D01*
X128727619Y-110661428D01*
X128689523Y-110509047D01*
X128689523Y-110394761D01*
X128727619Y-110242380D01*
X128765714Y-110166190D01*
X128841904Y-110090000D01*
X128956190Y-110051904D01*
X129032380Y-110051904D01*
X129146666Y-110090000D01*
X129184761Y-110128095D01*
X130060952Y-110051904D02*
X130594285Y-110851904D01*
X130594285Y-110051904D02*
X130060952Y-110851904D01*
X131318095Y-110851904D02*
X130860952Y-110851904D01*
X131089523Y-110851904D02*
X131089523Y-110051904D01*
X131013333Y-110166190D01*
X130937142Y-110242380D01*
X130860952Y-110280476D01*
X133337142Y-110775714D02*
X133299047Y-110813809D01*
X133184761Y-110851904D01*
X133108571Y-110851904D01*
X132994285Y-110813809D01*
X132918095Y-110737619D01*
X132880000Y-110661428D01*
X132841904Y-110509047D01*
X132841904Y-110394761D01*
X132880000Y-110242380D01*
X132918095Y-110166190D01*
X132994285Y-110090000D01*
X133108571Y-110051904D01*
X133184761Y-110051904D01*
X133299047Y-110090000D01*
X133337142Y-110128095D01*
X134213333Y-110051904D02*
X134746666Y-110851904D01*
X134746666Y-110051904D02*
X134213333Y-110851904D01*
X135013333Y-110128095D02*
X135051428Y-110090000D01*
X135127619Y-110051904D01*
X135318095Y-110051904D01*
X135394285Y-110090000D01*
X135432380Y-110128095D01*
X135470476Y-110204285D01*
X135470476Y-110280476D01*
X135432380Y-110394761D01*
X134975238Y-110851904D01*
X135470476Y-110851904D01*
X137489523Y-110775714D02*
X137451428Y-110813809D01*
X137337142Y-110851904D01*
X137260952Y-110851904D01*
X137146666Y-110813809D01*
X137070476Y-110737619D01*
X137032380Y-110661428D01*
X136994285Y-110509047D01*
X136994285Y-110394761D01*
X137032380Y-110242380D01*
X137070476Y-110166190D01*
X137146666Y-110090000D01*
X137260952Y-110051904D01*
X137337142Y-110051904D01*
X137451428Y-110090000D01*
X137489523Y-110128095D01*
X138365714Y-110051904D02*
X138899047Y-110851904D01*
X138899047Y-110051904D02*
X138365714Y-110851904D01*
X139127619Y-110051904D02*
X139622857Y-110051904D01*
X139356190Y-110356666D01*
X139470476Y-110356666D01*
X139546666Y-110394761D01*
X139584761Y-110432857D01*
X139622857Y-110509047D01*
X139622857Y-110699523D01*
X139584761Y-110775714D01*
X139546666Y-110813809D01*
X139470476Y-110851904D01*
X139241904Y-110851904D01*
X139165714Y-110813809D01*
X139127619Y-110775714D01*
D10*
X146410000Y-110095000D02*
X146295714Y-110037857D01*
X146124285Y-110037857D01*
X145952857Y-110095000D01*
X145838571Y-110209285D01*
X145781428Y-110323571D01*
X145724285Y-110552142D01*
X145724285Y-110723571D01*
X145781428Y-110952142D01*
X145838571Y-111066428D01*
X145952857Y-111180714D01*
X146124285Y-111237857D01*
X146238571Y-111237857D01*
X146410000Y-111180714D01*
X146467142Y-111123571D01*
X146467142Y-110723571D01*
X146238571Y-110723571D01*
X146981428Y-111237857D02*
X146981428Y-110037857D01*
X147438571Y-110037857D01*
X147552857Y-110095000D01*
X147610000Y-110152142D01*
X147667142Y-110266428D01*
X147667142Y-110437857D01*
X147610000Y-110552142D01*
X147552857Y-110609285D01*
X147438571Y-110666428D01*
X146981428Y-110666428D01*
X148181428Y-111237857D02*
X148181428Y-110037857D01*
X148981428Y-110037857D02*
X149210000Y-110037857D01*
X149324285Y-110095000D01*
X149438571Y-110209285D01*
X149495714Y-110437857D01*
X149495714Y-110837857D01*
X149438571Y-111066428D01*
X149324285Y-111180714D01*
X149210000Y-111237857D01*
X148981428Y-111237857D01*
X148867142Y-111180714D01*
X148752857Y-111066428D01*
X148695714Y-110837857D01*
X148695714Y-110437857D01*
X148752857Y-110209285D01*
X148867142Y-110095000D01*
X148981428Y-110037857D01*
X147067142Y-113237857D02*
X147067142Y-112037857D01*
X147638571Y-112437857D02*
X147638571Y-113237857D01*
X147638571Y-112552142D02*
X147695714Y-112495000D01*
X147810000Y-112437857D01*
X147981428Y-112437857D01*
X148095714Y-112495000D01*
X148152857Y-112609285D01*
X148152857Y-113237857D01*
X103889285Y-192875000D02*
X104460714Y-192875000D01*
X103775000Y-193217857D02*
X104175000Y-192017857D01*
X104575000Y-193217857D01*
X104975000Y-193217857D02*
X104975000Y-192017857D01*
X105260714Y-192017857D01*
X105432142Y-192075000D01*
X105546428Y-192189285D01*
X105603571Y-192303571D01*
X105660714Y-192532142D01*
X105660714Y-192703571D01*
X105603571Y-192932142D01*
X105546428Y-193046428D01*
X105432142Y-193160714D01*
X105260714Y-193217857D01*
X104975000Y-193217857D01*
X104232142Y-195217857D02*
X104232142Y-194017857D01*
X104803571Y-194417857D02*
X104803571Y-195217857D01*
X104803571Y-194532142D02*
X104860714Y-194475000D01*
X104975000Y-194417857D01*
X105146428Y-194417857D01*
X105260714Y-194475000D01*
X105317857Y-194589285D01*
X105317857Y-195217857D01*
X146120000Y-192075000D02*
X146005714Y-192017857D01*
X145834285Y-192017857D01*
X145662857Y-192075000D01*
X145548571Y-192189285D01*
X145491428Y-192303571D01*
X145434285Y-192532142D01*
X145434285Y-192703571D01*
X145491428Y-192932142D01*
X145548571Y-193046428D01*
X145662857Y-193160714D01*
X145834285Y-193217857D01*
X145948571Y-193217857D01*
X146120000Y-193160714D01*
X146177142Y-193103571D01*
X146177142Y-192703571D01*
X145948571Y-192703571D01*
X146691428Y-193217857D02*
X146691428Y-192017857D01*
X147148571Y-192017857D01*
X147262857Y-192075000D01*
X147320000Y-192132142D01*
X147377142Y-192246428D01*
X147377142Y-192417857D01*
X147320000Y-192532142D01*
X147262857Y-192589285D01*
X147148571Y-192646428D01*
X146691428Y-192646428D01*
X147891428Y-193217857D02*
X147891428Y-192017857D01*
X148691428Y-192017857D02*
X148920000Y-192017857D01*
X149034285Y-192075000D01*
X149148571Y-192189285D01*
X149205714Y-192417857D01*
X149205714Y-192817857D01*
X149148571Y-193046428D01*
X149034285Y-193160714D01*
X148920000Y-193217857D01*
X148691428Y-193217857D01*
X148577142Y-193160714D01*
X148462857Y-193046428D01*
X148405714Y-192817857D01*
X148405714Y-192417857D01*
X148462857Y-192189285D01*
X148577142Y-192075000D01*
X148691428Y-192017857D01*
X146320000Y-194017857D02*
X146548571Y-194017857D01*
X146662857Y-194075000D01*
X146777142Y-194189285D01*
X146834285Y-194417857D01*
X146834285Y-194817857D01*
X146777142Y-195046428D01*
X146662857Y-195160714D01*
X146548571Y-195217857D01*
X146320000Y-195217857D01*
X146205714Y-195160714D01*
X146091428Y-195046428D01*
X146034285Y-194817857D01*
X146034285Y-194417857D01*
X146091428Y-194189285D01*
X146205714Y-194075000D01*
X146320000Y-194017857D01*
X147862857Y-194417857D02*
X147862857Y-195217857D01*
X147348571Y-194417857D02*
X147348571Y-195046428D01*
X147405714Y-195160714D01*
X147520000Y-195217857D01*
X147691428Y-195217857D01*
X147805714Y-195160714D01*
X147862857Y-195103571D01*
X148262857Y-194417857D02*
X148720000Y-194417857D01*
X148434285Y-194017857D02*
X148434285Y-195046428D01*
X148491428Y-195160714D01*
X148605714Y-195217857D01*
X148720000Y-195217857D01*
D11*
X127724761Y-194595714D02*
X127686666Y-194633809D01*
X127572380Y-194671904D01*
X127496190Y-194671904D01*
X127381904Y-194633809D01*
X127305714Y-194557619D01*
X127267619Y-194481428D01*
X127229523Y-194329047D01*
X127229523Y-194214761D01*
X127267619Y-194062380D01*
X127305714Y-193986190D01*
X127381904Y-193910000D01*
X127496190Y-193871904D01*
X127572380Y-193871904D01*
X127686666Y-193910000D01*
X127724761Y-193948095D01*
X128829523Y-194290952D02*
X128829523Y-194671904D01*
X128562857Y-193871904D02*
X128829523Y-194290952D01*
X129096190Y-193871904D01*
X129515238Y-193871904D02*
X129591428Y-193871904D01*
X129667619Y-193910000D01*
X129705714Y-193948095D01*
X129743809Y-194024285D01*
X129781904Y-194176666D01*
X129781904Y-194367142D01*
X129743809Y-194519523D01*
X129705714Y-194595714D01*
X129667619Y-194633809D01*
X129591428Y-194671904D01*
X129515238Y-194671904D01*
X129439047Y-194633809D01*
X129400952Y-194595714D01*
X129362857Y-194519523D01*
X129324761Y-194367142D01*
X129324761Y-194176666D01*
X129362857Y-194024285D01*
X129400952Y-193948095D01*
X129439047Y-193910000D01*
X129515238Y-193871904D01*
X131800952Y-194595714D02*
X131762857Y-194633809D01*
X131648571Y-194671904D01*
X131572380Y-194671904D01*
X131458095Y-194633809D01*
X131381904Y-194557619D01*
X131343809Y-194481428D01*
X131305714Y-194329047D01*
X131305714Y-194214761D01*
X131343809Y-194062380D01*
X131381904Y-193986190D01*
X131458095Y-193910000D01*
X131572380Y-193871904D01*
X131648571Y-193871904D01*
X131762857Y-193910000D01*
X131800952Y-193948095D01*
X132905714Y-194290952D02*
X132905714Y-194671904D01*
X132639047Y-193871904D02*
X132905714Y-194290952D01*
X133172380Y-193871904D01*
X133858095Y-194671904D02*
X133400952Y-194671904D01*
X133629523Y-194671904D02*
X133629523Y-193871904D01*
X133553333Y-193986190D01*
X133477142Y-194062380D01*
X133400952Y-194100476D01*
X135877142Y-194595714D02*
X135839047Y-194633809D01*
X135724761Y-194671904D01*
X135648571Y-194671904D01*
X135534285Y-194633809D01*
X135458095Y-194557619D01*
X135420000Y-194481428D01*
X135381904Y-194329047D01*
X135381904Y-194214761D01*
X135420000Y-194062380D01*
X135458095Y-193986190D01*
X135534285Y-193910000D01*
X135648571Y-193871904D01*
X135724761Y-193871904D01*
X135839047Y-193910000D01*
X135877142Y-193948095D01*
X136981904Y-194290952D02*
X136981904Y-194671904D01*
X136715238Y-193871904D02*
X136981904Y-194290952D01*
X137248571Y-193871904D01*
X137477142Y-193948095D02*
X137515238Y-193910000D01*
X137591428Y-193871904D01*
X137781904Y-193871904D01*
X137858095Y-193910000D01*
X137896190Y-193948095D01*
X137934285Y-194024285D01*
X137934285Y-194100476D01*
X137896190Y-194214761D01*
X137439047Y-194671904D01*
X137934285Y-194671904D01*
X139953333Y-194595714D02*
X139915238Y-194633809D01*
X139800952Y-194671904D01*
X139724761Y-194671904D01*
X139610476Y-194633809D01*
X139534285Y-194557619D01*
X139496190Y-194481428D01*
X139458095Y-194329047D01*
X139458095Y-194214761D01*
X139496190Y-194062380D01*
X139534285Y-193986190D01*
X139610476Y-193910000D01*
X139724761Y-193871904D01*
X139800952Y-193871904D01*
X139915238Y-193910000D01*
X139953333Y-193948095D01*
X141058095Y-194290952D02*
X141058095Y-194671904D01*
X140791428Y-193871904D02*
X141058095Y-194290952D01*
X141324761Y-193871904D01*
X141515238Y-193871904D02*
X142010476Y-193871904D01*
X141743809Y-194176666D01*
X141858095Y-194176666D01*
X141934285Y-194214761D01*
X141972380Y-194252857D01*
X142010476Y-194329047D01*
X142010476Y-194519523D01*
X141972380Y-194595714D01*
X141934285Y-194633809D01*
X141858095Y-194671904D01*
X141629523Y-194671904D01*
X141553333Y-194633809D01*
X141515238Y-194595714D01*
X110312619Y-194633809D02*
X110236428Y-194671904D01*
X110084047Y-194671904D01*
X110007857Y-194633809D01*
X109969761Y-194595714D01*
X109931666Y-194519523D01*
X109931666Y-194290952D01*
X109969761Y-194214761D01*
X110007857Y-194176666D01*
X110084047Y-194138571D01*
X110236428Y-194138571D01*
X110312619Y-194176666D01*
X110655476Y-194671904D02*
X110655476Y-193871904D01*
X110998333Y-194671904D02*
X110998333Y-194252857D01*
X110960238Y-194176666D01*
X110884047Y-194138571D01*
X110769761Y-194138571D01*
X110693571Y-194176666D01*
X110655476Y-194214761D01*
X111531666Y-193871904D02*
X111607857Y-193871904D01*
X111684047Y-193910000D01*
X111722142Y-193948095D01*
X111760238Y-194024285D01*
X111798333Y-194176666D01*
X111798333Y-194367142D01*
X111760238Y-194519523D01*
X111722142Y-194595714D01*
X111684047Y-194633809D01*
X111607857Y-194671904D01*
X111531666Y-194671904D01*
X111455476Y-194633809D01*
X111417380Y-194595714D01*
X111379285Y-194519523D01*
X111341190Y-194367142D01*
X111341190Y-194176666D01*
X111379285Y-194024285D01*
X111417380Y-193948095D01*
X111455476Y-193910000D01*
X111531666Y-193871904D01*
X113169761Y-193910000D02*
X113093571Y-193871904D01*
X112979285Y-193871904D01*
X112865000Y-193910000D01*
X112788809Y-193986190D01*
X112750714Y-194062380D01*
X112712619Y-194214761D01*
X112712619Y-194329047D01*
X112750714Y-194481428D01*
X112788809Y-194557619D01*
X112865000Y-194633809D01*
X112979285Y-194671904D01*
X113055476Y-194671904D01*
X113169761Y-194633809D01*
X113207857Y-194595714D01*
X113207857Y-194329047D01*
X113055476Y-194329047D01*
X114503095Y-194633809D02*
X114426904Y-194671904D01*
X114274523Y-194671904D01*
X114198333Y-194633809D01*
X114160238Y-194595714D01*
X114122142Y-194519523D01*
X114122142Y-194290952D01*
X114160238Y-194214761D01*
X114198333Y-194176666D01*
X114274523Y-194138571D01*
X114426904Y-194138571D01*
X114503095Y-194176666D01*
X114845952Y-194671904D02*
X114845952Y-193871904D01*
X115188809Y-194671904D02*
X115188809Y-194252857D01*
X115150714Y-194176666D01*
X115074523Y-194138571D01*
X114960238Y-194138571D01*
X114884047Y-194176666D01*
X114845952Y-194214761D01*
X115988809Y-194671904D02*
X115531666Y-194671904D01*
X115760238Y-194671904D02*
X115760238Y-193871904D01*
X115684047Y-193986190D01*
X115607857Y-194062380D01*
X115531666Y-194100476D01*
X117360238Y-193910000D02*
X117284047Y-193871904D01*
X117169761Y-193871904D01*
X117055476Y-193910000D01*
X116979285Y-193986190D01*
X116941190Y-194062380D01*
X116903095Y-194214761D01*
X116903095Y-194329047D01*
X116941190Y-194481428D01*
X116979285Y-194557619D01*
X117055476Y-194633809D01*
X117169761Y-194671904D01*
X117245952Y-194671904D01*
X117360238Y-194633809D01*
X117398333Y-194595714D01*
X117398333Y-194329047D01*
X117245952Y-194329047D01*
X83985238Y-186378809D02*
X84099523Y-186416904D01*
X84290000Y-186416904D01*
X84366190Y-186378809D01*
X84404285Y-186340714D01*
X84442380Y-186264523D01*
X84442380Y-186188333D01*
X84404285Y-186112142D01*
X84366190Y-186074047D01*
X84290000Y-186035952D01*
X84137619Y-185997857D01*
X84061428Y-185959761D01*
X84023333Y-185921666D01*
X83985238Y-185845476D01*
X83985238Y-185769285D01*
X84023333Y-185693095D01*
X84061428Y-185655000D01*
X84137619Y-185616904D01*
X84328095Y-185616904D01*
X84442380Y-185655000D01*
X84785238Y-186416904D02*
X84785238Y-185883571D01*
X84785238Y-185616904D02*
X84747142Y-185655000D01*
X84785238Y-185693095D01*
X84823333Y-185655000D01*
X84785238Y-185616904D01*
X84785238Y-185693095D01*
X85166190Y-185883571D02*
X85166190Y-186416904D01*
X85166190Y-185959761D02*
X85204285Y-185921666D01*
X85280476Y-185883571D01*
X85394761Y-185883571D01*
X85470952Y-185921666D01*
X85509047Y-185997857D01*
X85509047Y-186416904D01*
X85890000Y-186416904D02*
X85890000Y-185616904D01*
X85966190Y-186112142D02*
X86194761Y-186416904D01*
X86194761Y-185883571D02*
X85890000Y-186188333D01*
D10*
X84874285Y-188137857D02*
X84874285Y-186937857D01*
X85331428Y-186937857D01*
X85445714Y-186995000D01*
X85502857Y-187052142D01*
X85560000Y-187166428D01*
X85560000Y-187337857D01*
X85502857Y-187452142D01*
X85445714Y-187509285D01*
X85331428Y-187566428D01*
X84874285Y-187566428D01*
X86245714Y-188137857D02*
X86131428Y-188080714D01*
X86074285Y-188023571D01*
X86017142Y-187909285D01*
X86017142Y-187566428D01*
X86074285Y-187452142D01*
X86131428Y-187395000D01*
X86245714Y-187337857D01*
X86417142Y-187337857D01*
X86531428Y-187395000D01*
X86588571Y-187452142D01*
X86645714Y-187566428D01*
X86645714Y-187909285D01*
X86588571Y-188023571D01*
X86531428Y-188080714D01*
X86417142Y-188137857D01*
X86245714Y-188137857D01*
X87045714Y-187337857D02*
X87274285Y-188137857D01*
X87502857Y-187566428D01*
X87731428Y-188137857D01*
X87960000Y-187337857D01*
X84931428Y-189052142D02*
X84988571Y-188995000D01*
X85102857Y-188937857D01*
X85388571Y-188937857D01*
X85502857Y-188995000D01*
X85560000Y-189052142D01*
X85617142Y-189166428D01*
X85617142Y-189280714D01*
X85560000Y-189452142D01*
X84874285Y-190137857D01*
X85617142Y-190137857D01*
X86645714Y-189337857D02*
X86645714Y-190137857D01*
X86360000Y-188880714D02*
X86074285Y-189737857D01*
X86817142Y-189737857D01*
X87102857Y-188937857D02*
X87502857Y-190137857D01*
X87902857Y-188937857D01*
X127000000Y-140306428D02*
X127000000Y-140877857D01*
X126600000Y-139677857D02*
X127000000Y-140306428D01*
X127400000Y-139677857D01*
X126600000Y-135867857D02*
X127400000Y-137067857D01*
X127400000Y-135867857D02*
X126600000Y-137067857D01*
D11*
G04 #@! TO.C,J9*
X113605000Y-111700000D02*
X114935000Y-111700000D01*
X113605000Y-113030000D02*
X113605000Y-111700000D01*
X113605000Y-114300000D02*
X116265000Y-114300000D01*
X116265000Y-114300000D02*
X116265000Y-119440000D01*
X113605000Y-114300000D02*
X113605000Y-119440000D01*
X113605000Y-119440000D02*
X116265000Y-119440000D01*
G04 #@! TO.C,J6*
X88510000Y-193420000D02*
X101330000Y-193420000D01*
X88510000Y-182620000D02*
X88510000Y-195220000D01*
X88510000Y-182620000D02*
X101330000Y-182620000D01*
X101330000Y-182620000D02*
X101330000Y-195220000D01*
X88510000Y-195220000D02*
X101330000Y-195220000D01*
G04 #@! TO.C,J8*
X99120000Y-138370000D02*
X99120000Y-139700000D01*
X97790000Y-138370000D02*
X99120000Y-138370000D01*
X96520000Y-138370000D02*
X96520000Y-141030000D01*
X96520000Y-141030000D02*
X86300000Y-141030000D01*
X96520000Y-138370000D02*
X86300000Y-138370000D01*
X86300000Y-138370000D02*
X86300000Y-141030000D01*
D12*
G04 #@! TO.C,BT1*
X101430000Y-142170000D02*
X124630000Y-142170000D01*
X101430000Y-136370000D02*
X101430000Y-142170000D01*
X124630000Y-136370000D02*
X101430000Y-136370000D01*
X124630000Y-142170000D02*
X124630000Y-136370000D01*
D11*
G04 #@! TO.C,U2*
X110380000Y-181670000D02*
X112030000Y-181670000D01*
X110380000Y-171390000D02*
X110380000Y-181670000D01*
X115680000Y-171390000D02*
X110380000Y-171390000D01*
X115680000Y-181670000D02*
X115680000Y-171390000D01*
X114030000Y-181670000D02*
X115680000Y-181670000D01*
X112030000Y-181670000D02*
G75*
G02*
X114030000Y-181670000I1000000J0D01*
G01*
G04 #@! TO.C,J4*
X98180000Y-109580000D02*
X87880000Y-109580000D01*
X87880000Y-122180000D02*
X87880000Y-109580000D01*
X98180000Y-122180000D02*
X87880000Y-122180000D01*
X98180000Y-122180000D02*
X98180000Y-109580000D01*
X98180000Y-111380000D02*
X87880000Y-111380000D01*
G04 #@! TO.C,PC2*
X134680000Y-130285000D02*
X134680000Y-128635000D01*
X129480000Y-130285000D02*
X134680000Y-130285000D01*
X129480000Y-124985000D02*
X129480000Y-130285000D01*
X134680000Y-124985000D02*
X129480000Y-124985000D01*
X134680000Y-126635000D02*
X134680000Y-124985000D01*
X134680000Y-128635000D02*
G75*
G02*
X134680000Y-126635000I0J1000000D01*
G01*
G04 #@! TO.C,J3*
X117415000Y-111700000D02*
X118745000Y-111700000D01*
X117415000Y-113030000D02*
X117415000Y-111700000D01*
X117415000Y-114300000D02*
X120075000Y-114300000D01*
X120075000Y-114300000D02*
X120075000Y-119440000D01*
X117415000Y-114300000D02*
X117415000Y-119440000D01*
X117415000Y-119440000D02*
X120075000Y-119440000D01*
G04 #@! TO.C,F2*
X95290000Y-181395000D02*
X95290000Y-181710000D01*
X95290000Y-178970000D02*
X95290000Y-179285000D01*
X90050000Y-181395000D02*
X90050000Y-181710000D01*
X90050000Y-178970000D02*
X90050000Y-179285000D01*
X90050000Y-181710000D02*
X95290000Y-181710000D01*
X90050000Y-178970000D02*
X95290000Y-178970000D01*
G04 #@! TO.C,J2*
X106290000Y-195220000D02*
X119110000Y-195220000D01*
X119110000Y-182620000D02*
X119110000Y-195220000D01*
X106290000Y-182620000D02*
X119110000Y-182620000D01*
X106290000Y-182620000D02*
X106290000Y-195220000D01*
X106290000Y-193420000D02*
X119110000Y-193420000D01*
G04 #@! TO.C,J7*
X121530000Y-195220000D02*
X144430000Y-195220000D01*
X144430000Y-182620000D02*
X144430000Y-195220000D01*
X121530000Y-182620000D02*
X144430000Y-182620000D01*
X121530000Y-182620000D02*
X121530000Y-195220000D01*
X121530000Y-193420000D02*
X144430000Y-193420000D01*
G04 #@! TO.C,J5*
X145170000Y-109580000D02*
X122270000Y-109580000D01*
X122270000Y-122180000D02*
X122270000Y-109580000D01*
X145170000Y-122180000D02*
X122270000Y-122180000D01*
X145170000Y-122180000D02*
X145170000Y-109580000D01*
X145170000Y-111380000D02*
X122270000Y-111380000D01*
G04 #@! TO.C,D16*
X86260000Y-182730000D02*
X86260000Y-185190000D01*
X87730000Y-182730000D02*
X86260000Y-182730000D01*
X87730000Y-185190000D02*
X87730000Y-182730000D01*
G04 #@! TO.C,D13*
X86260000Y-191775000D02*
X86260000Y-194235000D01*
X87730000Y-191775000D02*
X86260000Y-191775000D01*
X87730000Y-194235000D02*
X87730000Y-191775000D01*
G04 #@! TO.C,D15*
X86230000Y-129160000D02*
X91630000Y-129160000D01*
X86230000Y-132460000D02*
X91630000Y-132460000D01*
X86230000Y-129160000D02*
X86230000Y-132460000D01*
G04 #@! TO.C,P1*
X91440000Y-144780000D02*
X91440000Y-158750000D01*
X91440000Y-158750000D02*
X142240000Y-158750000D01*
X142240000Y-158750000D02*
X142240000Y-144780000D01*
X142240000Y-144780000D02*
X91440000Y-144780000D01*
D14*
X91440000Y-149860000D02*
X142240000Y-149860000D01*
D11*
G04 #@! TO.C,Y1*
X107412863Y-133349783D02*
G75*
G02*
X107413144Y-135250000I-732863J-950217D01*
G01*
X105947137Y-133349783D02*
G75*
G03*
X105946856Y-135250000I732863J-950217D01*
G01*
G04 #@! TO.C,U3*
X105390000Y-127635000D02*
X105390000Y-131085000D01*
X105390000Y-127635000D02*
X105390000Y-125685000D01*
X110510000Y-127635000D02*
X110510000Y-129585000D01*
X110510000Y-127635000D02*
X110510000Y-125685000D01*
G04 #@! TO.C,U5*
X93490000Y-132720000D02*
X94950000Y-132720000D01*
X93490000Y-135880000D02*
X95650000Y-135880000D01*
X93490000Y-135880000D02*
X93490000Y-134950000D01*
X93490000Y-132720000D02*
X93490000Y-133650000D01*
G04 #@! TO.C,U1*
X111700000Y-124985000D02*
X111700000Y-126635000D01*
X121980000Y-124985000D02*
X111700000Y-124985000D01*
X121980000Y-130285000D02*
X121980000Y-124985000D01*
X111700000Y-130285000D02*
X121980000Y-130285000D01*
X111700000Y-128635000D02*
X111700000Y-130285000D01*
X111700000Y-126635000D02*
G75*
G02*
X111700000Y-128635000I0J-1000000D01*
G01*
G04 #@! TO.C,U9*
X144840000Y-179180000D02*
X144840000Y-177530000D01*
X139640000Y-179180000D02*
X144840000Y-179180000D01*
X139640000Y-173880000D02*
X139640000Y-179180000D01*
X144840000Y-173880000D02*
X139640000Y-173880000D01*
X144840000Y-175530000D02*
X144840000Y-173880000D01*
X144840000Y-177530000D02*
G75*
G02*
X144840000Y-175530000I0J1000000D01*
G01*
G04 #@! TO.C,U8*
X139760000Y-179180000D02*
X139760000Y-177530000D01*
X134560000Y-179180000D02*
X139760000Y-179180000D01*
X134560000Y-173880000D02*
X134560000Y-179180000D01*
X139760000Y-173880000D02*
X134560000Y-173880000D01*
X139760000Y-175530000D02*
X139760000Y-173880000D01*
X139760000Y-177530000D02*
G75*
G02*
X139760000Y-175530000I0J1000000D01*
G01*
G04 #@! TO.C,U7*
X134680000Y-179180000D02*
X134680000Y-177530000D01*
X129480000Y-179180000D02*
X134680000Y-179180000D01*
X129480000Y-173880000D02*
X129480000Y-179180000D01*
X134680000Y-173880000D02*
X129480000Y-173880000D01*
X134680000Y-175530000D02*
X134680000Y-173880000D01*
X134680000Y-177530000D02*
G75*
G02*
X134680000Y-175530000I0J1000000D01*
G01*
G04 #@! TO.C,U6*
X129600000Y-179180000D02*
X129600000Y-177530000D01*
X124400000Y-179180000D02*
X129600000Y-179180000D01*
X124400000Y-173880000D02*
X124400000Y-179180000D01*
X129600000Y-173880000D02*
X124400000Y-173880000D01*
X129600000Y-175530000D02*
X129600000Y-173880000D01*
X129600000Y-177530000D02*
G75*
G02*
X129600000Y-175530000I0J1000000D01*
G01*
G04 #@! TO.C,R22*
X86870000Y-121631267D02*
X86870000Y-121288733D01*
X85850000Y-121631267D02*
X85850000Y-121288733D01*
G04 #@! TO.C,R25*
X143973733Y-144020000D02*
X144316267Y-144020000D01*
X143973733Y-143000000D02*
X144316267Y-143000000D01*
G04 #@! TO.C,R24*
X140163733Y-144020000D02*
X140506267Y-144020000D01*
X140163733Y-143000000D02*
X140506267Y-143000000D01*
G04 #@! TO.C,R23*
X131908733Y-144020000D02*
X132251267Y-144020000D01*
X131908733Y-143000000D02*
X132251267Y-143000000D01*
G04 #@! TO.C,R21*
X128098733Y-144020000D02*
X128441267Y-144020000D01*
X128098733Y-143000000D02*
X128441267Y-143000000D01*
G04 #@! TO.C,R12*
X144316267Y-132840000D02*
X143973733Y-132840000D01*
X144316267Y-133860000D02*
X143973733Y-133860000D01*
G04 #@! TO.C,R11*
X140506267Y-132840000D02*
X140163733Y-132840000D01*
X140506267Y-133860000D02*
X140163733Y-133860000D01*
G04 #@! TO.C,R10*
X131908733Y-133860000D02*
X132251267Y-133860000D01*
X131908733Y-132840000D02*
X132251267Y-132840000D01*
G04 #@! TO.C,R9*
X128098733Y-133860000D02*
X128441267Y-133860000D01*
X128098733Y-132840000D02*
X128441267Y-132840000D01*
G04 #@! TO.C,PC4*
X144840000Y-130285000D02*
X144840000Y-128635000D01*
X139640000Y-130285000D02*
X144840000Y-130285000D01*
X139640000Y-124985000D02*
X139640000Y-130285000D01*
X144840000Y-124985000D02*
X139640000Y-124985000D01*
X144840000Y-126635000D02*
X144840000Y-124985000D01*
X144840000Y-128635000D02*
G75*
G02*
X144840000Y-126635000I0J1000000D01*
G01*
G04 #@! TO.C,PC3*
X139760000Y-130285000D02*
X139760000Y-128635000D01*
X134560000Y-130285000D02*
X139760000Y-130285000D01*
X134560000Y-124985000D02*
X134560000Y-130285000D01*
X139760000Y-124985000D02*
X134560000Y-124985000D01*
X139760000Y-126635000D02*
X139760000Y-124985000D01*
X139760000Y-128635000D02*
G75*
G02*
X139760000Y-126635000I0J1000000D01*
G01*
G04 #@! TO.C,PC1*
X129600000Y-130285000D02*
X129600000Y-128635000D01*
X124400000Y-130285000D02*
X129600000Y-130285000D01*
X124400000Y-124985000D02*
X124400000Y-130285000D01*
X129600000Y-124985000D02*
X124400000Y-124985000D01*
X129600000Y-126635000D02*
X129600000Y-124985000D01*
X129600000Y-128635000D02*
G75*
G02*
X129600000Y-126635000I0J1000000D01*
G01*
G04 #@! TO.C,J1*
X108770000Y-115695000D02*
X111420000Y-115695000D01*
X100370000Y-115695000D02*
X103020000Y-115695000D01*
X111420000Y-115695000D02*
X111420000Y-109845000D01*
X104120000Y-115695000D02*
X107620000Y-115695000D01*
X100370000Y-115695000D02*
X100370000Y-109845000D01*
X100370000Y-109845000D02*
X111420000Y-109845000D01*
X103270000Y-115695000D02*
X103870000Y-115695000D01*
X107870000Y-115695000D02*
X108470000Y-115695000D01*
X99870000Y-112395000D02*
X99870000Y-109395000D01*
X99870000Y-109395000D02*
X102870000Y-109395000D01*
D15*
G04 #@! TO.C,H1*
G36*
X104516964Y-172550018D02*
G01*
X104573812Y-172851570D01*
X104993338Y-173024512D01*
X105244984Y-172853395D01*
X105315458Y-172805750D01*
X105379163Y-172763210D01*
X105433126Y-172727715D01*
X105474373Y-172701210D01*
X105499934Y-172685636D01*
X105506895Y-172682278D01*
X105519435Y-172690914D01*
X105546231Y-172714792D01*
X105584280Y-172750859D01*
X105630579Y-172796067D01*
X105682123Y-172847364D01*
X105735909Y-172901701D01*
X105788935Y-172956028D01*
X105838195Y-173007295D01*
X105880687Y-173052451D01*
X105913407Y-173088446D01*
X105933351Y-173112230D01*
X105938119Y-173120190D01*
X105931257Y-173134865D01*
X105912020Y-173167014D01*
X105882430Y-173213492D01*
X105844510Y-173271156D01*
X105800282Y-173336860D01*
X105774654Y-173374336D01*
X105727941Y-173442768D01*
X105686432Y-173504520D01*
X105652140Y-173556519D01*
X105627080Y-173595692D01*
X105613264Y-173618965D01*
X105611188Y-173623855D01*
X105615895Y-173637755D01*
X105628723Y-173670150D01*
X105647738Y-173716485D01*
X105671003Y-173772206D01*
X105696584Y-173832758D01*
X105722545Y-173893586D01*
X105746950Y-173950136D01*
X105767863Y-173997852D01*
X105783349Y-174032181D01*
X105791472Y-174048568D01*
X105791952Y-174049212D01*
X105804707Y-174052341D01*
X105838677Y-174059321D01*
X105890340Y-174069467D01*
X105956176Y-174082092D01*
X106032664Y-174096509D01*
X106077290Y-174104823D01*
X106159021Y-174120384D01*
X106232843Y-174135192D01*
X106295021Y-174148436D01*
X106341822Y-174159305D01*
X106369509Y-174166989D01*
X106375074Y-174169427D01*
X106380526Y-174185930D01*
X106384924Y-174223200D01*
X106388272Y-174276880D01*
X106390574Y-174342612D01*
X106391832Y-174416037D01*
X106392048Y-174492796D01*
X106391227Y-174568532D01*
X106389371Y-174638886D01*
X106386482Y-174699500D01*
X106382565Y-174746016D01*
X106377622Y-174774075D01*
X106374657Y-174779916D01*
X106356934Y-174786917D01*
X106319381Y-174796927D01*
X106266964Y-174808769D01*
X106204652Y-174821267D01*
X106182900Y-174825310D01*
X106078024Y-174844520D01*
X105995180Y-174859991D01*
X105931630Y-174872337D01*
X105884637Y-174882173D01*
X105851463Y-174890114D01*
X105829371Y-174896776D01*
X105815624Y-174902773D01*
X105807484Y-174908719D01*
X105806345Y-174909894D01*
X105794977Y-174928826D01*
X105777635Y-174965669D01*
X105756050Y-175015913D01*
X105731954Y-175075046D01*
X105707079Y-175138556D01*
X105683157Y-175201932D01*
X105661919Y-175260662D01*
X105645097Y-175310235D01*
X105634422Y-175346139D01*
X105631627Y-175363862D01*
X105631860Y-175364483D01*
X105641331Y-175378970D01*
X105662818Y-175410844D01*
X105694063Y-175456789D01*
X105732807Y-175513485D01*
X105776793Y-175577617D01*
X105789319Y-175595842D01*
X105833984Y-175661914D01*
X105873288Y-175722200D01*
X105905088Y-175773235D01*
X105927245Y-175811560D01*
X105937617Y-175833711D01*
X105938119Y-175836432D01*
X105929405Y-175850736D01*
X105905325Y-175879072D01*
X105868976Y-175918396D01*
X105823453Y-175965661D01*
X105771852Y-176017823D01*
X105717267Y-176071835D01*
X105662794Y-176124653D01*
X105611529Y-176173231D01*
X105566567Y-176214523D01*
X105531004Y-176245485D01*
X105507935Y-176263070D01*
X105501554Y-176265941D01*
X105486699Y-176259178D01*
X105456286Y-176240939D01*
X105415268Y-176214297D01*
X105383709Y-176192852D01*
X105326525Y-176153503D01*
X105258806Y-176107171D01*
X105190880Y-176060913D01*
X105154361Y-176036155D01*
X105030752Y-175952547D01*
X104926991Y-176008650D01*
X104879720Y-176033228D01*
X104839523Y-176052331D01*
X104812326Y-176063227D01*
X104805402Y-176064743D01*
X104797077Y-176053549D01*
X104780654Y-176021917D01*
X104757357Y-175972765D01*
X104728414Y-175909010D01*
X104695050Y-175833571D01*
X104658491Y-175749364D01*
X104619964Y-175659308D01*
X104580694Y-175566321D01*
X104541908Y-175473320D01*
X104504830Y-175383223D01*
X104470689Y-175298948D01*
X104440708Y-175223413D01*
X104416116Y-175159534D01*
X104398136Y-175110231D01*
X104387997Y-175078421D01*
X104386366Y-175067496D01*
X104399291Y-175053561D01*
X104427589Y-175030940D01*
X104465346Y-175004333D01*
X104468515Y-175002228D01*
X104566100Y-174924114D01*
X104644786Y-174832982D01*
X104703891Y-174731745D01*
X104742732Y-174623318D01*
X104760628Y-174510614D01*
X104756897Y-174396548D01*
X104730857Y-174284034D01*
X104681825Y-174175985D01*
X104667400Y-174152345D01*
X104592369Y-174056887D01*
X104503730Y-173980232D01*
X104404549Y-173922780D01*
X104297895Y-173884929D01*
X104186836Y-173867078D01*
X104074439Y-173869625D01*
X103963773Y-173892970D01*
X103857906Y-173937510D01*
X103759905Y-174003645D01*
X103729590Y-174030487D01*
X103652438Y-174114512D01*
X103596218Y-174202966D01*
X103557653Y-174302115D01*
X103536174Y-174400303D01*
X103530872Y-174510697D01*
X103548552Y-174621640D01*
X103587419Y-174729381D01*
X103645677Y-174830169D01*
X103721531Y-174920256D01*
X103813183Y-174995892D01*
X103825228Y-175003864D01*
X103863389Y-175029974D01*
X103892399Y-175052595D01*
X103906268Y-175067039D01*
X103906469Y-175067496D01*
X103903492Y-175083121D01*
X103891689Y-175118582D01*
X103872286Y-175170962D01*
X103846512Y-175237345D01*
X103815591Y-175314814D01*
X103780751Y-175400450D01*
X103743217Y-175491337D01*
X103704217Y-175584559D01*
X103664977Y-175677197D01*
X103626724Y-175766335D01*
X103590683Y-175849055D01*
X103558083Y-175922441D01*
X103530148Y-175983575D01*
X103508105Y-176029541D01*
X103493182Y-176057421D01*
X103487172Y-176064743D01*
X103468809Y-176059041D01*
X103434448Y-176043749D01*
X103390016Y-176021599D01*
X103365583Y-176008650D01*
X103261822Y-175952547D01*
X103138213Y-176036155D01*
X103075114Y-176078987D01*
X103006030Y-176126122D01*
X102941293Y-176170503D01*
X102908866Y-176192852D01*
X102863259Y-176223477D01*
X102824640Y-176247747D01*
X102798048Y-176262587D01*
X102789410Y-176265724D01*
X102776839Y-176257261D01*
X102749016Y-176233636D01*
X102708639Y-176197302D01*
X102658405Y-176150711D01*
X102601012Y-176096317D01*
X102564714Y-176061392D01*
X102501210Y-175998996D01*
X102446327Y-175943188D01*
X102402286Y-175896354D01*
X102371305Y-175860882D01*
X102355602Y-175839161D01*
X102354095Y-175834752D01*
X102361086Y-175817985D01*
X102380406Y-175784082D01*
X102409909Y-175736476D01*
X102447455Y-175678599D01*
X102490900Y-175613884D01*
X102503255Y-175595842D01*
X102548273Y-175530267D01*
X102588660Y-175471228D01*
X102622160Y-175422042D01*
X102646514Y-175386028D01*
X102659464Y-175366502D01*
X102660715Y-175364483D01*
X102658844Y-175348922D01*
X102648913Y-175314709D01*
X102632653Y-175266355D01*
X102611795Y-175208371D01*
X102588073Y-175145270D01*
X102563216Y-175081563D01*
X102538958Y-175021761D01*
X102517029Y-174970376D01*
X102499162Y-174931919D01*
X102487087Y-174910902D01*
X102486229Y-174909894D01*
X102478846Y-174903888D01*
X102466375Y-174897948D01*
X102446080Y-174891460D01*
X102415222Y-174883809D01*
X102371066Y-174874380D01*
X102310874Y-174862559D01*
X102231907Y-174847729D01*
X102131430Y-174829277D01*
X102109675Y-174825310D01*
X102045198Y-174812853D01*
X101988989Y-174800666D01*
X101946013Y-174789926D01*
X101921240Y-174781809D01*
X101917918Y-174779916D01*
X101912444Y-174763138D01*
X101907994Y-174725645D01*
X101904572Y-174671794D01*
X101902181Y-174605944D01*
X101900823Y-174532453D01*
X101900501Y-174455680D01*
X101901219Y-174379983D01*
X101902979Y-174309720D01*
X101905784Y-174249250D01*
X101909638Y-174202930D01*
X101914543Y-174175119D01*
X101917500Y-174169427D01*
X101933963Y-174163686D01*
X101971449Y-174154345D01*
X102026225Y-174142215D01*
X102094555Y-174128107D01*
X102172706Y-174112830D01*
X102215284Y-174104823D01*
X102296071Y-174089721D01*
X102368113Y-174076040D01*
X102427889Y-174064467D01*
X102471879Y-174055687D01*
X102496561Y-174050387D01*
X102500623Y-174049212D01*
X102507489Y-174035965D01*
X102522002Y-174004057D01*
X102542229Y-173958047D01*
X102566234Y-173902492D01*
X102592082Y-173841953D01*
X102617840Y-173780986D01*
X102641573Y-173724151D01*
X102661346Y-173676006D01*
X102675224Y-173641110D01*
X102681274Y-173624021D01*
X102681386Y-173623274D01*
X102674528Y-173609793D01*
X102655302Y-173578770D01*
X102625728Y-173533289D01*
X102587827Y-173476432D01*
X102543620Y-173411283D01*
X102517921Y-173373862D01*
X102471093Y-173305247D01*
X102429501Y-173242952D01*
X102395175Y-173190129D01*
X102370143Y-173149927D01*
X102356435Y-173125500D01*
X102354456Y-173120024D01*
X102362966Y-173107278D01*
X102386493Y-173080063D01*
X102422032Y-173041428D01*
X102466577Y-172994423D01*
X102517123Y-172942095D01*
X102570664Y-172887495D01*
X102624195Y-172833670D01*
X102674711Y-172783670D01*
X102719206Y-172740543D01*
X102754675Y-172707339D01*
X102778113Y-172687106D01*
X102785954Y-172682278D01*
X102798720Y-172689067D01*
X102829256Y-172708142D01*
X102874590Y-172737561D01*
X102931756Y-172775381D01*
X102997784Y-172819661D01*
X103047590Y-172853395D01*
X103299236Y-173024512D01*
X103508999Y-172938041D01*
X103718763Y-172851570D01*
X103775611Y-172550018D01*
X103832460Y-172248466D01*
X104460115Y-172248466D01*
X104516964Y-172550018D01*
G37*
X104516964Y-172550018D02*
X104573812Y-172851570D01*
X104993338Y-173024512D01*
X105244984Y-172853395D01*
X105315458Y-172805750D01*
X105379163Y-172763210D01*
X105433126Y-172727715D01*
X105474373Y-172701210D01*
X105499934Y-172685636D01*
X105506895Y-172682278D01*
X105519435Y-172690914D01*
X105546231Y-172714792D01*
X105584280Y-172750859D01*
X105630579Y-172796067D01*
X105682123Y-172847364D01*
X105735909Y-172901701D01*
X105788935Y-172956028D01*
X105838195Y-173007295D01*
X105880687Y-173052451D01*
X105913407Y-173088446D01*
X105933351Y-173112230D01*
X105938119Y-173120190D01*
X105931257Y-173134865D01*
X105912020Y-173167014D01*
X105882430Y-173213492D01*
X105844510Y-173271156D01*
X105800282Y-173336860D01*
X105774654Y-173374336D01*
X105727941Y-173442768D01*
X105686432Y-173504520D01*
X105652140Y-173556519D01*
X105627080Y-173595692D01*
X105613264Y-173618965D01*
X105611188Y-173623855D01*
X105615895Y-173637755D01*
X105628723Y-173670150D01*
X105647738Y-173716485D01*
X105671003Y-173772206D01*
X105696584Y-173832758D01*
X105722545Y-173893586D01*
X105746950Y-173950136D01*
X105767863Y-173997852D01*
X105783349Y-174032181D01*
X105791472Y-174048568D01*
X105791952Y-174049212D01*
X105804707Y-174052341D01*
X105838677Y-174059321D01*
X105890340Y-174069467D01*
X105956176Y-174082092D01*
X106032664Y-174096509D01*
X106077290Y-174104823D01*
X106159021Y-174120384D01*
X106232843Y-174135192D01*
X106295021Y-174148436D01*
X106341822Y-174159305D01*
X106369509Y-174166989D01*
X106375074Y-174169427D01*
X106380526Y-174185930D01*
X106384924Y-174223200D01*
X106388272Y-174276880D01*
X106390574Y-174342612D01*
X106391832Y-174416037D01*
X106392048Y-174492796D01*
X106391227Y-174568532D01*
X106389371Y-174638886D01*
X106386482Y-174699500D01*
X106382565Y-174746016D01*
X106377622Y-174774075D01*
X106374657Y-174779916D01*
X106356934Y-174786917D01*
X106319381Y-174796927D01*
X106266964Y-174808769D01*
X106204652Y-174821267D01*
X106182900Y-174825310D01*
X106078024Y-174844520D01*
X105995180Y-174859991D01*
X105931630Y-174872337D01*
X105884637Y-174882173D01*
X105851463Y-174890114D01*
X105829371Y-174896776D01*
X105815624Y-174902773D01*
X105807484Y-174908719D01*
X105806345Y-174909894D01*
X105794977Y-174928826D01*
X105777635Y-174965669D01*
X105756050Y-175015913D01*
X105731954Y-175075046D01*
X105707079Y-175138556D01*
X105683157Y-175201932D01*
X105661919Y-175260662D01*
X105645097Y-175310235D01*
X105634422Y-175346139D01*
X105631627Y-175363862D01*
X105631860Y-175364483D01*
X105641331Y-175378970D01*
X105662818Y-175410844D01*
X105694063Y-175456789D01*
X105732807Y-175513485D01*
X105776793Y-175577617D01*
X105789319Y-175595842D01*
X105833984Y-175661914D01*
X105873288Y-175722200D01*
X105905088Y-175773235D01*
X105927245Y-175811560D01*
X105937617Y-175833711D01*
X105938119Y-175836432D01*
X105929405Y-175850736D01*
X105905325Y-175879072D01*
X105868976Y-175918396D01*
X105823453Y-175965661D01*
X105771852Y-176017823D01*
X105717267Y-176071835D01*
X105662794Y-176124653D01*
X105611529Y-176173231D01*
X105566567Y-176214523D01*
X105531004Y-176245485D01*
X105507935Y-176263070D01*
X105501554Y-176265941D01*
X105486699Y-176259178D01*
X105456286Y-176240939D01*
X105415268Y-176214297D01*
X105383709Y-176192852D01*
X105326525Y-176153503D01*
X105258806Y-176107171D01*
X105190880Y-176060913D01*
X105154361Y-176036155D01*
X105030752Y-175952547D01*
X104926991Y-176008650D01*
X104879720Y-176033228D01*
X104839523Y-176052331D01*
X104812326Y-176063227D01*
X104805402Y-176064743D01*
X104797077Y-176053549D01*
X104780654Y-176021917D01*
X104757357Y-175972765D01*
X104728414Y-175909010D01*
X104695050Y-175833571D01*
X104658491Y-175749364D01*
X104619964Y-175659308D01*
X104580694Y-175566321D01*
X104541908Y-175473320D01*
X104504830Y-175383223D01*
X104470689Y-175298948D01*
X104440708Y-175223413D01*
X104416116Y-175159534D01*
X104398136Y-175110231D01*
X104387997Y-175078421D01*
X104386366Y-175067496D01*
X104399291Y-175053561D01*
X104427589Y-175030940D01*
X104465346Y-175004333D01*
X104468515Y-175002228D01*
X104566100Y-174924114D01*
X104644786Y-174832982D01*
X104703891Y-174731745D01*
X104742732Y-174623318D01*
X104760628Y-174510614D01*
X104756897Y-174396548D01*
X104730857Y-174284034D01*
X104681825Y-174175985D01*
X104667400Y-174152345D01*
X104592369Y-174056887D01*
X104503730Y-173980232D01*
X104404549Y-173922780D01*
X104297895Y-173884929D01*
X104186836Y-173867078D01*
X104074439Y-173869625D01*
X103963773Y-173892970D01*
X103857906Y-173937510D01*
X103759905Y-174003645D01*
X103729590Y-174030487D01*
X103652438Y-174114512D01*
X103596218Y-174202966D01*
X103557653Y-174302115D01*
X103536174Y-174400303D01*
X103530872Y-174510697D01*
X103548552Y-174621640D01*
X103587419Y-174729381D01*
X103645677Y-174830169D01*
X103721531Y-174920256D01*
X103813183Y-174995892D01*
X103825228Y-175003864D01*
X103863389Y-175029974D01*
X103892399Y-175052595D01*
X103906268Y-175067039D01*
X103906469Y-175067496D01*
X103903492Y-175083121D01*
X103891689Y-175118582D01*
X103872286Y-175170962D01*
X103846512Y-175237345D01*
X103815591Y-175314814D01*
X103780751Y-175400450D01*
X103743217Y-175491337D01*
X103704217Y-175584559D01*
X103664977Y-175677197D01*
X103626724Y-175766335D01*
X103590683Y-175849055D01*
X103558083Y-175922441D01*
X103530148Y-175983575D01*
X103508105Y-176029541D01*
X103493182Y-176057421D01*
X103487172Y-176064743D01*
X103468809Y-176059041D01*
X103434448Y-176043749D01*
X103390016Y-176021599D01*
X103365583Y-176008650D01*
X103261822Y-175952547D01*
X103138213Y-176036155D01*
X103075114Y-176078987D01*
X103006030Y-176126122D01*
X102941293Y-176170503D01*
X102908866Y-176192852D01*
X102863259Y-176223477D01*
X102824640Y-176247747D01*
X102798048Y-176262587D01*
X102789410Y-176265724D01*
X102776839Y-176257261D01*
X102749016Y-176233636D01*
X102708639Y-176197302D01*
X102658405Y-176150711D01*
X102601012Y-176096317D01*
X102564714Y-176061392D01*
X102501210Y-175998996D01*
X102446327Y-175943188D01*
X102402286Y-175896354D01*
X102371305Y-175860882D01*
X102355602Y-175839161D01*
X102354095Y-175834752D01*
X102361086Y-175817985D01*
X102380406Y-175784082D01*
X102409909Y-175736476D01*
X102447455Y-175678599D01*
X102490900Y-175613884D01*
X102503255Y-175595842D01*
X102548273Y-175530267D01*
X102588660Y-175471228D01*
X102622160Y-175422042D01*
X102646514Y-175386028D01*
X102659464Y-175366502D01*
X102660715Y-175364483D01*
X102658844Y-175348922D01*
X102648913Y-175314709D01*
X102632653Y-175266355D01*
X102611795Y-175208371D01*
X102588073Y-175145270D01*
X102563216Y-175081563D01*
X102538958Y-175021761D01*
X102517029Y-174970376D01*
X102499162Y-174931919D01*
X102487087Y-174910902D01*
X102486229Y-174909894D01*
X102478846Y-174903888D01*
X102466375Y-174897948D01*
X102446080Y-174891460D01*
X102415222Y-174883809D01*
X102371066Y-174874380D01*
X102310874Y-174862559D01*
X102231907Y-174847729D01*
X102131430Y-174829277D01*
X102109675Y-174825310D01*
X102045198Y-174812853D01*
X101988989Y-174800666D01*
X101946013Y-174789926D01*
X101921240Y-174781809D01*
X101917918Y-174779916D01*
X101912444Y-174763138D01*
X101907994Y-174725645D01*
X101904572Y-174671794D01*
X101902181Y-174605944D01*
X101900823Y-174532453D01*
X101900501Y-174455680D01*
X101901219Y-174379983D01*
X101902979Y-174309720D01*
X101905784Y-174249250D01*
X101909638Y-174202930D01*
X101914543Y-174175119D01*
X101917500Y-174169427D01*
X101933963Y-174163686D01*
X101971449Y-174154345D01*
X102026225Y-174142215D01*
X102094555Y-174128107D01*
X102172706Y-174112830D01*
X102215284Y-174104823D01*
X102296071Y-174089721D01*
X102368113Y-174076040D01*
X102427889Y-174064467D01*
X102471879Y-174055687D01*
X102496561Y-174050387D01*
X102500623Y-174049212D01*
X102507489Y-174035965D01*
X102522002Y-174004057D01*
X102542229Y-173958047D01*
X102566234Y-173902492D01*
X102592082Y-173841953D01*
X102617840Y-173780986D01*
X102641573Y-173724151D01*
X102661346Y-173676006D01*
X102675224Y-173641110D01*
X102681274Y-173624021D01*
X102681386Y-173623274D01*
X102674528Y-173609793D01*
X102655302Y-173578770D01*
X102625728Y-173533289D01*
X102587827Y-173476432D01*
X102543620Y-173411283D01*
X102517921Y-173373862D01*
X102471093Y-173305247D01*
X102429501Y-173242952D01*
X102395175Y-173190129D01*
X102370143Y-173149927D01*
X102356435Y-173125500D01*
X102354456Y-173120024D01*
X102362966Y-173107278D01*
X102386493Y-173080063D01*
X102422032Y-173041428D01*
X102466577Y-172994423D01*
X102517123Y-172942095D01*
X102570664Y-172887495D01*
X102624195Y-172833670D01*
X102674711Y-172783670D01*
X102719206Y-172740543D01*
X102754675Y-172707339D01*
X102778113Y-172687106D01*
X102785954Y-172682278D01*
X102798720Y-172689067D01*
X102829256Y-172708142D01*
X102874590Y-172737561D01*
X102931756Y-172775381D01*
X102997784Y-172819661D01*
X103047590Y-172853395D01*
X103299236Y-173024512D01*
X103508999Y-172938041D01*
X103718763Y-172851570D01*
X103775611Y-172550018D01*
X103832460Y-172248466D01*
X104460115Y-172248466D01*
X104516964Y-172550018D01*
G36*
X105939460Y-176718030D02*
G01*
X105982711Y-176731245D01*
X106010558Y-176747941D01*
X106019629Y-176761145D01*
X106017132Y-176776797D01*
X106000931Y-176801385D01*
X105987232Y-176818800D01*
X105958992Y-176850283D01*
X105937775Y-176863529D01*
X105919688Y-176862664D01*
X105866035Y-176849010D01*
X105826630Y-176849630D01*
X105794632Y-176865104D01*
X105783890Y-176874161D01*
X105749505Y-176906027D01*
X105749505Y-177322179D01*
X105611188Y-177322179D01*
X105611188Y-176718614D01*
X105680347Y-176718614D01*
X105721869Y-176720256D01*
X105743291Y-176726087D01*
X105749502Y-176737461D01*
X105749505Y-176737798D01*
X105752439Y-176749713D01*
X105765704Y-176748159D01*
X105784084Y-176739563D01*
X105822046Y-176723568D01*
X105852872Y-176713945D01*
X105892536Y-176711478D01*
X105939460Y-176718030D01*
G37*
X105939460Y-176718030D02*
X105982711Y-176731245D01*
X106010558Y-176747941D01*
X106019629Y-176761145D01*
X106017132Y-176776797D01*
X106000931Y-176801385D01*
X105987232Y-176818800D01*
X105958992Y-176850283D01*
X105937775Y-176863529D01*
X105919688Y-176862664D01*
X105866035Y-176849010D01*
X105826630Y-176849630D01*
X105794632Y-176865104D01*
X105783890Y-176874161D01*
X105749505Y-176906027D01*
X105749505Y-177322179D01*
X105611188Y-177322179D01*
X105611188Y-176718614D01*
X105680347Y-176718614D01*
X105721869Y-176720256D01*
X105743291Y-176726087D01*
X105749502Y-176737461D01*
X105749505Y-176737798D01*
X105752439Y-176749713D01*
X105765704Y-176748159D01*
X105784084Y-176739563D01*
X105822046Y-176723568D01*
X105852872Y-176713945D01*
X105892536Y-176711478D01*
X105939460Y-176718030D01*
G36*
X103385988Y-176729002D02*
G01*
X103417283Y-176743950D01*
X103447591Y-176765541D01*
X103470682Y-176790391D01*
X103487500Y-176822087D01*
X103498994Y-176864214D01*
X103506109Y-176920358D01*
X103509793Y-176994106D01*
X103510992Y-177089044D01*
X103511011Y-177098985D01*
X103511287Y-177322179D01*
X103372970Y-177322179D01*
X103372970Y-177116418D01*
X103372872Y-177040189D01*
X103372191Y-176984939D01*
X103370349Y-176946501D01*
X103366767Y-176920706D01*
X103360868Y-176903384D01*
X103352073Y-176890368D01*
X103339820Y-176877507D01*
X103296953Y-176849873D01*
X103250157Y-176844745D01*
X103205576Y-176862217D01*
X103190072Y-176875221D01*
X103178690Y-176887447D01*
X103170519Y-176900540D01*
X103165026Y-176918615D01*
X103161680Y-176945787D01*
X103159949Y-176986170D01*
X103159303Y-177043879D01*
X103159208Y-177114132D01*
X103159208Y-177322179D01*
X103020891Y-177322179D01*
X103020891Y-176718614D01*
X103090050Y-176718614D01*
X103131572Y-176720256D01*
X103152994Y-176726087D01*
X103159205Y-176737461D01*
X103159208Y-176737798D01*
X103162090Y-176748938D01*
X103174801Y-176747674D01*
X103200074Y-176735434D01*
X103257395Y-176717424D01*
X103322963Y-176715421D01*
X103385988Y-176729002D01*
G37*
X103385988Y-176729002D02*
X103417283Y-176743950D01*
X103447591Y-176765541D01*
X103470682Y-176790391D01*
X103487500Y-176822087D01*
X103498994Y-176864214D01*
X103506109Y-176920358D01*
X103509793Y-176994106D01*
X103510992Y-177089044D01*
X103511011Y-177098985D01*
X103511287Y-177322179D01*
X103372970Y-177322179D01*
X103372970Y-177116418D01*
X103372872Y-177040189D01*
X103372191Y-176984939D01*
X103370349Y-176946501D01*
X103366767Y-176920706D01*
X103360868Y-176903384D01*
X103352073Y-176890368D01*
X103339820Y-176877507D01*
X103296953Y-176849873D01*
X103250157Y-176844745D01*
X103205576Y-176862217D01*
X103190072Y-176875221D01*
X103178690Y-176887447D01*
X103170519Y-176900540D01*
X103165026Y-176918615D01*
X103161680Y-176945787D01*
X103159949Y-176986170D01*
X103159303Y-177043879D01*
X103159208Y-177114132D01*
X103159208Y-177322179D01*
X103020891Y-177322179D01*
X103020891Y-176718614D01*
X103090050Y-176718614D01*
X103131572Y-176720256D01*
X103152994Y-176726087D01*
X103159205Y-176737461D01*
X103159208Y-176737798D01*
X103162090Y-176748938D01*
X103174801Y-176747674D01*
X103200074Y-176735434D01*
X103257395Y-176717424D01*
X103322963Y-176715421D01*
X103385988Y-176729002D01*
G36*
X106817898Y-176716457D02*
G01*
X106850096Y-176724279D01*
X106911825Y-176752921D01*
X106964610Y-176796667D01*
X107001141Y-176849117D01*
X107006160Y-176860893D01*
X107013045Y-176891740D01*
X107017864Y-176937371D01*
X107019505Y-176983492D01*
X107019505Y-177070693D01*
X106837178Y-177070693D01*
X106761979Y-177070978D01*
X106709003Y-177072704D01*
X106675325Y-177077181D01*
X106658020Y-177085720D01*
X106654163Y-177099630D01*
X106660829Y-177120222D01*
X106672770Y-177144315D01*
X106706080Y-177184525D01*
X106752368Y-177204558D01*
X106808944Y-177203905D01*
X106873031Y-177182101D01*
X106928417Y-177155193D01*
X106974375Y-177191532D01*
X107020333Y-177227872D01*
X106977096Y-177267819D01*
X106919374Y-177305563D01*
X106848386Y-177328320D01*
X106772029Y-177334688D01*
X106698199Y-177323268D01*
X106686287Y-177319393D01*
X106621399Y-177285506D01*
X106573130Y-177234986D01*
X106540465Y-177166325D01*
X106522385Y-177078014D01*
X106522175Y-177076121D01*
X106520556Y-176979878D01*
X106527100Y-176945542D01*
X106654852Y-176945542D01*
X106666584Y-176950822D01*
X106698438Y-176954867D01*
X106745397Y-176957176D01*
X106775154Y-176957525D01*
X106830648Y-176957306D01*
X106865346Y-176955916D01*
X106883601Y-176952251D01*
X106889766Y-176945210D01*
X106888195Y-176933690D01*
X106886878Y-176929233D01*
X106864382Y-176887355D01*
X106829003Y-176853604D01*
X106797780Y-176838773D01*
X106756301Y-176839668D01*
X106714269Y-176858164D01*
X106679012Y-176888786D01*
X106657854Y-176926062D01*
X106654852Y-176945542D01*
X106527100Y-176945542D01*
X106536690Y-176895229D01*
X106568698Y-176824191D01*
X106614701Y-176768779D01*
X106672821Y-176731009D01*
X106741180Y-176712896D01*
X106817898Y-176716457D01*
G37*
X106817898Y-176716457D02*
X106850096Y-176724279D01*
X106911825Y-176752921D01*
X106964610Y-176796667D01*
X107001141Y-176849117D01*
X107006160Y-176860893D01*
X107013045Y-176891740D01*
X107017864Y-176937371D01*
X107019505Y-176983492D01*
X107019505Y-177070693D01*
X106837178Y-177070693D01*
X106761979Y-177070978D01*
X106709003Y-177072704D01*
X106675325Y-177077181D01*
X106658020Y-177085720D01*
X106654163Y-177099630D01*
X106660829Y-177120222D01*
X106672770Y-177144315D01*
X106706080Y-177184525D01*
X106752368Y-177204558D01*
X106808944Y-177203905D01*
X106873031Y-177182101D01*
X106928417Y-177155193D01*
X106974375Y-177191532D01*
X107020333Y-177227872D01*
X106977096Y-177267819D01*
X106919374Y-177305563D01*
X106848386Y-177328320D01*
X106772029Y-177334688D01*
X106698199Y-177323268D01*
X106686287Y-177319393D01*
X106621399Y-177285506D01*
X106573130Y-177234986D01*
X106540465Y-177166325D01*
X106522385Y-177078014D01*
X106522175Y-177076121D01*
X106520556Y-176979878D01*
X106527100Y-176945542D01*
X106654852Y-176945542D01*
X106666584Y-176950822D01*
X106698438Y-176954867D01*
X106745397Y-176957176D01*
X106775154Y-176957525D01*
X106830648Y-176957306D01*
X106865346Y-176955916D01*
X106883601Y-176952251D01*
X106889766Y-176945210D01*
X106888195Y-176933690D01*
X106886878Y-176929233D01*
X106864382Y-176887355D01*
X106829003Y-176853604D01*
X106797780Y-176838773D01*
X106756301Y-176839668D01*
X106714269Y-176858164D01*
X106679012Y-176888786D01*
X106657854Y-176926062D01*
X106654852Y-176945542D01*
X106527100Y-176945542D01*
X106536690Y-176895229D01*
X106568698Y-176824191D01*
X106614701Y-176768779D01*
X106672821Y-176731009D01*
X106741180Y-176712896D01*
X106817898Y-176716457D01*
G36*
X106357226Y-176723880D02*
G01*
X106430080Y-176754830D01*
X106453027Y-176769895D01*
X106482354Y-176793048D01*
X106500764Y-176811253D01*
X106503961Y-176817183D01*
X106494935Y-176830340D01*
X106471837Y-176852667D01*
X106453344Y-176868250D01*
X106402728Y-176908926D01*
X106362760Y-176875295D01*
X106331874Y-176853584D01*
X106301759Y-176846090D01*
X106267292Y-176847920D01*
X106212561Y-176861528D01*
X106174886Y-176889772D01*
X106151991Y-176935433D01*
X106141597Y-177001289D01*
X106141595Y-177001331D01*
X106142494Y-177074939D01*
X106156463Y-177128946D01*
X106184328Y-177165716D01*
X106203325Y-177178168D01*
X106253776Y-177193673D01*
X106307663Y-177193683D01*
X106354546Y-177178638D01*
X106365644Y-177171287D01*
X106393476Y-177152511D01*
X106415236Y-177149434D01*
X106438704Y-177163409D01*
X106464649Y-177188510D01*
X106505716Y-177230880D01*
X106460121Y-177268464D01*
X106389674Y-177310882D01*
X106310233Y-177331785D01*
X106227215Y-177330272D01*
X106172694Y-177316411D01*
X106108970Y-177282135D01*
X106058005Y-177228212D01*
X106034851Y-177190149D01*
X106016099Y-177135536D01*
X106006715Y-177066369D01*
X106006643Y-176991407D01*
X106015824Y-176919409D01*
X106034199Y-176859137D01*
X106037093Y-176852958D01*
X106079952Y-176792351D01*
X106137979Y-176748224D01*
X106206591Y-176721493D01*
X106281201Y-176713073D01*
X106357226Y-176723880D01*
G37*
X106357226Y-176723880D02*
X106430080Y-176754830D01*
X106453027Y-176769895D01*
X106482354Y-176793048D01*
X106500764Y-176811253D01*
X106503961Y-176817183D01*
X106494935Y-176830340D01*
X106471837Y-176852667D01*
X106453344Y-176868250D01*
X106402728Y-176908926D01*
X106362760Y-176875295D01*
X106331874Y-176853584D01*
X106301759Y-176846090D01*
X106267292Y-176847920D01*
X106212561Y-176861528D01*
X106174886Y-176889772D01*
X106151991Y-176935433D01*
X106141597Y-177001289D01*
X106141595Y-177001331D01*
X106142494Y-177074939D01*
X106156463Y-177128946D01*
X106184328Y-177165716D01*
X106203325Y-177178168D01*
X106253776Y-177193673D01*
X106307663Y-177193683D01*
X106354546Y-177178638D01*
X106365644Y-177171287D01*
X106393476Y-177152511D01*
X106415236Y-177149434D01*
X106438704Y-177163409D01*
X106464649Y-177188510D01*
X106505716Y-177230880D01*
X106460121Y-177268464D01*
X106389674Y-177310882D01*
X106310233Y-177331785D01*
X106227215Y-177330272D01*
X106172694Y-177316411D01*
X106108970Y-177282135D01*
X106058005Y-177228212D01*
X106034851Y-177190149D01*
X106016099Y-177135536D01*
X106006715Y-177066369D01*
X106006643Y-176991407D01*
X106015824Y-176919409D01*
X106034199Y-176859137D01*
X106037093Y-176852958D01*
X106079952Y-176792351D01*
X106137979Y-176748224D01*
X106206591Y-176721493D01*
X106281201Y-176713073D01*
X106357226Y-176723880D01*
G36*
X105133367Y-176914342D02*
G01*
X105134555Y-177006563D01*
X105138897Y-177076610D01*
X105147558Y-177127381D01*
X105161704Y-177161772D01*
X105182500Y-177182679D01*
X105211110Y-177193000D01*
X105246535Y-177195636D01*
X105283636Y-177192682D01*
X105311818Y-177181889D01*
X105332243Y-177160360D01*
X105346079Y-177125199D01*
X105354491Y-177073510D01*
X105358643Y-177002394D01*
X105359703Y-176914342D01*
X105359703Y-176718614D01*
X105498020Y-176718614D01*
X105498020Y-177322179D01*
X105428862Y-177322179D01*
X105387170Y-177320489D01*
X105365701Y-177314556D01*
X105359703Y-177303293D01*
X105356091Y-177293261D01*
X105341714Y-177295383D01*
X105312736Y-177309580D01*
X105246319Y-177331480D01*
X105175875Y-177329928D01*
X105108377Y-177306147D01*
X105076233Y-177287362D01*
X105051715Y-177267022D01*
X105033804Y-177241573D01*
X105021479Y-177207458D01*
X105013723Y-177161121D01*
X105009516Y-177099007D01*
X105007840Y-177017561D01*
X105007624Y-176954578D01*
X105007624Y-176718614D01*
X105133367Y-176718614D01*
X105133367Y-176914342D01*
G37*
X105133367Y-176914342D02*
X105134555Y-177006563D01*
X105138897Y-177076610D01*
X105147558Y-177127381D01*
X105161704Y-177161772D01*
X105182500Y-177182679D01*
X105211110Y-177193000D01*
X105246535Y-177195636D01*
X105283636Y-177192682D01*
X105311818Y-177181889D01*
X105332243Y-177160360D01*
X105346079Y-177125199D01*
X105354491Y-177073510D01*
X105358643Y-177002394D01*
X105359703Y-176914342D01*
X105359703Y-176718614D01*
X105498020Y-176718614D01*
X105498020Y-177322179D01*
X105428862Y-177322179D01*
X105387170Y-177320489D01*
X105365701Y-177314556D01*
X105359703Y-177303293D01*
X105356091Y-177293261D01*
X105341714Y-177295383D01*
X105312736Y-177309580D01*
X105246319Y-177331480D01*
X105175875Y-177329928D01*
X105108377Y-177306147D01*
X105076233Y-177287362D01*
X105051715Y-177267022D01*
X105033804Y-177241573D01*
X105021479Y-177207458D01*
X105013723Y-177161121D01*
X105009516Y-177099007D01*
X105007840Y-177017561D01*
X105007624Y-176954578D01*
X105007624Y-176718614D01*
X105133367Y-176718614D01*
X105133367Y-176914342D01*
G36*
X104750762Y-176726055D02*
G01*
X104814363Y-176760692D01*
X104864123Y-176815372D01*
X104887568Y-176859842D01*
X104897634Y-176899121D01*
X104904156Y-176955116D01*
X104906951Y-177019621D01*
X104905836Y-177084429D01*
X104900626Y-177141334D01*
X104894541Y-177171727D01*
X104874014Y-177213306D01*
X104838463Y-177257468D01*
X104795619Y-177296087D01*
X104753211Y-177321034D01*
X104752177Y-177321430D01*
X104699553Y-177332331D01*
X104637188Y-177332601D01*
X104577924Y-177322676D01*
X104555040Y-177314722D01*
X104496102Y-177281300D01*
X104453890Y-177237511D01*
X104426156Y-177179538D01*
X104410651Y-177103565D01*
X104407143Y-177063771D01*
X104407590Y-177013766D01*
X104542376Y-177013766D01*
X104546917Y-177086732D01*
X104559986Y-177142334D01*
X104580756Y-177177861D01*
X104595552Y-177188020D01*
X104633464Y-177195104D01*
X104678527Y-177193007D01*
X104717487Y-177182812D01*
X104727704Y-177177204D01*
X104754659Y-177144538D01*
X104772451Y-177094545D01*
X104780024Y-177033705D01*
X104776325Y-176968497D01*
X104768057Y-176929253D01*
X104744320Y-176883805D01*
X104706849Y-176855396D01*
X104661720Y-176845573D01*
X104615011Y-176855887D01*
X104579132Y-176881112D01*
X104560277Y-176901925D01*
X104549272Y-176922439D01*
X104544026Y-176950203D01*
X104542449Y-176992762D01*
X104542376Y-177013766D01*
X104407590Y-177013766D01*
X104408094Y-176957580D01*
X104425388Y-176870501D01*
X104459029Y-176802530D01*
X104509018Y-176753664D01*
X104575356Y-176723899D01*
X104589601Y-176720448D01*
X104675210Y-176712345D01*
X104750762Y-176726055D01*
G37*
X104750762Y-176726055D02*
X104814363Y-176760692D01*
X104864123Y-176815372D01*
X104887568Y-176859842D01*
X104897634Y-176899121D01*
X104904156Y-176955116D01*
X104906951Y-177019621D01*
X104905836Y-177084429D01*
X104900626Y-177141334D01*
X104894541Y-177171727D01*
X104874014Y-177213306D01*
X104838463Y-177257468D01*
X104795619Y-177296087D01*
X104753211Y-177321034D01*
X104752177Y-177321430D01*
X104699553Y-177332331D01*
X104637188Y-177332601D01*
X104577924Y-177322676D01*
X104555040Y-177314722D01*
X104496102Y-177281300D01*
X104453890Y-177237511D01*
X104426156Y-177179538D01*
X104410651Y-177103565D01*
X104407143Y-177063771D01*
X104407590Y-177013766D01*
X104542376Y-177013766D01*
X104546917Y-177086732D01*
X104559986Y-177142334D01*
X104580756Y-177177861D01*
X104595552Y-177188020D01*
X104633464Y-177195104D01*
X104678527Y-177193007D01*
X104717487Y-177182812D01*
X104727704Y-177177204D01*
X104754659Y-177144538D01*
X104772451Y-177094545D01*
X104780024Y-177033705D01*
X104776325Y-176968497D01*
X104768057Y-176929253D01*
X104744320Y-176883805D01*
X104706849Y-176855396D01*
X104661720Y-176845573D01*
X104615011Y-176855887D01*
X104579132Y-176881112D01*
X104560277Y-176901925D01*
X104549272Y-176922439D01*
X104544026Y-176950203D01*
X104542449Y-176992762D01*
X104542376Y-177013766D01*
X104407590Y-177013766D01*
X104408094Y-176957580D01*
X104425388Y-176870501D01*
X104459029Y-176802530D01*
X104509018Y-176753664D01*
X104575356Y-176723899D01*
X104589601Y-176720448D01*
X104675210Y-176712345D01*
X104750762Y-176726055D01*
G36*
X104154017Y-176716452D02*
G01*
X104201634Y-176725482D01*
X104251034Y-176744370D01*
X104256312Y-176746777D01*
X104293774Y-176766476D01*
X104319717Y-176784781D01*
X104328103Y-176796508D01*
X104320117Y-176815632D01*
X104300720Y-176843850D01*
X104292110Y-176854384D01*
X104256628Y-176895847D01*
X104210885Y-176868858D01*
X104167350Y-176850878D01*
X104117050Y-176841267D01*
X104068812Y-176840660D01*
X104031467Y-176849691D01*
X104022505Y-176855327D01*
X104005437Y-176881171D01*
X104003363Y-176910941D01*
X104016134Y-176934197D01*
X104023688Y-176938708D01*
X104046325Y-176944309D01*
X104086115Y-176950892D01*
X104135166Y-176957183D01*
X104144215Y-176958170D01*
X104222996Y-176971798D01*
X104280136Y-176994946D01*
X104318030Y-177029752D01*
X104339079Y-177078354D01*
X104345635Y-177137718D01*
X104336577Y-177205198D01*
X104307164Y-177258188D01*
X104257278Y-177296783D01*
X104186800Y-177321081D01*
X104108565Y-177330667D01*
X104044766Y-177330552D01*
X103993016Y-177321845D01*
X103957673Y-177309825D01*
X103913017Y-177288880D01*
X103871747Y-177264574D01*
X103857079Y-177253876D01*
X103819357Y-177223084D01*
X103864852Y-177177049D01*
X103910347Y-177131013D01*
X103962072Y-177165243D01*
X104013952Y-177190952D01*
X104069351Y-177204399D01*
X104122605Y-177205818D01*
X104168049Y-177195443D01*
X104200016Y-177173507D01*
X104210338Y-177154998D01*
X104208789Y-177125314D01*
X104183140Y-177102615D01*
X104133460Y-177086940D01*
X104079031Y-177079695D01*
X103995264Y-177065873D01*
X103933033Y-177039796D01*
X103891507Y-177000699D01*
X103869853Y-176947820D01*
X103866853Y-176885126D01*
X103881671Y-176819642D01*
X103915454Y-176770144D01*
X103968505Y-176736408D01*
X104041126Y-176718207D01*
X104094928Y-176714639D01*
X104154017Y-176716452D01*
G37*
X104154017Y-176716452D02*
X104201634Y-176725482D01*
X104251034Y-176744370D01*
X104256312Y-176746777D01*
X104293774Y-176766476D01*
X104319717Y-176784781D01*
X104328103Y-176796508D01*
X104320117Y-176815632D01*
X104300720Y-176843850D01*
X104292110Y-176854384D01*
X104256628Y-176895847D01*
X104210885Y-176868858D01*
X104167350Y-176850878D01*
X104117050Y-176841267D01*
X104068812Y-176840660D01*
X104031467Y-176849691D01*
X104022505Y-176855327D01*
X104005437Y-176881171D01*
X104003363Y-176910941D01*
X104016134Y-176934197D01*
X104023688Y-176938708D01*
X104046325Y-176944309D01*
X104086115Y-176950892D01*
X104135166Y-176957183D01*
X104144215Y-176958170D01*
X104222996Y-176971798D01*
X104280136Y-176994946D01*
X104318030Y-177029752D01*
X104339079Y-177078354D01*
X104345635Y-177137718D01*
X104336577Y-177205198D01*
X104307164Y-177258188D01*
X104257278Y-177296783D01*
X104186800Y-177321081D01*
X104108565Y-177330667D01*
X104044766Y-177330552D01*
X103993016Y-177321845D01*
X103957673Y-177309825D01*
X103913017Y-177288880D01*
X103871747Y-177264574D01*
X103857079Y-177253876D01*
X103819357Y-177223084D01*
X103864852Y-177177049D01*
X103910347Y-177131013D01*
X103962072Y-177165243D01*
X104013952Y-177190952D01*
X104069351Y-177204399D01*
X104122605Y-177205818D01*
X104168049Y-177195443D01*
X104200016Y-177173507D01*
X104210338Y-177154998D01*
X104208789Y-177125314D01*
X104183140Y-177102615D01*
X104133460Y-177086940D01*
X104079031Y-177079695D01*
X103995264Y-177065873D01*
X103933033Y-177039796D01*
X103891507Y-177000699D01*
X103869853Y-176947820D01*
X103866853Y-176885126D01*
X103881671Y-176819642D01*
X103915454Y-176770144D01*
X103968505Y-176736408D01*
X104041126Y-176718207D01*
X104094928Y-176714639D01*
X104154017Y-176716452D01*
G36*
X102783301Y-176732614D02*
G01*
X102795832Y-176738514D01*
X102839201Y-176770283D01*
X102880210Y-176816646D01*
X102910832Y-176867696D01*
X102919541Y-176891166D01*
X102927488Y-176933091D01*
X102932226Y-176983757D01*
X102932801Y-177004679D01*
X102932871Y-177070693D01*
X102552917Y-177070693D01*
X102561017Y-177105273D01*
X102580896Y-177146170D01*
X102615653Y-177181514D01*
X102657002Y-177204282D01*
X102683351Y-177209010D01*
X102719084Y-177203273D01*
X102761718Y-177188882D01*
X102776201Y-177182262D01*
X102829760Y-177155513D01*
X102875467Y-177190376D01*
X102901842Y-177213955D01*
X102915876Y-177233417D01*
X102916586Y-177239129D01*
X102904049Y-177252973D01*
X102876572Y-177274012D01*
X102851634Y-177290425D01*
X102784336Y-177319930D01*
X102708890Y-177333284D01*
X102634112Y-177329812D01*
X102574505Y-177311663D01*
X102513059Y-177272784D01*
X102469392Y-177221595D01*
X102442074Y-177155367D01*
X102429678Y-177071371D01*
X102428579Y-177032936D01*
X102432978Y-176944861D01*
X102433518Y-176942299D01*
X102559418Y-176942299D01*
X102562885Y-176950558D01*
X102577137Y-176955113D01*
X102606530Y-176957065D01*
X102655425Y-176957517D01*
X102674252Y-176957525D01*
X102731533Y-176956843D01*
X102767859Y-176954364D01*
X102787396Y-176949443D01*
X102794310Y-176941434D01*
X102794555Y-176938862D01*
X102786664Y-176918423D01*
X102766915Y-176889789D01*
X102758425Y-176879763D01*
X102726906Y-176851408D01*
X102694051Y-176840259D01*
X102676349Y-176839327D01*
X102628461Y-176850981D01*
X102588301Y-176882285D01*
X102562827Y-176927752D01*
X102562375Y-176929233D01*
X102559418Y-176942299D01*
X102433518Y-176942299D01*
X102447608Y-176875510D01*
X102473962Y-176820025D01*
X102506193Y-176780639D01*
X102565783Y-176737931D01*
X102635832Y-176715109D01*
X102710339Y-176713046D01*
X102783301Y-176732614D01*
G37*
X102783301Y-176732614D02*
X102795832Y-176738514D01*
X102839201Y-176770283D01*
X102880210Y-176816646D01*
X102910832Y-176867696D01*
X102919541Y-176891166D01*
X102927488Y-176933091D01*
X102932226Y-176983757D01*
X102932801Y-177004679D01*
X102932871Y-177070693D01*
X102552917Y-177070693D01*
X102561017Y-177105273D01*
X102580896Y-177146170D01*
X102615653Y-177181514D01*
X102657002Y-177204282D01*
X102683351Y-177209010D01*
X102719084Y-177203273D01*
X102761718Y-177188882D01*
X102776201Y-177182262D01*
X102829760Y-177155513D01*
X102875467Y-177190376D01*
X102901842Y-177213955D01*
X102915876Y-177233417D01*
X102916586Y-177239129D01*
X102904049Y-177252973D01*
X102876572Y-177274012D01*
X102851634Y-177290425D01*
X102784336Y-177319930D01*
X102708890Y-177333284D01*
X102634112Y-177329812D01*
X102574505Y-177311663D01*
X102513059Y-177272784D01*
X102469392Y-177221595D01*
X102442074Y-177155367D01*
X102429678Y-177071371D01*
X102428579Y-177032936D01*
X102432978Y-176944861D01*
X102433518Y-176942299D01*
X102559418Y-176942299D01*
X102562885Y-176950558D01*
X102577137Y-176955113D01*
X102606530Y-176957065D01*
X102655425Y-176957517D01*
X102674252Y-176957525D01*
X102731533Y-176956843D01*
X102767859Y-176954364D01*
X102787396Y-176949443D01*
X102794310Y-176941434D01*
X102794555Y-176938862D01*
X102786664Y-176918423D01*
X102766915Y-176889789D01*
X102758425Y-176879763D01*
X102726906Y-176851408D01*
X102694051Y-176840259D01*
X102676349Y-176839327D01*
X102628461Y-176850981D01*
X102588301Y-176882285D01*
X102562827Y-176927752D01*
X102562375Y-176929233D01*
X102559418Y-176942299D01*
X102433518Y-176942299D01*
X102447608Y-176875510D01*
X102473962Y-176820025D01*
X102506193Y-176780639D01*
X102565783Y-176737931D01*
X102635832Y-176715109D01*
X102710339Y-176713046D01*
X102783301Y-176732614D01*
G36*
X101601739Y-176725148D02*
G01*
X101667521Y-176754231D01*
X101717460Y-176802793D01*
X101751626Y-176870908D01*
X101770093Y-176958651D01*
X101771417Y-176972351D01*
X101772454Y-177068939D01*
X101759007Y-177153602D01*
X101731892Y-177222221D01*
X101717373Y-177244294D01*
X101666799Y-177291011D01*
X101602391Y-177321268D01*
X101530334Y-177333824D01*
X101456815Y-177327439D01*
X101400928Y-177307772D01*
X101352868Y-177274629D01*
X101313588Y-177231175D01*
X101312908Y-177230158D01*
X101296956Y-177203338D01*
X101286590Y-177176368D01*
X101280312Y-177142332D01*
X101276627Y-177094310D01*
X101275003Y-177054931D01*
X101274328Y-177019219D01*
X101400045Y-177019219D01*
X101401274Y-177054770D01*
X101405734Y-177102094D01*
X101413603Y-177132465D01*
X101427793Y-177154072D01*
X101441083Y-177166694D01*
X101488198Y-177193122D01*
X101537495Y-177196653D01*
X101583407Y-177177639D01*
X101606362Y-177156331D01*
X101622904Y-177134859D01*
X101632579Y-177114313D01*
X101636826Y-177087574D01*
X101637080Y-177047523D01*
X101635772Y-177010638D01*
X101632957Y-176957947D01*
X101628495Y-176923772D01*
X101620452Y-176901480D01*
X101606897Y-176884442D01*
X101596155Y-176874703D01*
X101551223Y-176849123D01*
X101502751Y-176847847D01*
X101462106Y-176862999D01*
X101427433Y-176894642D01*
X101406776Y-176946620D01*
X101400045Y-177019219D01*
X101274328Y-177019219D01*
X101273521Y-176976621D01*
X101276052Y-176918056D01*
X101283638Y-176874007D01*
X101297319Y-176839248D01*
X101318135Y-176808551D01*
X101325853Y-176799436D01*
X101374111Y-176754021D01*
X101425872Y-176727493D01*
X101489172Y-176716379D01*
X101520039Y-176715471D01*
X101601739Y-176725148D01*
G37*
X101601739Y-176725148D02*
X101667521Y-176754231D01*
X101717460Y-176802793D01*
X101751626Y-176870908D01*
X101770093Y-176958651D01*
X101771417Y-176972351D01*
X101772454Y-177068939D01*
X101759007Y-177153602D01*
X101731892Y-177222221D01*
X101717373Y-177244294D01*
X101666799Y-177291011D01*
X101602391Y-177321268D01*
X101530334Y-177333824D01*
X101456815Y-177327439D01*
X101400928Y-177307772D01*
X101352868Y-177274629D01*
X101313588Y-177231175D01*
X101312908Y-177230158D01*
X101296956Y-177203338D01*
X101286590Y-177176368D01*
X101280312Y-177142332D01*
X101276627Y-177094310D01*
X101275003Y-177054931D01*
X101274328Y-177019219D01*
X101400045Y-177019219D01*
X101401274Y-177054770D01*
X101405734Y-177102094D01*
X101413603Y-177132465D01*
X101427793Y-177154072D01*
X101441083Y-177166694D01*
X101488198Y-177193122D01*
X101537495Y-177196653D01*
X101583407Y-177177639D01*
X101606362Y-177156331D01*
X101622904Y-177134859D01*
X101632579Y-177114313D01*
X101636826Y-177087574D01*
X101637080Y-177047523D01*
X101635772Y-177010638D01*
X101632957Y-176957947D01*
X101628495Y-176923772D01*
X101620452Y-176901480D01*
X101606897Y-176884442D01*
X101596155Y-176874703D01*
X101551223Y-176849123D01*
X101502751Y-176847847D01*
X101462106Y-176862999D01*
X101427433Y-176894642D01*
X101406776Y-176946620D01*
X101400045Y-177019219D01*
X101274328Y-177019219D01*
X101273521Y-176976621D01*
X101276052Y-176918056D01*
X101283638Y-176874007D01*
X101297319Y-176839248D01*
X101318135Y-176808551D01*
X101325853Y-176799436D01*
X101374111Y-176754021D01*
X101425872Y-176727493D01*
X101489172Y-176716379D01*
X101520039Y-176715471D01*
X101601739Y-176725148D01*
G36*
X106172581Y-177664970D02*
G01*
X106232685Y-177680597D01*
X106283021Y-177712848D01*
X106307393Y-177736940D01*
X106347345Y-177793895D01*
X106370242Y-177859965D01*
X106378108Y-177941182D01*
X106378148Y-177947748D01*
X106378218Y-178013763D01*
X105998264Y-178013763D01*
X106006363Y-178048342D01*
X106020987Y-178079659D01*
X106046581Y-178112291D01*
X106051935Y-178117500D01*
X106097943Y-178145694D01*
X106150410Y-178150475D01*
X106210803Y-178131926D01*
X106221040Y-178126931D01*
X106252439Y-178111745D01*
X106273470Y-178103094D01*
X106277139Y-178102293D01*
X106289948Y-178110063D01*
X106314378Y-178129072D01*
X106326779Y-178139460D01*
X106352476Y-178163321D01*
X106360915Y-178179077D01*
X106355058Y-178193571D01*
X106351928Y-178197534D01*
X106330725Y-178214879D01*
X106295738Y-178235959D01*
X106271337Y-178248265D01*
X106202072Y-178269946D01*
X106125388Y-178276971D01*
X106052765Y-178268647D01*
X106032426Y-178262686D01*
X105969476Y-178228952D01*
X105922815Y-178177045D01*
X105892173Y-178106459D01*
X105877282Y-178016692D01*
X105875647Y-177969753D01*
X105880421Y-177901413D01*
X106000990Y-177901413D01*
X106012652Y-177906465D01*
X106043998Y-177910429D01*
X106089571Y-177912768D01*
X106120446Y-177913169D01*
X106175981Y-177912783D01*
X106211033Y-177910975D01*
X106230262Y-177906773D01*
X106238330Y-177899203D01*
X106239901Y-177888218D01*
X106229121Y-177854381D01*
X106201980Y-177820940D01*
X106166277Y-177795272D01*
X106130560Y-177784772D01*
X106082048Y-177794086D01*
X106040053Y-177821013D01*
X106010936Y-177859827D01*
X106000990Y-177901413D01*
X105880421Y-177901413D01*
X105882599Y-177870236D01*
X105904055Y-177790949D01*
X105940470Y-177731263D01*
X105992297Y-177690549D01*
X106059990Y-177668179D01*
X106096662Y-177663871D01*
X106172581Y-177664970D01*
G37*
X106172581Y-177664970D02*
X106232685Y-177680597D01*
X106283021Y-177712848D01*
X106307393Y-177736940D01*
X106347345Y-177793895D01*
X106370242Y-177859965D01*
X106378108Y-177941182D01*
X106378148Y-177947748D01*
X106378218Y-178013763D01*
X105998264Y-178013763D01*
X106006363Y-178048342D01*
X106020987Y-178079659D01*
X106046581Y-178112291D01*
X106051935Y-178117500D01*
X106097943Y-178145694D01*
X106150410Y-178150475D01*
X106210803Y-178131926D01*
X106221040Y-178126931D01*
X106252439Y-178111745D01*
X106273470Y-178103094D01*
X106277139Y-178102293D01*
X106289948Y-178110063D01*
X106314378Y-178129072D01*
X106326779Y-178139460D01*
X106352476Y-178163321D01*
X106360915Y-178179077D01*
X106355058Y-178193571D01*
X106351928Y-178197534D01*
X106330725Y-178214879D01*
X106295738Y-178235959D01*
X106271337Y-178248265D01*
X106202072Y-178269946D01*
X106125388Y-178276971D01*
X106052765Y-178268647D01*
X106032426Y-178262686D01*
X105969476Y-178228952D01*
X105922815Y-178177045D01*
X105892173Y-178106459D01*
X105877282Y-178016692D01*
X105875647Y-177969753D01*
X105880421Y-177901413D01*
X106000990Y-177901413D01*
X106012652Y-177906465D01*
X106043998Y-177910429D01*
X106089571Y-177912768D01*
X106120446Y-177913169D01*
X106175981Y-177912783D01*
X106211033Y-177910975D01*
X106230262Y-177906773D01*
X106238330Y-177899203D01*
X106239901Y-177888218D01*
X106229121Y-177854381D01*
X106201980Y-177820940D01*
X106166277Y-177795272D01*
X106130560Y-177784772D01*
X106082048Y-177794086D01*
X106040053Y-177821013D01*
X106010936Y-177859827D01*
X106000990Y-177901413D01*
X105880421Y-177901413D01*
X105882599Y-177870236D01*
X105904055Y-177790949D01*
X105940470Y-177731263D01*
X105992297Y-177690549D01*
X106059990Y-177668179D01*
X106096662Y-177663871D01*
X106172581Y-177664970D01*
G36*
X105775255Y-177661486D02*
G01*
X105823595Y-177671015D01*
X105851114Y-177685125D01*
X105880064Y-177708568D01*
X105838876Y-177760571D01*
X105813482Y-177792064D01*
X105796238Y-177807428D01*
X105779102Y-177809776D01*
X105754027Y-177802217D01*
X105742257Y-177797941D01*
X105694270Y-177791631D01*
X105650324Y-177805156D01*
X105618060Y-177835710D01*
X105612819Y-177845452D01*
X105607112Y-177871258D01*
X105602706Y-177918817D01*
X105599811Y-177984758D01*
X105598631Y-178065710D01*
X105598614Y-178077226D01*
X105598614Y-178277822D01*
X105460297Y-178277822D01*
X105460297Y-177661683D01*
X105529456Y-177661683D01*
X105569333Y-177662725D01*
X105590107Y-177667358D01*
X105597789Y-177677849D01*
X105598614Y-177687745D01*
X105598614Y-177713806D01*
X105631745Y-177687745D01*
X105669735Y-177669965D01*
X105720770Y-177661174D01*
X105775255Y-177661486D01*
G37*
X105775255Y-177661486D02*
X105823595Y-177671015D01*
X105851114Y-177685125D01*
X105880064Y-177708568D01*
X105838876Y-177760571D01*
X105813482Y-177792064D01*
X105796238Y-177807428D01*
X105779102Y-177809776D01*
X105754027Y-177802217D01*
X105742257Y-177797941D01*
X105694270Y-177791631D01*
X105650324Y-177805156D01*
X105618060Y-177835710D01*
X105612819Y-177845452D01*
X105607112Y-177871258D01*
X105602706Y-177918817D01*
X105599811Y-177984758D01*
X105598631Y-178065710D01*
X105598614Y-178077226D01*
X105598614Y-178277822D01*
X105460297Y-178277822D01*
X105460297Y-177661683D01*
X105529456Y-177661683D01*
X105569333Y-177662725D01*
X105590107Y-177667358D01*
X105597789Y-177677849D01*
X105598614Y-177687745D01*
X105598614Y-177713806D01*
X105631745Y-177687745D01*
X105669735Y-177669965D01*
X105720770Y-177661174D01*
X105775255Y-177661486D01*
G36*
X105178411Y-177665417D02*
G01*
X105231411Y-177678290D01*
X105246731Y-177685110D01*
X105276428Y-177702974D01*
X105299220Y-177723093D01*
X105316083Y-177748962D01*
X105327998Y-177784073D01*
X105335942Y-177831920D01*
X105340894Y-177895996D01*
X105343831Y-177979794D01*
X105344947Y-178035768D01*
X105349052Y-178277822D01*
X105278932Y-178277822D01*
X105236393Y-178276038D01*
X105214476Y-178269942D01*
X105208812Y-178259706D01*
X105205821Y-178248637D01*
X105192451Y-178250754D01*
X105174233Y-178259629D01*
X105128624Y-178273233D01*
X105070007Y-178276899D01*
X105008354Y-178270903D01*
X104953638Y-178255521D01*
X104948730Y-178253386D01*
X104898723Y-178218255D01*
X104865756Y-178169419D01*
X104850587Y-178112333D01*
X104851746Y-178091824D01*
X104975508Y-178091824D01*
X104986413Y-178119425D01*
X105018745Y-178139204D01*
X105070910Y-178149819D01*
X105098787Y-178151228D01*
X105145247Y-178147620D01*
X105176129Y-178133597D01*
X105183664Y-178126931D01*
X105204076Y-178090666D01*
X105208812Y-178057773D01*
X105208812Y-178013763D01*
X105147513Y-178013763D01*
X105076256Y-178017395D01*
X105026276Y-178028818D01*
X104994696Y-178048824D01*
X104987626Y-178057743D01*
X104975508Y-178091824D01*
X104851746Y-178091824D01*
X104853971Y-178052456D01*
X104876663Y-177995244D01*
X104907624Y-177956580D01*
X104926376Y-177939864D01*
X104944733Y-177928878D01*
X104968619Y-177922180D01*
X105003957Y-177918326D01*
X105056669Y-177915873D01*
X105077577Y-177915168D01*
X105208812Y-177910879D01*
X105208620Y-177871158D01*
X105203537Y-177829405D01*
X105185162Y-177804158D01*
X105148039Y-177788030D01*
X105147043Y-177787742D01*
X105094410Y-177781400D01*
X105042906Y-177789684D01*
X105004630Y-177809827D01*
X104989272Y-177819773D01*
X104972730Y-177818397D01*
X104947275Y-177803987D01*
X104932328Y-177793817D01*
X104903091Y-177772088D01*
X104884980Y-177755800D01*
X104882074Y-177751137D01*
X104894040Y-177727005D01*
X104929396Y-177698185D01*
X104944753Y-177688461D01*
X104988901Y-177671714D01*
X105048398Y-177662227D01*
X105114487Y-177660095D01*
X105178411Y-177665417D01*
G37*
X105178411Y-177665417D02*
X105231411Y-177678290D01*
X105246731Y-177685110D01*
X105276428Y-177702974D01*
X105299220Y-177723093D01*
X105316083Y-177748962D01*
X105327998Y-177784073D01*
X105335942Y-177831920D01*
X105340894Y-177895996D01*
X105343831Y-177979794D01*
X105344947Y-178035768D01*
X105349052Y-178277822D01*
X105278932Y-178277822D01*
X105236393Y-178276038D01*
X105214476Y-178269942D01*
X105208812Y-178259706D01*
X105205821Y-178248637D01*
X105192451Y-178250754D01*
X105174233Y-178259629D01*
X105128624Y-178273233D01*
X105070007Y-178276899D01*
X105008354Y-178270903D01*
X104953638Y-178255521D01*
X104948730Y-178253386D01*
X104898723Y-178218255D01*
X104865756Y-178169419D01*
X104850587Y-178112333D01*
X104851746Y-178091824D01*
X104975508Y-178091824D01*
X104986413Y-178119425D01*
X105018745Y-178139204D01*
X105070910Y-178149819D01*
X105098787Y-178151228D01*
X105145247Y-178147620D01*
X105176129Y-178133597D01*
X105183664Y-178126931D01*
X105204076Y-178090666D01*
X105208812Y-178057773D01*
X105208812Y-178013763D01*
X105147513Y-178013763D01*
X105076256Y-178017395D01*
X105026276Y-178028818D01*
X104994696Y-178048824D01*
X104987626Y-178057743D01*
X104975508Y-178091824D01*
X104851746Y-178091824D01*
X104853971Y-178052456D01*
X104876663Y-177995244D01*
X104907624Y-177956580D01*
X104926376Y-177939864D01*
X104944733Y-177928878D01*
X104968619Y-177922180D01*
X105003957Y-177918326D01*
X105056669Y-177915873D01*
X105077577Y-177915168D01*
X105208812Y-177910879D01*
X105208620Y-177871158D01*
X105203537Y-177829405D01*
X105185162Y-177804158D01*
X105148039Y-177788030D01*
X105147043Y-177787742D01*
X105094410Y-177781400D01*
X105042906Y-177789684D01*
X105004630Y-177809827D01*
X104989272Y-177819773D01*
X104972730Y-177818397D01*
X104947275Y-177803987D01*
X104932328Y-177793817D01*
X104903091Y-177772088D01*
X104884980Y-177755800D01*
X104882074Y-177751137D01*
X104894040Y-177727005D01*
X104929396Y-177698185D01*
X104944753Y-177688461D01*
X104988901Y-177671714D01*
X105048398Y-177662227D01*
X105114487Y-177660095D01*
X105178411Y-177665417D01*
G36*
X104421524Y-177664237D02*
G01*
X104471255Y-177667971D01*
X104601291Y-178057773D01*
X104621678Y-177988614D01*
X104633946Y-177945874D01*
X104650085Y-177888115D01*
X104667512Y-177824625D01*
X104676726Y-177790570D01*
X104711388Y-177661683D01*
X104854391Y-177661683D01*
X104811646Y-177796857D01*
X104790596Y-177863342D01*
X104765167Y-177943539D01*
X104738610Y-178027193D01*
X104714902Y-178101782D01*
X104660902Y-178271535D01*
X104602598Y-178275328D01*
X104544295Y-178279122D01*
X104512679Y-178174734D01*
X104493182Y-178109889D01*
X104471904Y-178038400D01*
X104453308Y-177975263D01*
X104452574Y-177972750D01*
X104438684Y-177929969D01*
X104426429Y-177900779D01*
X104417846Y-177889741D01*
X104416082Y-177891018D01*
X104409891Y-177908130D01*
X104398128Y-177944787D01*
X104382225Y-177996378D01*
X104363614Y-178058294D01*
X104353543Y-178092352D01*
X104299007Y-178277822D01*
X104183264Y-178277822D01*
X104090737Y-177985471D01*
X104064744Y-177903462D01*
X104041066Y-177828987D01*
X104020820Y-177765544D01*
X104005126Y-177716632D01*
X103995102Y-177685749D01*
X103992055Y-177676726D01*
X103994467Y-177667487D01*
X104013408Y-177663441D01*
X104052823Y-177663846D01*
X104058993Y-177664152D01*
X104132086Y-177667971D01*
X104179957Y-177844010D01*
X104197553Y-177908211D01*
X104213277Y-177964649D01*
X104225746Y-178008422D01*
X104233574Y-178034630D01*
X104235020Y-178038903D01*
X104241014Y-178033990D01*
X104253101Y-178008532D01*
X104269893Y-177965997D01*
X104290003Y-177909850D01*
X104307003Y-177859130D01*
X104371794Y-177660504D01*
X104421524Y-177664237D01*
G37*
X104421524Y-177664237D02*
X104471255Y-177667971D01*
X104601291Y-178057773D01*
X104621678Y-177988614D01*
X104633946Y-177945874D01*
X104650085Y-177888115D01*
X104667512Y-177824625D01*
X104676726Y-177790570D01*
X104711388Y-177661683D01*
X104854391Y-177661683D01*
X104811646Y-177796857D01*
X104790596Y-177863342D01*
X104765167Y-177943539D01*
X104738610Y-178027193D01*
X104714902Y-178101782D01*
X104660902Y-178271535D01*
X104602598Y-178275328D01*
X104544295Y-178279122D01*
X104512679Y-178174734D01*
X104493182Y-178109889D01*
X104471904Y-178038400D01*
X104453308Y-177975263D01*
X104452574Y-177972750D01*
X104438684Y-177929969D01*
X104426429Y-177900779D01*
X104417846Y-177889741D01*
X104416082Y-177891018D01*
X104409891Y-177908130D01*
X104398128Y-177944787D01*
X104382225Y-177996378D01*
X104363614Y-178058294D01*
X104353543Y-178092352D01*
X104299007Y-178277822D01*
X104183264Y-178277822D01*
X104090737Y-177985471D01*
X104064744Y-177903462D01*
X104041066Y-177828987D01*
X104020820Y-177765544D01*
X104005126Y-177716632D01*
X103995102Y-177685749D01*
X103992055Y-177676726D01*
X103994467Y-177667487D01*
X104013408Y-177663441D01*
X104052823Y-177663846D01*
X104058993Y-177664152D01*
X104132086Y-177667971D01*
X104179957Y-177844010D01*
X104197553Y-177908211D01*
X104213277Y-177964649D01*
X104225746Y-178008422D01*
X104233574Y-178034630D01*
X104235020Y-178038903D01*
X104241014Y-178033990D01*
X104253101Y-178008532D01*
X104269893Y-177965997D01*
X104290003Y-177909850D01*
X104307003Y-177859130D01*
X104371794Y-177660504D01*
X104421524Y-177664237D01*
G36*
X103938812Y-178277822D02*
G01*
X103869654Y-178277822D01*
X103829512Y-178276645D01*
X103808606Y-178271772D01*
X103801078Y-178261186D01*
X103800495Y-178254029D01*
X103799226Y-178239676D01*
X103791221Y-178236923D01*
X103770185Y-178245771D01*
X103753827Y-178254029D01*
X103691023Y-178273597D01*
X103622752Y-178274729D01*
X103567248Y-178260135D01*
X103515562Y-178224877D01*
X103476162Y-178172835D01*
X103454587Y-178111450D01*
X103454038Y-178108018D01*
X103450833Y-178070571D01*
X103449239Y-178016813D01*
X103449367Y-177976155D01*
X103586721Y-177976155D01*
X103589903Y-178030194D01*
X103597141Y-178074735D01*
X103606940Y-178099888D01*
X103644011Y-178134260D01*
X103688026Y-178146582D01*
X103733416Y-178136618D01*
X103772203Y-178106895D01*
X103786892Y-178086905D01*
X103795481Y-178063050D01*
X103799504Y-178028230D01*
X103800495Y-177975930D01*
X103798722Y-177924139D01*
X103794037Y-177878634D01*
X103787397Y-177848181D01*
X103786290Y-177845452D01*
X103759509Y-177813000D01*
X103720421Y-177795183D01*
X103676685Y-177792306D01*
X103635962Y-177804674D01*
X103605913Y-177832593D01*
X103602796Y-177838148D01*
X103593039Y-177872022D01*
X103587723Y-177920728D01*
X103586721Y-177976155D01*
X103449367Y-177976155D01*
X103449432Y-177955540D01*
X103450336Y-177922563D01*
X103456486Y-177840981D01*
X103469267Y-177779730D01*
X103490529Y-177734449D01*
X103522122Y-177700779D01*
X103552793Y-177681014D01*
X103595646Y-177667120D01*
X103648944Y-177662354D01*
X103703520Y-177666236D01*
X103750208Y-177678282D01*
X103774876Y-177692693D01*
X103800495Y-177715878D01*
X103800495Y-177422773D01*
X103938812Y-177422773D01*
X103938812Y-178277822D01*
G37*
X103938812Y-178277822D02*
X103869654Y-178277822D01*
X103829512Y-178276645D01*
X103808606Y-178271772D01*
X103801078Y-178261186D01*
X103800495Y-178254029D01*
X103799226Y-178239676D01*
X103791221Y-178236923D01*
X103770185Y-178245771D01*
X103753827Y-178254029D01*
X103691023Y-178273597D01*
X103622752Y-178274729D01*
X103567248Y-178260135D01*
X103515562Y-178224877D01*
X103476162Y-178172835D01*
X103454587Y-178111450D01*
X103454038Y-178108018D01*
X103450833Y-178070571D01*
X103449239Y-178016813D01*
X103449367Y-177976155D01*
X103586721Y-177976155D01*
X103589903Y-178030194D01*
X103597141Y-178074735D01*
X103606940Y-178099888D01*
X103644011Y-178134260D01*
X103688026Y-178146582D01*
X103733416Y-178136618D01*
X103772203Y-178106895D01*
X103786892Y-178086905D01*
X103795481Y-178063050D01*
X103799504Y-178028230D01*
X103800495Y-177975930D01*
X103798722Y-177924139D01*
X103794037Y-177878634D01*
X103787397Y-177848181D01*
X103786290Y-177845452D01*
X103759509Y-177813000D01*
X103720421Y-177795183D01*
X103676685Y-177792306D01*
X103635962Y-177804674D01*
X103605913Y-177832593D01*
X103602796Y-177838148D01*
X103593039Y-177872022D01*
X103587723Y-177920728D01*
X103586721Y-177976155D01*
X103449367Y-177976155D01*
X103449432Y-177955540D01*
X103450336Y-177922563D01*
X103456486Y-177840981D01*
X103469267Y-177779730D01*
X103490529Y-177734449D01*
X103522122Y-177700779D01*
X103552793Y-177681014D01*
X103595646Y-177667120D01*
X103648944Y-177662354D01*
X103703520Y-177666236D01*
X103750208Y-177678282D01*
X103774876Y-177692693D01*
X103800495Y-177715878D01*
X103800495Y-177422773D01*
X103938812Y-177422773D01*
X103938812Y-178277822D01*
G36*
X103146644Y-177663020D02*
G01*
X103165461Y-177668660D01*
X103171527Y-177681053D01*
X103171782Y-177686647D01*
X103172871Y-177702230D01*
X103180368Y-177704676D01*
X103200619Y-177693993D01*
X103212649Y-177686694D01*
X103250600Y-177671063D01*
X103295928Y-177663334D01*
X103343456Y-177662740D01*
X103388005Y-177668513D01*
X103424398Y-177679884D01*
X103447457Y-177696088D01*
X103452004Y-177716355D01*
X103449709Y-177721843D01*
X103432980Y-177744626D01*
X103407037Y-177772647D01*
X103402345Y-177777177D01*
X103377617Y-177798005D01*
X103356282Y-177804735D01*
X103326445Y-177800038D01*
X103314492Y-177796917D01*
X103277295Y-177789421D01*
X103251141Y-177792792D01*
X103229054Y-177804681D01*
X103208822Y-177820635D01*
X103193921Y-177840700D01*
X103183566Y-177868702D01*
X103176971Y-177908467D01*
X103173351Y-177963823D01*
X103171922Y-178038594D01*
X103171782Y-178083740D01*
X103171782Y-178277822D01*
X103046040Y-178277822D01*
X103046040Y-177661683D01*
X103108911Y-177661683D01*
X103146644Y-177663020D01*
G37*
X103146644Y-177663020D02*
X103165461Y-177668660D01*
X103171527Y-177681053D01*
X103171782Y-177686647D01*
X103172871Y-177702230D01*
X103180368Y-177704676D01*
X103200619Y-177693993D01*
X103212649Y-177686694D01*
X103250600Y-177671063D01*
X103295928Y-177663334D01*
X103343456Y-177662740D01*
X103388005Y-177668513D01*
X103424398Y-177679884D01*
X103447457Y-177696088D01*
X103452004Y-177716355D01*
X103449709Y-177721843D01*
X103432980Y-177744626D01*
X103407037Y-177772647D01*
X103402345Y-177777177D01*
X103377617Y-177798005D01*
X103356282Y-177804735D01*
X103326445Y-177800038D01*
X103314492Y-177796917D01*
X103277295Y-177789421D01*
X103251141Y-177792792D01*
X103229054Y-177804681D01*
X103208822Y-177820635D01*
X103193921Y-177840700D01*
X103183566Y-177868702D01*
X103176971Y-177908467D01*
X103173351Y-177963823D01*
X103171922Y-178038594D01*
X103171782Y-178083740D01*
X103171782Y-178277822D01*
X103046040Y-178277822D01*
X103046040Y-177661683D01*
X103108911Y-177661683D01*
X103146644Y-177663020D01*
G36*
X102755790Y-177666555D02*
G01*
X102814945Y-177682339D01*
X102859977Y-177710948D01*
X102891754Y-177748419D01*
X102901634Y-177764411D01*
X102908927Y-177781163D01*
X102914026Y-177802592D01*
X102917321Y-177832616D01*
X102919203Y-177875154D01*
X102920063Y-177934122D01*
X102920293Y-178013440D01*
X102920297Y-178034484D01*
X102920297Y-178277822D01*
X102859941Y-178277822D01*
X102821443Y-178275126D01*
X102792977Y-178268295D01*
X102785845Y-178264083D01*
X102766348Y-178256813D01*
X102746434Y-178264083D01*
X102713647Y-178273160D01*
X102666022Y-178276813D01*
X102613236Y-178275228D01*
X102564964Y-178268589D01*
X102536782Y-178260072D01*
X102482247Y-178225063D01*
X102448165Y-178176479D01*
X102432843Y-178111882D01*
X102432701Y-178110223D01*
X102434045Y-178081566D01*
X102555644Y-178081566D01*
X102566274Y-178114161D01*
X102583590Y-178132505D01*
X102618348Y-178146379D01*
X102664227Y-178151917D01*
X102711012Y-178149191D01*
X102748486Y-178138274D01*
X102758985Y-178131269D01*
X102777332Y-178098904D01*
X102781980Y-178062111D01*
X102781980Y-178013763D01*
X102712418Y-178013763D01*
X102646333Y-178018850D01*
X102596236Y-178033263D01*
X102565071Y-178055729D01*
X102555644Y-178081566D01*
X102434045Y-178081566D01*
X102436013Y-178039647D01*
X102459290Y-177983845D01*
X102503052Y-177941647D01*
X102509101Y-177937808D01*
X102535093Y-177925309D01*
X102567265Y-177917740D01*
X102612240Y-177914061D01*
X102665669Y-177913216D01*
X102781980Y-177913169D01*
X102781980Y-177864411D01*
X102777047Y-177826581D01*
X102764457Y-177801236D01*
X102762983Y-177799887D01*
X102734966Y-177788800D01*
X102692674Y-177784503D01*
X102645936Y-177786615D01*
X102604582Y-177794756D01*
X102580043Y-177806965D01*
X102566747Y-177816746D01*
X102552706Y-177818613D01*
X102533329Y-177810600D01*
X102504024Y-177790739D01*
X102460197Y-177757063D01*
X102456175Y-177753909D01*
X102458236Y-177742236D01*
X102475432Y-177722822D01*
X102501567Y-177701248D01*
X102530448Y-177683096D01*
X102539522Y-177678809D01*
X102572620Y-177670256D01*
X102621120Y-177664155D01*
X102675305Y-177661708D01*
X102677839Y-177661703D01*
X102755790Y-177666555D01*
G37*
X102755790Y-177666555D02*
X102814945Y-177682339D01*
X102859977Y-177710948D01*
X102891754Y-177748419D01*
X102901634Y-177764411D01*
X102908927Y-177781163D01*
X102914026Y-177802592D01*
X102917321Y-177832616D01*
X102919203Y-177875154D01*
X102920063Y-177934122D01*
X102920293Y-178013440D01*
X102920297Y-178034484D01*
X102920297Y-178277822D01*
X102859941Y-178277822D01*
X102821443Y-178275126D01*
X102792977Y-178268295D01*
X102785845Y-178264083D01*
X102766348Y-178256813D01*
X102746434Y-178264083D01*
X102713647Y-178273160D01*
X102666022Y-178276813D01*
X102613236Y-178275228D01*
X102564964Y-178268589D01*
X102536782Y-178260072D01*
X102482247Y-178225063D01*
X102448165Y-178176479D01*
X102432843Y-178111882D01*
X102432701Y-178110223D01*
X102434045Y-178081566D01*
X102555644Y-178081566D01*
X102566274Y-178114161D01*
X102583590Y-178132505D01*
X102618348Y-178146379D01*
X102664227Y-178151917D01*
X102711012Y-178149191D01*
X102748486Y-178138274D01*
X102758985Y-178131269D01*
X102777332Y-178098904D01*
X102781980Y-178062111D01*
X102781980Y-178013763D01*
X102712418Y-178013763D01*
X102646333Y-178018850D01*
X102596236Y-178033263D01*
X102565071Y-178055729D01*
X102555644Y-178081566D01*
X102434045Y-178081566D01*
X102436013Y-178039647D01*
X102459290Y-177983845D01*
X102503052Y-177941647D01*
X102509101Y-177937808D01*
X102535093Y-177925309D01*
X102567265Y-177917740D01*
X102612240Y-177914061D01*
X102665669Y-177913216D01*
X102781980Y-177913169D01*
X102781980Y-177864411D01*
X102777047Y-177826581D01*
X102764457Y-177801236D01*
X102762983Y-177799887D01*
X102734966Y-177788800D01*
X102692674Y-177784503D01*
X102645936Y-177786615D01*
X102604582Y-177794756D01*
X102580043Y-177806965D01*
X102566747Y-177816746D01*
X102552706Y-177818613D01*
X102533329Y-177810600D01*
X102504024Y-177790739D01*
X102460197Y-177757063D01*
X102456175Y-177753909D01*
X102458236Y-177742236D01*
X102475432Y-177722822D01*
X102501567Y-177701248D01*
X102530448Y-177683096D01*
X102539522Y-177678809D01*
X102572620Y-177670256D01*
X102621120Y-177664155D01*
X102675305Y-177661708D01*
X102677839Y-177661703D01*
X102755790Y-177666555D01*
G36*
X102231241Y-176729184D02*
G01*
X102257753Y-176742282D01*
X102290447Y-176765106D01*
X102314275Y-176789996D01*
X102330594Y-176821249D01*
X102340760Y-176863166D01*
X102346128Y-176920044D01*
X102348056Y-176996184D01*
X102348169Y-177028917D01*
X102347839Y-177100656D01*
X102346473Y-177151927D01*
X102343500Y-177187404D01*
X102338351Y-177211763D01*
X102330457Y-177229680D01*
X102322243Y-177241902D01*
X102269813Y-177293905D01*
X102208070Y-177325184D01*
X102141464Y-177334592D01*
X102074442Y-177320980D01*
X102053208Y-177311354D01*
X102002376Y-177284859D01*
X102002376Y-177700052D01*
X102039475Y-177680868D01*
X102088357Y-177666025D01*
X102148439Y-177662222D01*
X102208436Y-177669243D01*
X102253744Y-177685013D01*
X102291325Y-177715047D01*
X102323436Y-177758024D01*
X102325850Y-177762436D01*
X102336033Y-177783221D01*
X102343470Y-177804170D01*
X102348589Y-177829548D01*
X102351819Y-177863618D01*
X102353587Y-177910641D01*
X102354323Y-177974882D01*
X102354456Y-178047176D01*
X102354456Y-178277822D01*
X102216139Y-178277822D01*
X102216139Y-177852533D01*
X102177451Y-177819979D01*
X102137262Y-177793940D01*
X102099203Y-177789205D01*
X102060934Y-177801389D01*
X102040538Y-177813320D01*
X102025358Y-177830313D01*
X102014562Y-177855995D01*
X102007317Y-177893991D01*
X102002792Y-177947926D01*
X102000156Y-178021425D01*
X101999228Y-178070347D01*
X101996089Y-178271535D01*
X101930074Y-178275336D01*
X101864060Y-178279136D01*
X101864060Y-177030650D01*
X102002376Y-177030650D01*
X102005903Y-177100254D01*
X102017785Y-177148569D01*
X102039980Y-177178631D01*
X102074441Y-177193471D01*
X102109258Y-177196436D01*
X102148671Y-177193028D01*
X102174829Y-177179617D01*
X102191186Y-177161896D01*
X102204063Y-177142835D01*
X102211728Y-177121601D01*
X102215139Y-177091849D01*
X102215251Y-177047236D01*
X102214103Y-177009880D01*
X102211468Y-176953604D01*
X102207544Y-176916658D01*
X102200937Y-176893223D01*
X102190251Y-176877480D01*
X102180167Y-176868380D01*
X102138030Y-176848537D01*
X102088160Y-176845332D01*
X102059524Y-176852168D01*
X102031172Y-176876464D01*
X102012391Y-176923728D01*
X102003288Y-176993624D01*
X102002376Y-177030650D01*
X101864060Y-177030650D01*
X101864060Y-176718614D01*
X101933218Y-176718614D01*
X101974740Y-176720256D01*
X101996162Y-176726087D01*
X102002374Y-176737461D01*
X102002376Y-176737798D01*
X102005258Y-176748938D01*
X102017970Y-176747673D01*
X102043243Y-176735433D01*
X102102131Y-176716707D01*
X102168385Y-176714739D01*
X102231241Y-176729184D01*
G37*
X102231241Y-176729184D02*
X102257753Y-176742282D01*
X102290447Y-176765106D01*
X102314275Y-176789996D01*
X102330594Y-176821249D01*
X102340760Y-176863166D01*
X102346128Y-176920044D01*
X102348056Y-176996184D01*
X102348169Y-177028917D01*
X102347839Y-177100656D01*
X102346473Y-177151927D01*
X102343500Y-177187404D01*
X102338351Y-177211763D01*
X102330457Y-177229680D01*
X102322243Y-177241902D01*
X102269813Y-177293905D01*
X102208070Y-177325184D01*
X102141464Y-177334592D01*
X102074442Y-177320980D01*
X102053208Y-177311354D01*
X102002376Y-177284859D01*
X102002376Y-177700052D01*
X102039475Y-177680868D01*
X102088357Y-177666025D01*
X102148439Y-177662222D01*
X102208436Y-177669243D01*
X102253744Y-177685013D01*
X102291325Y-177715047D01*
X102323436Y-177758024D01*
X102325850Y-177762436D01*
X102336033Y-177783221D01*
X102343470Y-177804170D01*
X102348589Y-177829548D01*
X102351819Y-177863618D01*
X102353587Y-177910641D01*
X102354323Y-177974882D01*
X102354456Y-178047176D01*
X102354456Y-178277822D01*
X102216139Y-178277822D01*
X102216139Y-177852533D01*
X102177451Y-177819979D01*
X102137262Y-177793940D01*
X102099203Y-177789205D01*
X102060934Y-177801389D01*
X102040538Y-177813320D01*
X102025358Y-177830313D01*
X102014562Y-177855995D01*
X102007317Y-177893991D01*
X102002792Y-177947926D01*
X102000156Y-178021425D01*
X101999228Y-178070347D01*
X101996089Y-178271535D01*
X101930074Y-178275336D01*
X101864060Y-178279136D01*
X101864060Y-177030650D01*
X102002376Y-177030650D01*
X102005903Y-177100254D01*
X102017785Y-177148569D01*
X102039980Y-177178631D01*
X102074441Y-177193471D01*
X102109258Y-177196436D01*
X102148671Y-177193028D01*
X102174829Y-177179617D01*
X102191186Y-177161896D01*
X102204063Y-177142835D01*
X102211728Y-177121601D01*
X102215139Y-177091849D01*
X102215251Y-177047236D01*
X102214103Y-177009880D01*
X102211468Y-176953604D01*
X102207544Y-176916658D01*
X102200937Y-176893223D01*
X102190251Y-176877480D01*
X102180167Y-176868380D01*
X102138030Y-176848537D01*
X102088160Y-176845332D01*
X102059524Y-176852168D01*
X102031172Y-176876464D01*
X102012391Y-176923728D01*
X102003288Y-176993624D01*
X102002376Y-177030650D01*
X101864060Y-177030650D01*
X101864060Y-176718614D01*
X101933218Y-176718614D01*
X101974740Y-176720256D01*
X101996162Y-176726087D01*
X102002374Y-176737461D01*
X102002376Y-176737798D01*
X102005258Y-176748938D01*
X102017970Y-176747673D01*
X102043243Y-176735433D01*
X102102131Y-176716707D01*
X102168385Y-176714739D01*
X102231241Y-176729184D01*
D11*
G04 #@! TO.C,F1*
X102655000Y-119340000D02*
X102970000Y-119340000D01*
X100230000Y-119340000D02*
X100545000Y-119340000D01*
X102655000Y-124580000D02*
X102970000Y-124580000D01*
X100230000Y-124580000D02*
X100545000Y-124580000D01*
X102970000Y-124580000D02*
X102970000Y-119340000D01*
X100230000Y-124580000D02*
X100230000Y-119340000D01*
G04 #@! TO.C,D10*
X85625000Y-114305000D02*
X85625000Y-116765000D01*
X87095000Y-114305000D02*
X85625000Y-114305000D01*
X87095000Y-116765000D02*
X87095000Y-114305000D01*
G04 #@! TO.C,D14*
X140805000Y-141070000D02*
X143265000Y-141070000D01*
X143265000Y-141070000D02*
X143265000Y-139600000D01*
X143265000Y-139600000D02*
X140805000Y-139600000D01*
G04 #@! TO.C,D12*
X136995000Y-141070000D02*
X139455000Y-141070000D01*
X139455000Y-141070000D02*
X139455000Y-139600000D01*
X139455000Y-139600000D02*
X136995000Y-139600000D01*
G04 #@! TO.C,D11*
X133185000Y-141070000D02*
X135645000Y-141070000D01*
X135645000Y-141070000D02*
X135645000Y-139600000D01*
X135645000Y-139600000D02*
X133185000Y-139600000D01*
G04 #@! TO.C,D9*
X129375000Y-141070000D02*
X131835000Y-141070000D01*
X131835000Y-141070000D02*
X131835000Y-139600000D01*
X131835000Y-139600000D02*
X129375000Y-139600000D01*
G04 #@! TO.C,D8*
X140805000Y-137260000D02*
X143265000Y-137260000D01*
X143265000Y-137260000D02*
X143265000Y-135790000D01*
X143265000Y-135790000D02*
X140805000Y-135790000D01*
G04 #@! TO.C,D7*
X136995000Y-137260000D02*
X139455000Y-137260000D01*
X139455000Y-137260000D02*
X139455000Y-135790000D01*
X139455000Y-135790000D02*
X136995000Y-135790000D01*
G04 #@! TO.C,D6*
X133185000Y-137260000D02*
X135645000Y-137260000D01*
X135645000Y-137260000D02*
X135645000Y-135790000D01*
X135645000Y-135790000D02*
X133185000Y-135790000D01*
G04 #@! TO.C,D5*
X129375000Y-137260000D02*
X131835000Y-137260000D01*
X131835000Y-137260000D02*
X131835000Y-135790000D01*
X131835000Y-135790000D02*
X129375000Y-135790000D01*
G04 #@! TO.C,C5*
X93525000Y-128304775D02*
X94025000Y-128304775D01*
X93775000Y-128554775D02*
X93775000Y-128054775D01*
X94966000Y-123149000D02*
X95534000Y-123149000D01*
X94732000Y-123189000D02*
X95768000Y-123189000D01*
X94573000Y-123229000D02*
X95927000Y-123229000D01*
X94445000Y-123269000D02*
X96055000Y-123269000D01*
X94335000Y-123309000D02*
X96165000Y-123309000D01*
X94239000Y-123349000D02*
X96261000Y-123349000D01*
X94152000Y-123389000D02*
X96348000Y-123389000D01*
X94072000Y-123429000D02*
X96428000Y-123429000D01*
X96290000Y-123469000D02*
X96501000Y-123469000D01*
X93999000Y-123469000D02*
X94210000Y-123469000D01*
X96290000Y-123509000D02*
X96569000Y-123509000D01*
X93931000Y-123509000D02*
X94210000Y-123509000D01*
X96290000Y-123549000D02*
X96633000Y-123549000D01*
X93867000Y-123549000D02*
X94210000Y-123549000D01*
X96290000Y-123589000D02*
X96693000Y-123589000D01*
X93807000Y-123589000D02*
X94210000Y-123589000D01*
X96290000Y-123629000D02*
X96750000Y-123629000D01*
X93750000Y-123629000D02*
X94210000Y-123629000D01*
X96290000Y-123669000D02*
X96804000Y-123669000D01*
X93696000Y-123669000D02*
X94210000Y-123669000D01*
X96290000Y-123709000D02*
X96855000Y-123709000D01*
X93645000Y-123709000D02*
X94210000Y-123709000D01*
X96290000Y-123749000D02*
X96903000Y-123749000D01*
X93597000Y-123749000D02*
X94210000Y-123749000D01*
X96290000Y-123789000D02*
X96949000Y-123789000D01*
X93551000Y-123789000D02*
X94210000Y-123789000D01*
X96290000Y-123829000D02*
X96993000Y-123829000D01*
X93507000Y-123829000D02*
X94210000Y-123829000D01*
X96290000Y-123869000D02*
X97035000Y-123869000D01*
X93465000Y-123869000D02*
X94210000Y-123869000D01*
X96290000Y-123909000D02*
X97076000Y-123909000D01*
X93424000Y-123909000D02*
X94210000Y-123909000D01*
X96290000Y-123949000D02*
X97114000Y-123949000D01*
X93386000Y-123949000D02*
X94210000Y-123949000D01*
X96290000Y-123989000D02*
X97151000Y-123989000D01*
X93349000Y-123989000D02*
X94210000Y-123989000D01*
X96290000Y-124029000D02*
X97187000Y-124029000D01*
X93313000Y-124029000D02*
X94210000Y-124029000D01*
X96290000Y-124069000D02*
X97221000Y-124069000D01*
X93279000Y-124069000D02*
X94210000Y-124069000D01*
X96290000Y-124109000D02*
X97254000Y-124109000D01*
X93246000Y-124109000D02*
X94210000Y-124109000D01*
X96290000Y-124149000D02*
X97285000Y-124149000D01*
X93215000Y-124149000D02*
X94210000Y-124149000D01*
X96290000Y-124189000D02*
X97315000Y-124189000D01*
X93185000Y-124189000D02*
X94210000Y-124189000D01*
X96290000Y-124229000D02*
X97345000Y-124229000D01*
X93155000Y-124229000D02*
X94210000Y-124229000D01*
X96290000Y-124269000D02*
X97372000Y-124269000D01*
X93128000Y-124269000D02*
X94210000Y-124269000D01*
X96290000Y-124309000D02*
X97399000Y-124309000D01*
X93101000Y-124309000D02*
X94210000Y-124309000D01*
X96290000Y-124349000D02*
X97425000Y-124349000D01*
X93075000Y-124349000D02*
X94210000Y-124349000D01*
X96290000Y-124389000D02*
X97450000Y-124389000D01*
X93050000Y-124389000D02*
X94210000Y-124389000D01*
X96290000Y-124429000D02*
X97474000Y-124429000D01*
X93026000Y-124429000D02*
X94210000Y-124429000D01*
X96290000Y-124469000D02*
X97497000Y-124469000D01*
X93003000Y-124469000D02*
X94210000Y-124469000D01*
X96290000Y-124509000D02*
X97518000Y-124509000D01*
X92982000Y-124509000D02*
X94210000Y-124509000D01*
X96290000Y-124549000D02*
X97540000Y-124549000D01*
X92960000Y-124549000D02*
X94210000Y-124549000D01*
X96290000Y-124589000D02*
X97560000Y-124589000D01*
X92940000Y-124589000D02*
X94210000Y-124589000D01*
X96290000Y-124629000D02*
X97579000Y-124629000D01*
X92921000Y-124629000D02*
X94210000Y-124629000D01*
X96290000Y-124669000D02*
X97598000Y-124669000D01*
X92902000Y-124669000D02*
X94210000Y-124669000D01*
X96290000Y-124709000D02*
X97615000Y-124709000D01*
X92885000Y-124709000D02*
X94210000Y-124709000D01*
X96290000Y-124749000D02*
X97632000Y-124749000D01*
X92868000Y-124749000D02*
X94210000Y-124749000D01*
X96290000Y-124789000D02*
X97648000Y-124789000D01*
X92852000Y-124789000D02*
X94210000Y-124789000D01*
X96290000Y-124829000D02*
X97664000Y-124829000D01*
X92836000Y-124829000D02*
X94210000Y-124829000D01*
X96290000Y-124869000D02*
X97678000Y-124869000D01*
X92822000Y-124869000D02*
X94210000Y-124869000D01*
X96290000Y-124909000D02*
X97692000Y-124909000D01*
X92808000Y-124909000D02*
X94210000Y-124909000D01*
X96290000Y-124949000D02*
X97705000Y-124949000D01*
X92795000Y-124949000D02*
X94210000Y-124949000D01*
X96290000Y-124989000D02*
X97718000Y-124989000D01*
X92782000Y-124989000D02*
X94210000Y-124989000D01*
X96290000Y-125029000D02*
X97730000Y-125029000D01*
X92770000Y-125029000D02*
X94210000Y-125029000D01*
X96290000Y-125070000D02*
X97741000Y-125070000D01*
X92759000Y-125070000D02*
X94210000Y-125070000D01*
X96290000Y-125110000D02*
X97751000Y-125110000D01*
X92749000Y-125110000D02*
X94210000Y-125110000D01*
X96290000Y-125150000D02*
X97761000Y-125150000D01*
X92739000Y-125150000D02*
X94210000Y-125150000D01*
X96290000Y-125190000D02*
X97770000Y-125190000D01*
X92730000Y-125190000D02*
X94210000Y-125190000D01*
X96290000Y-125230000D02*
X97778000Y-125230000D01*
X92722000Y-125230000D02*
X94210000Y-125230000D01*
X96290000Y-125270000D02*
X97786000Y-125270000D01*
X92714000Y-125270000D02*
X94210000Y-125270000D01*
X96290000Y-125310000D02*
X97793000Y-125310000D01*
X92707000Y-125310000D02*
X94210000Y-125310000D01*
X96290000Y-125350000D02*
X97800000Y-125350000D01*
X92700000Y-125350000D02*
X94210000Y-125350000D01*
X96290000Y-125390000D02*
X97806000Y-125390000D01*
X92694000Y-125390000D02*
X94210000Y-125390000D01*
X96290000Y-125430000D02*
X97811000Y-125430000D01*
X92689000Y-125430000D02*
X94210000Y-125430000D01*
X96290000Y-125470000D02*
X97815000Y-125470000D01*
X92685000Y-125470000D02*
X94210000Y-125470000D01*
X96290000Y-125510000D02*
X97819000Y-125510000D01*
X92681000Y-125510000D02*
X94210000Y-125510000D01*
X92677000Y-125550000D02*
X97823000Y-125550000D01*
X92674000Y-125590000D02*
X97826000Y-125590000D01*
X92672000Y-125630000D02*
X97828000Y-125630000D01*
X92671000Y-125670000D02*
X97829000Y-125670000D01*
X92670000Y-125710000D02*
X97830000Y-125710000D01*
X92670000Y-125750000D02*
X97830000Y-125750000D01*
X97870000Y-125750000D02*
G75*
G03*
X97870000Y-125750000I-2620000J0D01*
G01*
G04 #@! TO.C,C1*
X99820000Y-130638733D02*
X99820000Y-130981267D01*
X100840000Y-130638733D02*
X100840000Y-130981267D01*
G04 #@! TO.C,C4*
X97280000Y-130638733D02*
X97280000Y-130981267D01*
X98300000Y-130638733D02*
X98300000Y-130981267D01*
G04 #@! TO.C,C3*
X87175000Y-128304775D02*
X87675000Y-128304775D01*
X87425000Y-128554775D02*
X87425000Y-128054775D01*
X88616000Y-123149000D02*
X89184000Y-123149000D01*
X88382000Y-123189000D02*
X89418000Y-123189000D01*
X88223000Y-123229000D02*
X89577000Y-123229000D01*
X88095000Y-123269000D02*
X89705000Y-123269000D01*
X87985000Y-123309000D02*
X89815000Y-123309000D01*
X87889000Y-123349000D02*
X89911000Y-123349000D01*
X87802000Y-123389000D02*
X89998000Y-123389000D01*
X87722000Y-123429000D02*
X90078000Y-123429000D01*
X89940000Y-123469000D02*
X90151000Y-123469000D01*
X87649000Y-123469000D02*
X87860000Y-123469000D01*
X89940000Y-123509000D02*
X90219000Y-123509000D01*
X87581000Y-123509000D02*
X87860000Y-123509000D01*
X89940000Y-123549000D02*
X90283000Y-123549000D01*
X87517000Y-123549000D02*
X87860000Y-123549000D01*
X89940000Y-123589000D02*
X90343000Y-123589000D01*
X87457000Y-123589000D02*
X87860000Y-123589000D01*
X89940000Y-123629000D02*
X90400000Y-123629000D01*
X87400000Y-123629000D02*
X87860000Y-123629000D01*
X89940000Y-123669000D02*
X90454000Y-123669000D01*
X87346000Y-123669000D02*
X87860000Y-123669000D01*
X89940000Y-123709000D02*
X90505000Y-123709000D01*
X87295000Y-123709000D02*
X87860000Y-123709000D01*
X89940000Y-123749000D02*
X90553000Y-123749000D01*
X87247000Y-123749000D02*
X87860000Y-123749000D01*
X89940000Y-123789000D02*
X90599000Y-123789000D01*
X87201000Y-123789000D02*
X87860000Y-123789000D01*
X89940000Y-123829000D02*
X90643000Y-123829000D01*
X87157000Y-123829000D02*
X87860000Y-123829000D01*
X89940000Y-123869000D02*
X90685000Y-123869000D01*
X87115000Y-123869000D02*
X87860000Y-123869000D01*
X89940000Y-123909000D02*
X90726000Y-123909000D01*
X87074000Y-123909000D02*
X87860000Y-123909000D01*
X89940000Y-123949000D02*
X90764000Y-123949000D01*
X87036000Y-123949000D02*
X87860000Y-123949000D01*
X89940000Y-123989000D02*
X90801000Y-123989000D01*
X86999000Y-123989000D02*
X87860000Y-123989000D01*
X89940000Y-124029000D02*
X90837000Y-124029000D01*
X86963000Y-124029000D02*
X87860000Y-124029000D01*
X89940000Y-124069000D02*
X90871000Y-124069000D01*
X86929000Y-124069000D02*
X87860000Y-124069000D01*
X89940000Y-124109000D02*
X90904000Y-124109000D01*
X86896000Y-124109000D02*
X87860000Y-124109000D01*
X89940000Y-124149000D02*
X90935000Y-124149000D01*
X86865000Y-124149000D02*
X87860000Y-124149000D01*
X89940000Y-124189000D02*
X90965000Y-124189000D01*
X86835000Y-124189000D02*
X87860000Y-124189000D01*
X89940000Y-124229000D02*
X90995000Y-124229000D01*
X86805000Y-124229000D02*
X87860000Y-124229000D01*
X89940000Y-124269000D02*
X91022000Y-124269000D01*
X86778000Y-124269000D02*
X87860000Y-124269000D01*
X89940000Y-124309000D02*
X91049000Y-124309000D01*
X86751000Y-124309000D02*
X87860000Y-124309000D01*
X89940000Y-124349000D02*
X91075000Y-124349000D01*
X86725000Y-124349000D02*
X87860000Y-124349000D01*
X89940000Y-124389000D02*
X91100000Y-124389000D01*
X86700000Y-124389000D02*
X87860000Y-124389000D01*
X89940000Y-124429000D02*
X91124000Y-124429000D01*
X86676000Y-124429000D02*
X87860000Y-124429000D01*
X89940000Y-124469000D02*
X91147000Y-124469000D01*
X86653000Y-124469000D02*
X87860000Y-124469000D01*
X89940000Y-124509000D02*
X91168000Y-124509000D01*
X86632000Y-124509000D02*
X87860000Y-124509000D01*
X89940000Y-124549000D02*
X91190000Y-124549000D01*
X86610000Y-124549000D02*
X87860000Y-124549000D01*
X89940000Y-124589000D02*
X91210000Y-124589000D01*
X86590000Y-124589000D02*
X87860000Y-124589000D01*
X89940000Y-124629000D02*
X91229000Y-124629000D01*
X86571000Y-124629000D02*
X87860000Y-124629000D01*
X89940000Y-124669000D02*
X91248000Y-124669000D01*
X86552000Y-124669000D02*
X87860000Y-124669000D01*
X89940000Y-124709000D02*
X91265000Y-124709000D01*
X86535000Y-124709000D02*
X87860000Y-124709000D01*
X89940000Y-124749000D02*
X91282000Y-124749000D01*
X86518000Y-124749000D02*
X87860000Y-124749000D01*
X89940000Y-124789000D02*
X91298000Y-124789000D01*
X86502000Y-124789000D02*
X87860000Y-124789000D01*
X89940000Y-124829000D02*
X91314000Y-124829000D01*
X86486000Y-124829000D02*
X87860000Y-124829000D01*
X89940000Y-124869000D02*
X91328000Y-124869000D01*
X86472000Y-124869000D02*
X87860000Y-124869000D01*
X89940000Y-124909000D02*
X91342000Y-124909000D01*
X86458000Y-124909000D02*
X87860000Y-124909000D01*
X89940000Y-124949000D02*
X91355000Y-124949000D01*
X86445000Y-124949000D02*
X87860000Y-124949000D01*
X89940000Y-124989000D02*
X91368000Y-124989000D01*
X86432000Y-124989000D02*
X87860000Y-124989000D01*
X89940000Y-125029000D02*
X91380000Y-125029000D01*
X86420000Y-125029000D02*
X87860000Y-125029000D01*
X89940000Y-125070000D02*
X91391000Y-125070000D01*
X86409000Y-125070000D02*
X87860000Y-125070000D01*
X89940000Y-125110000D02*
X91401000Y-125110000D01*
X86399000Y-125110000D02*
X87860000Y-125110000D01*
X89940000Y-125150000D02*
X91411000Y-125150000D01*
X86389000Y-125150000D02*
X87860000Y-125150000D01*
X89940000Y-125190000D02*
X91420000Y-125190000D01*
X86380000Y-125190000D02*
X87860000Y-125190000D01*
X89940000Y-125230000D02*
X91428000Y-125230000D01*
X86372000Y-125230000D02*
X87860000Y-125230000D01*
X89940000Y-125270000D02*
X91436000Y-125270000D01*
X86364000Y-125270000D02*
X87860000Y-125270000D01*
X89940000Y-125310000D02*
X91443000Y-125310000D01*
X86357000Y-125310000D02*
X87860000Y-125310000D01*
X89940000Y-125350000D02*
X91450000Y-125350000D01*
X86350000Y-125350000D02*
X87860000Y-125350000D01*
X89940000Y-125390000D02*
X91456000Y-125390000D01*
X86344000Y-125390000D02*
X87860000Y-125390000D01*
X89940000Y-125430000D02*
X91461000Y-125430000D01*
X86339000Y-125430000D02*
X87860000Y-125430000D01*
X89940000Y-125470000D02*
X91465000Y-125470000D01*
X86335000Y-125470000D02*
X87860000Y-125470000D01*
X89940000Y-125510000D02*
X91469000Y-125510000D01*
X86331000Y-125510000D02*
X87860000Y-125510000D01*
X86327000Y-125550000D02*
X91473000Y-125550000D01*
X86324000Y-125590000D02*
X91476000Y-125590000D01*
X86322000Y-125630000D02*
X91478000Y-125630000D01*
X86321000Y-125670000D02*
X91479000Y-125670000D01*
X86320000Y-125710000D02*
X91480000Y-125710000D01*
X86320000Y-125750000D02*
X91480000Y-125750000D01*
X91520000Y-125750000D02*
G75*
G03*
X91520000Y-125750000I-2620000J0D01*
G01*
G04 #@! TO.C,J9*
X114668333Y-120211904D02*
X114668333Y-120783333D01*
X114630238Y-120897619D01*
X114554047Y-120973809D01*
X114439761Y-121011904D01*
X114363571Y-121011904D01*
X115087380Y-121011904D02*
X115239761Y-121011904D01*
X115315952Y-120973809D01*
X115354047Y-120935714D01*
X115430238Y-120821428D01*
X115468333Y-120669047D01*
X115468333Y-120364285D01*
X115430238Y-120288095D01*
X115392142Y-120250000D01*
X115315952Y-120211904D01*
X115163571Y-120211904D01*
X115087380Y-120250000D01*
X115049285Y-120288095D01*
X115011190Y-120364285D01*
X115011190Y-120554761D01*
X115049285Y-120630952D01*
X115087380Y-120669047D01*
X115163571Y-120707142D01*
X115315952Y-120707142D01*
X115392142Y-120669047D01*
X115430238Y-120630952D01*
X115468333Y-120554761D01*
G04 #@! TO.C,J6*
X101968333Y-182441904D02*
X101968333Y-183013333D01*
X101930238Y-183127619D01*
X101854047Y-183203809D01*
X101739761Y-183241904D01*
X101663571Y-183241904D01*
X102692142Y-182441904D02*
X102539761Y-182441904D01*
X102463571Y-182480000D01*
X102425476Y-182518095D01*
X102349285Y-182632380D01*
X102311190Y-182784761D01*
X102311190Y-183089523D01*
X102349285Y-183165714D01*
X102387380Y-183203809D01*
X102463571Y-183241904D01*
X102615952Y-183241904D01*
X102692142Y-183203809D01*
X102730238Y-183165714D01*
X102768333Y-183089523D01*
X102768333Y-182899047D01*
X102730238Y-182822857D01*
X102692142Y-182784761D01*
X102615952Y-182746666D01*
X102463571Y-182746666D01*
X102387380Y-182784761D01*
X102349285Y-182822857D01*
X102311190Y-182899047D01*
X91668571Y-192131904D02*
X91211428Y-192131904D01*
X91440000Y-192131904D02*
X91440000Y-191331904D01*
X91363809Y-191446190D01*
X91287619Y-191522380D01*
X91211428Y-191560476D01*
G04 #@! TO.C,J8*
X86093333Y-141801904D02*
X86093333Y-142373333D01*
X86055238Y-142487619D01*
X85979047Y-142563809D01*
X85864761Y-142601904D01*
X85788571Y-142601904D01*
X86588571Y-142144761D02*
X86512380Y-142106666D01*
X86474285Y-142068571D01*
X86436190Y-141992380D01*
X86436190Y-141954285D01*
X86474285Y-141878095D01*
X86512380Y-141840000D01*
X86588571Y-141801904D01*
X86740952Y-141801904D01*
X86817142Y-141840000D01*
X86855238Y-141878095D01*
X86893333Y-141954285D01*
X86893333Y-141992380D01*
X86855238Y-142068571D01*
X86817142Y-142106666D01*
X86740952Y-142144761D01*
X86588571Y-142144761D01*
X86512380Y-142182857D01*
X86474285Y-142220952D01*
X86436190Y-142297142D01*
X86436190Y-142449523D01*
X86474285Y-142525714D01*
X86512380Y-142563809D01*
X86588571Y-142601904D01*
X86740952Y-142601904D01*
X86817142Y-142563809D01*
X86855238Y-142525714D01*
X86893333Y-142449523D01*
X86893333Y-142297142D01*
X86855238Y-142220952D01*
X86817142Y-142182857D01*
X86740952Y-142144761D01*
G04 #@! TO.C,BT1*
X121926428Y-135407857D02*
X122040714Y-135445952D01*
X122078809Y-135484047D01*
X122116904Y-135560238D01*
X122116904Y-135674523D01*
X122078809Y-135750714D01*
X122040714Y-135788809D01*
X121964523Y-135826904D01*
X121659761Y-135826904D01*
X121659761Y-135026904D01*
X121926428Y-135026904D01*
X122002619Y-135065000D01*
X122040714Y-135103095D01*
X122078809Y-135179285D01*
X122078809Y-135255476D01*
X122040714Y-135331666D01*
X122002619Y-135369761D01*
X121926428Y-135407857D01*
X121659761Y-135407857D01*
X122345476Y-135026904D02*
X122802619Y-135026904D01*
X122574047Y-135826904D02*
X122574047Y-135026904D01*
X123488333Y-135826904D02*
X123031190Y-135826904D01*
X123259761Y-135826904D02*
X123259761Y-135026904D01*
X123183571Y-135141190D01*
X123107380Y-135217380D01*
X123031190Y-135255476D01*
G04 #@! TO.C,U2*
X108610476Y-170376904D02*
X108610476Y-171024523D01*
X108648571Y-171100714D01*
X108686666Y-171138809D01*
X108762857Y-171176904D01*
X108915238Y-171176904D01*
X108991428Y-171138809D01*
X109029523Y-171100714D01*
X109067619Y-171024523D01*
X109067619Y-170376904D01*
X109410476Y-170453095D02*
X109448571Y-170415000D01*
X109524761Y-170376904D01*
X109715238Y-170376904D01*
X109791428Y-170415000D01*
X109829523Y-170453095D01*
X109867619Y-170529285D01*
X109867619Y-170605476D01*
X109829523Y-170719761D01*
X109372380Y-171176904D01*
X109867619Y-171176904D01*
G04 #@! TO.C,J4*
X98793333Y-121481904D02*
X98793333Y-122053333D01*
X98755238Y-122167619D01*
X98679047Y-122243809D01*
X98564761Y-122281904D01*
X98488571Y-122281904D01*
X99517142Y-121748571D02*
X99517142Y-122281904D01*
X99326666Y-121443809D02*
X99136190Y-122015238D01*
X99631428Y-122015238D01*
X96113571Y-114661904D02*
X95656428Y-114661904D01*
X95885000Y-114661904D02*
X95885000Y-113861904D01*
X95808809Y-113976190D01*
X95732619Y-114052380D01*
X95656428Y-114090476D01*
G04 #@! TO.C,PC2*
X131089523Y-127361904D02*
X131089523Y-126561904D01*
X131394285Y-126561904D01*
X131470476Y-126600000D01*
X131508571Y-126638095D01*
X131546666Y-126714285D01*
X131546666Y-126828571D01*
X131508571Y-126904761D01*
X131470476Y-126942857D01*
X131394285Y-126980952D01*
X131089523Y-126980952D01*
X132346666Y-127285714D02*
X132308571Y-127323809D01*
X132194285Y-127361904D01*
X132118095Y-127361904D01*
X132003809Y-127323809D01*
X131927619Y-127247619D01*
X131889523Y-127171428D01*
X131851428Y-127019047D01*
X131851428Y-126904761D01*
X131889523Y-126752380D01*
X131927619Y-126676190D01*
X132003809Y-126600000D01*
X132118095Y-126561904D01*
X132194285Y-126561904D01*
X132308571Y-126600000D01*
X132346666Y-126638095D01*
X132651428Y-126638095D02*
X132689523Y-126600000D01*
X132765714Y-126561904D01*
X132956190Y-126561904D01*
X133032380Y-126600000D01*
X133070476Y-126638095D01*
X133108571Y-126714285D01*
X133108571Y-126790476D01*
X133070476Y-126904761D01*
X132613333Y-127361904D01*
X133108571Y-127361904D01*
G04 #@! TO.C,J3*
X118478333Y-120211904D02*
X118478333Y-120783333D01*
X118440238Y-120897619D01*
X118364047Y-120973809D01*
X118249761Y-121011904D01*
X118173571Y-121011904D01*
X118783095Y-120211904D02*
X119278333Y-120211904D01*
X119011666Y-120516666D01*
X119125952Y-120516666D01*
X119202142Y-120554761D01*
X119240238Y-120592857D01*
X119278333Y-120669047D01*
X119278333Y-120859523D01*
X119240238Y-120935714D01*
X119202142Y-120973809D01*
X119125952Y-121011904D01*
X118897380Y-121011904D01*
X118821190Y-120973809D01*
X118783095Y-120935714D01*
G04 #@! TO.C,F2*
X87998333Y-180282857D02*
X87731666Y-180282857D01*
X87731666Y-180701904D02*
X87731666Y-179901904D01*
X88112619Y-179901904D01*
X88379285Y-179978095D02*
X88417380Y-179940000D01*
X88493571Y-179901904D01*
X88684047Y-179901904D01*
X88760238Y-179940000D01*
X88798333Y-179978095D01*
X88836428Y-180054285D01*
X88836428Y-180130476D01*
X88798333Y-180244761D01*
X88341190Y-180701904D01*
X88836428Y-180701904D01*
G04 #@! TO.C,J2*
X119748333Y-182441904D02*
X119748333Y-183013333D01*
X119710238Y-183127619D01*
X119634047Y-183203809D01*
X119519761Y-183241904D01*
X119443571Y-183241904D01*
X120091190Y-182518095D02*
X120129285Y-182480000D01*
X120205476Y-182441904D01*
X120395952Y-182441904D01*
X120472142Y-182480000D01*
X120510238Y-182518095D01*
X120548333Y-182594285D01*
X120548333Y-182670476D01*
X120510238Y-182784761D01*
X120053095Y-183241904D01*
X120548333Y-183241904D01*
X109448571Y-192131904D02*
X108991428Y-192131904D01*
X109220000Y-192131904D02*
X109220000Y-191331904D01*
X109143809Y-191446190D01*
X109067619Y-191522380D01*
X108991428Y-191560476D01*
G04 #@! TO.C,J7*
X145148333Y-182441904D02*
X145148333Y-183013333D01*
X145110238Y-183127619D01*
X145034047Y-183203809D01*
X144919761Y-183241904D01*
X144843571Y-183241904D01*
X145453095Y-182441904D02*
X145986428Y-182441904D01*
X145643571Y-183241904D01*
X124688571Y-192131904D02*
X124231428Y-192131904D01*
X124460000Y-192131904D02*
X124460000Y-191331904D01*
X124383809Y-191446190D01*
X124307619Y-191522380D01*
X124231428Y-191560476D01*
G04 #@! TO.C,J5*
X145783333Y-121481904D02*
X145783333Y-122053333D01*
X145745238Y-122167619D01*
X145669047Y-122243809D01*
X145554761Y-122281904D01*
X145478571Y-122281904D01*
X146545238Y-121481904D02*
X146164285Y-121481904D01*
X146126190Y-121862857D01*
X146164285Y-121824761D01*
X146240476Y-121786666D01*
X146430952Y-121786666D01*
X146507142Y-121824761D01*
X146545238Y-121862857D01*
X146583333Y-121939047D01*
X146583333Y-122129523D01*
X146545238Y-122205714D01*
X146507142Y-122243809D01*
X146430952Y-122281904D01*
X146240476Y-122281904D01*
X146164285Y-122243809D01*
X146126190Y-122205714D01*
X142468571Y-118471904D02*
X142011428Y-118471904D01*
X142240000Y-118471904D02*
X142240000Y-117671904D01*
X142163809Y-117786190D01*
X142087619Y-117862380D01*
X142011428Y-117900476D01*
G04 #@! TO.C,D16*
X84118571Y-182606904D02*
X84118571Y-181806904D01*
X84309047Y-181806904D01*
X84423333Y-181845000D01*
X84499523Y-181921190D01*
X84537619Y-181997380D01*
X84575714Y-182149761D01*
X84575714Y-182264047D01*
X84537619Y-182416428D01*
X84499523Y-182492619D01*
X84423333Y-182568809D01*
X84309047Y-182606904D01*
X84118571Y-182606904D01*
X85337619Y-182606904D02*
X84880476Y-182606904D01*
X85109047Y-182606904D02*
X85109047Y-181806904D01*
X85032857Y-181921190D01*
X84956666Y-181997380D01*
X84880476Y-182035476D01*
X86023333Y-181806904D02*
X85870952Y-181806904D01*
X85794761Y-181845000D01*
X85756666Y-181883095D01*
X85680476Y-181997380D01*
X85642380Y-182149761D01*
X85642380Y-182454523D01*
X85680476Y-182530714D01*
X85718571Y-182568809D01*
X85794761Y-182606904D01*
X85947142Y-182606904D01*
X86023333Y-182568809D01*
X86061428Y-182530714D01*
X86099523Y-182454523D01*
X86099523Y-182264047D01*
X86061428Y-182187857D01*
X86023333Y-182149761D01*
X85947142Y-182111666D01*
X85794761Y-182111666D01*
X85718571Y-182149761D01*
X85680476Y-182187857D01*
X85642380Y-182264047D01*
G04 #@! TO.C,D13*
X84118571Y-195306904D02*
X84118571Y-194506904D01*
X84309047Y-194506904D01*
X84423333Y-194545000D01*
X84499523Y-194621190D01*
X84537619Y-194697380D01*
X84575714Y-194849761D01*
X84575714Y-194964047D01*
X84537619Y-195116428D01*
X84499523Y-195192619D01*
X84423333Y-195268809D01*
X84309047Y-195306904D01*
X84118571Y-195306904D01*
X85337619Y-195306904D02*
X84880476Y-195306904D01*
X85109047Y-195306904D02*
X85109047Y-194506904D01*
X85032857Y-194621190D01*
X84956666Y-194697380D01*
X84880476Y-194735476D01*
X85604285Y-194506904D02*
X86099523Y-194506904D01*
X85832857Y-194811666D01*
X85947142Y-194811666D01*
X86023333Y-194849761D01*
X86061428Y-194887857D01*
X86099523Y-194964047D01*
X86099523Y-195154523D01*
X86061428Y-195230714D01*
X86023333Y-195268809D01*
X85947142Y-195306904D01*
X85718571Y-195306904D01*
X85642380Y-195268809D01*
X85604285Y-195230714D01*
G04 #@! TO.C,D15*
X86023571Y-133711904D02*
X86023571Y-132911904D01*
X86214047Y-132911904D01*
X86328333Y-132950000D01*
X86404523Y-133026190D01*
X86442619Y-133102380D01*
X86480714Y-133254761D01*
X86480714Y-133369047D01*
X86442619Y-133521428D01*
X86404523Y-133597619D01*
X86328333Y-133673809D01*
X86214047Y-133711904D01*
X86023571Y-133711904D01*
X87242619Y-133711904D02*
X86785476Y-133711904D01*
X87014047Y-133711904D02*
X87014047Y-132911904D01*
X86937857Y-133026190D01*
X86861666Y-133102380D01*
X86785476Y-133140476D01*
X87966428Y-132911904D02*
X87585476Y-132911904D01*
X87547380Y-133292857D01*
X87585476Y-133254761D01*
X87661666Y-133216666D01*
X87852142Y-133216666D01*
X87928333Y-133254761D01*
X87966428Y-133292857D01*
X88004523Y-133369047D01*
X88004523Y-133559523D01*
X87966428Y-133635714D01*
X87928333Y-133673809D01*
X87852142Y-133711904D01*
X87661666Y-133711904D01*
X87585476Y-133673809D01*
X87547380Y-133635714D01*
G04 #@! TO.C,P1*
X89579523Y-146411904D02*
X89579523Y-145611904D01*
X89884285Y-145611904D01*
X89960476Y-145650000D01*
X89998571Y-145688095D01*
X90036666Y-145764285D01*
X90036666Y-145878571D01*
X89998571Y-145954761D01*
X89960476Y-145992857D01*
X89884285Y-146030952D01*
X89579523Y-146030952D01*
X90798571Y-146411904D02*
X90341428Y-146411904D01*
X90570000Y-146411904D02*
X90570000Y-145611904D01*
X90493809Y-145726190D01*
X90417619Y-145802380D01*
X90341428Y-145840476D01*
D14*
X92938571Y-144506904D02*
X92481428Y-144506904D01*
X92710000Y-144506904D02*
X92710000Y-143706904D01*
X92633809Y-143821190D01*
X92557619Y-143897380D01*
X92481428Y-143935476D01*
D11*
X143281428Y-149053571D02*
X143281428Y-149586904D01*
X143090952Y-148748809D02*
X142900476Y-149320238D01*
X143395714Y-149320238D01*
X143852857Y-148786904D02*
X143929047Y-148786904D01*
X144005238Y-148825000D01*
X144043333Y-148863095D01*
X144081428Y-148939285D01*
X144119523Y-149091666D01*
X144119523Y-149282142D01*
X144081428Y-149434523D01*
X144043333Y-149510714D01*
X144005238Y-149548809D01*
X143929047Y-149586904D01*
X143852857Y-149586904D01*
X143776666Y-149548809D01*
X143738571Y-149510714D01*
X143700476Y-149434523D01*
X143662380Y-149282142D01*
X143662380Y-149091666D01*
X143700476Y-148939285D01*
X143738571Y-148863095D01*
X143776666Y-148825000D01*
X143852857Y-148786904D01*
X127622380Y-150691904D02*
X128117619Y-150691904D01*
X127850952Y-150996666D01*
X127965238Y-150996666D01*
X128041428Y-151034761D01*
X128079523Y-151072857D01*
X128117619Y-151149047D01*
X128117619Y-151339523D01*
X128079523Y-151415714D01*
X128041428Y-151453809D01*
X127965238Y-151491904D01*
X127736666Y-151491904D01*
X127660476Y-151453809D01*
X127622380Y-151415714D01*
X128612857Y-150691904D02*
X128689047Y-150691904D01*
X128765238Y-150730000D01*
X128803333Y-150768095D01*
X128841428Y-150844285D01*
X128879523Y-150996666D01*
X128879523Y-151187142D01*
X128841428Y-151339523D01*
X128803333Y-151415714D01*
X128765238Y-151453809D01*
X128689047Y-151491904D01*
X128612857Y-151491904D01*
X128536666Y-151453809D01*
X128498571Y-151415714D01*
X128460476Y-151339523D01*
X128422380Y-151187142D01*
X128422380Y-150996666D01*
X128460476Y-150844285D01*
X128498571Y-150768095D01*
X128536666Y-150730000D01*
X128612857Y-150691904D01*
X114960476Y-150768095D02*
X114998571Y-150730000D01*
X115074761Y-150691904D01*
X115265238Y-150691904D01*
X115341428Y-150730000D01*
X115379523Y-150768095D01*
X115417619Y-150844285D01*
X115417619Y-150920476D01*
X115379523Y-151034761D01*
X114922380Y-151491904D01*
X115417619Y-151491904D01*
X115912857Y-150691904D02*
X115989047Y-150691904D01*
X116065238Y-150730000D01*
X116103333Y-150768095D01*
X116141428Y-150844285D01*
X116179523Y-150996666D01*
X116179523Y-151187142D01*
X116141428Y-151339523D01*
X116103333Y-151415714D01*
X116065238Y-151453809D01*
X115989047Y-151491904D01*
X115912857Y-151491904D01*
X115836666Y-151453809D01*
X115798571Y-151415714D01*
X115760476Y-151339523D01*
X115722380Y-151187142D01*
X115722380Y-150996666D01*
X115760476Y-150844285D01*
X115798571Y-150768095D01*
X115836666Y-150730000D01*
X115912857Y-150691904D01*
X102717619Y-151491904D02*
X102260476Y-151491904D01*
X102489047Y-151491904D02*
X102489047Y-150691904D01*
X102412857Y-150806190D01*
X102336666Y-150882380D01*
X102260476Y-150920476D01*
X103212857Y-150691904D02*
X103289047Y-150691904D01*
X103365238Y-150730000D01*
X103403333Y-150768095D01*
X103441428Y-150844285D01*
X103479523Y-150996666D01*
X103479523Y-151187142D01*
X103441428Y-151339523D01*
X103403333Y-151415714D01*
X103365238Y-151453809D01*
X103289047Y-151491904D01*
X103212857Y-151491904D01*
X103136666Y-151453809D01*
X103098571Y-151415714D01*
X103060476Y-151339523D01*
X103022380Y-151187142D01*
X103022380Y-150996666D01*
X103060476Y-150844285D01*
X103098571Y-150768095D01*
X103136666Y-150730000D01*
X103212857Y-150691904D01*
X92481428Y-150768095D02*
X92519523Y-150730000D01*
X92595714Y-150691904D01*
X92786190Y-150691904D01*
X92862380Y-150730000D01*
X92900476Y-150768095D01*
X92938571Y-150844285D01*
X92938571Y-150920476D01*
X92900476Y-151034761D01*
X92443333Y-151491904D01*
X92938571Y-151491904D01*
G04 #@! TO.C,Y1*
X104394047Y-132695952D02*
X104394047Y-133076904D01*
X104127380Y-132276904D02*
X104394047Y-132695952D01*
X104660714Y-132276904D01*
X105346428Y-133076904D02*
X104889285Y-133076904D01*
X105117857Y-133076904D02*
X105117857Y-132276904D01*
X105041666Y-132391190D01*
X104965476Y-132467380D01*
X104889285Y-132505476D01*
G04 #@! TO.C,U3*
X103530476Y-129736904D02*
X103530476Y-130384523D01*
X103568571Y-130460714D01*
X103606666Y-130498809D01*
X103682857Y-130536904D01*
X103835238Y-130536904D01*
X103911428Y-130498809D01*
X103949523Y-130460714D01*
X103987619Y-130384523D01*
X103987619Y-129736904D01*
X104292380Y-129736904D02*
X104787619Y-129736904D01*
X104520952Y-130041666D01*
X104635238Y-130041666D01*
X104711428Y-130079761D01*
X104749523Y-130117857D01*
X104787619Y-130194047D01*
X104787619Y-130384523D01*
X104749523Y-130460714D01*
X104711428Y-130498809D01*
X104635238Y-130536904D01*
X104406666Y-130536904D01*
X104330476Y-130498809D01*
X104292380Y-130460714D01*
G04 #@! TO.C,U5*
X90830476Y-134181904D02*
X90830476Y-134829523D01*
X90868571Y-134905714D01*
X90906666Y-134943809D01*
X90982857Y-134981904D01*
X91135238Y-134981904D01*
X91211428Y-134943809D01*
X91249523Y-134905714D01*
X91287619Y-134829523D01*
X91287619Y-134181904D01*
X92049523Y-134181904D02*
X91668571Y-134181904D01*
X91630476Y-134562857D01*
X91668571Y-134524761D01*
X91744761Y-134486666D01*
X91935238Y-134486666D01*
X92011428Y-134524761D01*
X92049523Y-134562857D01*
X92087619Y-134639047D01*
X92087619Y-134829523D01*
X92049523Y-134905714D01*
X92011428Y-134943809D01*
X91935238Y-134981904D01*
X91744761Y-134981904D01*
X91668571Y-134943809D01*
X91630476Y-134905714D01*
G04 #@! TO.C,U1*
X120040476Y-132911904D02*
X120040476Y-133559523D01*
X120078571Y-133635714D01*
X120116666Y-133673809D01*
X120192857Y-133711904D01*
X120345238Y-133711904D01*
X120421428Y-133673809D01*
X120459523Y-133635714D01*
X120497619Y-133559523D01*
X120497619Y-132911904D01*
X121297619Y-133711904D02*
X120840476Y-133711904D01*
X121069047Y-133711904D02*
X121069047Y-132911904D01*
X120992857Y-133026190D01*
X120916666Y-133102380D01*
X120840476Y-133140476D01*
G04 #@! TO.C,U9*
X145440476Y-174186904D02*
X145440476Y-174834523D01*
X145478571Y-174910714D01*
X145516666Y-174948809D01*
X145592857Y-174986904D01*
X145745238Y-174986904D01*
X145821428Y-174948809D01*
X145859523Y-174910714D01*
X145897619Y-174834523D01*
X145897619Y-174186904D01*
X146316666Y-174986904D02*
X146469047Y-174986904D01*
X146545238Y-174948809D01*
X146583333Y-174910714D01*
X146659523Y-174796428D01*
X146697619Y-174644047D01*
X146697619Y-174339285D01*
X146659523Y-174263095D01*
X146621428Y-174225000D01*
X146545238Y-174186904D01*
X146392857Y-174186904D01*
X146316666Y-174225000D01*
X146278571Y-174263095D01*
X146240476Y-174339285D01*
X146240476Y-174529761D01*
X146278571Y-174605952D01*
X146316666Y-174644047D01*
X146392857Y-174682142D01*
X146545238Y-174682142D01*
X146621428Y-174644047D01*
X146659523Y-174605952D01*
X146697619Y-174529761D01*
G04 #@! TO.C,U8*
X135280476Y-170376904D02*
X135280476Y-171024523D01*
X135318571Y-171100714D01*
X135356666Y-171138809D01*
X135432857Y-171176904D01*
X135585238Y-171176904D01*
X135661428Y-171138809D01*
X135699523Y-171100714D01*
X135737619Y-171024523D01*
X135737619Y-170376904D01*
X136232857Y-170719761D02*
X136156666Y-170681666D01*
X136118571Y-170643571D01*
X136080476Y-170567380D01*
X136080476Y-170529285D01*
X136118571Y-170453095D01*
X136156666Y-170415000D01*
X136232857Y-170376904D01*
X136385238Y-170376904D01*
X136461428Y-170415000D01*
X136499523Y-170453095D01*
X136537619Y-170529285D01*
X136537619Y-170567380D01*
X136499523Y-170643571D01*
X136461428Y-170681666D01*
X136385238Y-170719761D01*
X136232857Y-170719761D01*
X136156666Y-170757857D01*
X136118571Y-170795952D01*
X136080476Y-170872142D01*
X136080476Y-171024523D01*
X136118571Y-171100714D01*
X136156666Y-171138809D01*
X136232857Y-171176904D01*
X136385238Y-171176904D01*
X136461428Y-171138809D01*
X136499523Y-171100714D01*
X136537619Y-171024523D01*
X136537619Y-170872142D01*
X136499523Y-170795952D01*
X136461428Y-170757857D01*
X136385238Y-170719761D01*
G04 #@! TO.C,U7*
X132740476Y-170376904D02*
X132740476Y-171024523D01*
X132778571Y-171100714D01*
X132816666Y-171138809D01*
X132892857Y-171176904D01*
X133045238Y-171176904D01*
X133121428Y-171138809D01*
X133159523Y-171100714D01*
X133197619Y-171024523D01*
X133197619Y-170376904D01*
X133502380Y-170376904D02*
X134035714Y-170376904D01*
X133692857Y-171176904D01*
G04 #@! TO.C,U6*
X122580476Y-174186904D02*
X122580476Y-174834523D01*
X122618571Y-174910714D01*
X122656666Y-174948809D01*
X122732857Y-174986904D01*
X122885238Y-174986904D01*
X122961428Y-174948809D01*
X122999523Y-174910714D01*
X123037619Y-174834523D01*
X123037619Y-174186904D01*
X123761428Y-174186904D02*
X123609047Y-174186904D01*
X123532857Y-174225000D01*
X123494761Y-174263095D01*
X123418571Y-174377380D01*
X123380476Y-174529761D01*
X123380476Y-174834523D01*
X123418571Y-174910714D01*
X123456666Y-174948809D01*
X123532857Y-174986904D01*
X123685238Y-174986904D01*
X123761428Y-174948809D01*
X123799523Y-174910714D01*
X123837619Y-174834523D01*
X123837619Y-174644047D01*
X123799523Y-174567857D01*
X123761428Y-174529761D01*
X123685238Y-174491666D01*
X123532857Y-174491666D01*
X123456666Y-174529761D01*
X123418571Y-174567857D01*
X123380476Y-174644047D01*
G04 #@! TO.C,R22*
X84357714Y-124169904D02*
X84091047Y-123788952D01*
X83900571Y-124169904D02*
X83900571Y-123369904D01*
X84205333Y-123369904D01*
X84281523Y-123408000D01*
X84319619Y-123446095D01*
X84357714Y-123522285D01*
X84357714Y-123636571D01*
X84319619Y-123712761D01*
X84281523Y-123750857D01*
X84205333Y-123788952D01*
X83900571Y-123788952D01*
X84662476Y-123446095D02*
X84700571Y-123408000D01*
X84776761Y-123369904D01*
X84967238Y-123369904D01*
X85043428Y-123408000D01*
X85081523Y-123446095D01*
X85119619Y-123522285D01*
X85119619Y-123598476D01*
X85081523Y-123712761D01*
X84624380Y-124169904D01*
X85119619Y-124169904D01*
X85424380Y-123446095D02*
X85462476Y-123408000D01*
X85538666Y-123369904D01*
X85729142Y-123369904D01*
X85805333Y-123408000D01*
X85843428Y-123446095D01*
X85881523Y-123522285D01*
X85881523Y-123598476D01*
X85843428Y-123712761D01*
X85386285Y-124169904D01*
X85881523Y-124169904D01*
G04 #@! TO.C,R25*
X146170714Y-143871904D02*
X145904047Y-143490952D01*
X145713571Y-143871904D02*
X145713571Y-143071904D01*
X146018333Y-143071904D01*
X146094523Y-143110000D01*
X146132619Y-143148095D01*
X146170714Y-143224285D01*
X146170714Y-143338571D01*
X146132619Y-143414761D01*
X146094523Y-143452857D01*
X146018333Y-143490952D01*
X145713571Y-143490952D01*
X146475476Y-143148095D02*
X146513571Y-143110000D01*
X146589761Y-143071904D01*
X146780238Y-143071904D01*
X146856428Y-143110000D01*
X146894523Y-143148095D01*
X146932619Y-143224285D01*
X146932619Y-143300476D01*
X146894523Y-143414761D01*
X146437380Y-143871904D01*
X146932619Y-143871904D01*
X147656428Y-143071904D02*
X147275476Y-143071904D01*
X147237380Y-143452857D01*
X147275476Y-143414761D01*
X147351666Y-143376666D01*
X147542142Y-143376666D01*
X147618333Y-143414761D01*
X147656428Y-143452857D01*
X147694523Y-143529047D01*
X147694523Y-143719523D01*
X147656428Y-143795714D01*
X147618333Y-143833809D01*
X147542142Y-143871904D01*
X147351666Y-143871904D01*
X147275476Y-143833809D01*
X147237380Y-143795714D01*
G04 #@! TO.C,R24*
X136885714Y-143871904D02*
X136619047Y-143490952D01*
X136428571Y-143871904D02*
X136428571Y-143071904D01*
X136733333Y-143071904D01*
X136809523Y-143110000D01*
X136847619Y-143148095D01*
X136885714Y-143224285D01*
X136885714Y-143338571D01*
X136847619Y-143414761D01*
X136809523Y-143452857D01*
X136733333Y-143490952D01*
X136428571Y-143490952D01*
X137190476Y-143148095D02*
X137228571Y-143110000D01*
X137304761Y-143071904D01*
X137495238Y-143071904D01*
X137571428Y-143110000D01*
X137609523Y-143148095D01*
X137647619Y-143224285D01*
X137647619Y-143300476D01*
X137609523Y-143414761D01*
X137152380Y-143871904D01*
X137647619Y-143871904D01*
X138333333Y-143338571D02*
X138333333Y-143871904D01*
X138142857Y-143033809D02*
X137952380Y-143605238D01*
X138447619Y-143605238D01*
G04 #@! TO.C,R23*
X134105714Y-143871904D02*
X133839047Y-143490952D01*
X133648571Y-143871904D02*
X133648571Y-143071904D01*
X133953333Y-143071904D01*
X134029523Y-143110000D01*
X134067619Y-143148095D01*
X134105714Y-143224285D01*
X134105714Y-143338571D01*
X134067619Y-143414761D01*
X134029523Y-143452857D01*
X133953333Y-143490952D01*
X133648571Y-143490952D01*
X134410476Y-143148095D02*
X134448571Y-143110000D01*
X134524761Y-143071904D01*
X134715238Y-143071904D01*
X134791428Y-143110000D01*
X134829523Y-143148095D01*
X134867619Y-143224285D01*
X134867619Y-143300476D01*
X134829523Y-143414761D01*
X134372380Y-143871904D01*
X134867619Y-143871904D01*
X135134285Y-143071904D02*
X135629523Y-143071904D01*
X135362857Y-143376666D01*
X135477142Y-143376666D01*
X135553333Y-143414761D01*
X135591428Y-143452857D01*
X135629523Y-143529047D01*
X135629523Y-143719523D01*
X135591428Y-143795714D01*
X135553333Y-143833809D01*
X135477142Y-143871904D01*
X135248571Y-143871904D01*
X135172380Y-143833809D01*
X135134285Y-143795714D01*
G04 #@! TO.C,R21*
X125215714Y-143871904D02*
X124949047Y-143490952D01*
X124758571Y-143871904D02*
X124758571Y-143071904D01*
X125063333Y-143071904D01*
X125139523Y-143110000D01*
X125177619Y-143148095D01*
X125215714Y-143224285D01*
X125215714Y-143338571D01*
X125177619Y-143414761D01*
X125139523Y-143452857D01*
X125063333Y-143490952D01*
X124758571Y-143490952D01*
X125520476Y-143148095D02*
X125558571Y-143110000D01*
X125634761Y-143071904D01*
X125825238Y-143071904D01*
X125901428Y-143110000D01*
X125939523Y-143148095D01*
X125977619Y-143224285D01*
X125977619Y-143300476D01*
X125939523Y-143414761D01*
X125482380Y-143871904D01*
X125977619Y-143871904D01*
X126739523Y-143871904D02*
X126282380Y-143871904D01*
X126510952Y-143871904D02*
X126510952Y-143071904D01*
X126434761Y-143186190D01*
X126358571Y-143262380D01*
X126282380Y-143300476D01*
G04 #@! TO.C,R12*
X146170714Y-133711904D02*
X145904047Y-133330952D01*
X145713571Y-133711904D02*
X145713571Y-132911904D01*
X146018333Y-132911904D01*
X146094523Y-132950000D01*
X146132619Y-132988095D01*
X146170714Y-133064285D01*
X146170714Y-133178571D01*
X146132619Y-133254761D01*
X146094523Y-133292857D01*
X146018333Y-133330952D01*
X145713571Y-133330952D01*
X146932619Y-133711904D02*
X146475476Y-133711904D01*
X146704047Y-133711904D02*
X146704047Y-132911904D01*
X146627857Y-133026190D01*
X146551666Y-133102380D01*
X146475476Y-133140476D01*
X147237380Y-132988095D02*
X147275476Y-132950000D01*
X147351666Y-132911904D01*
X147542142Y-132911904D01*
X147618333Y-132950000D01*
X147656428Y-132988095D01*
X147694523Y-133064285D01*
X147694523Y-133140476D01*
X147656428Y-133254761D01*
X147199285Y-133711904D01*
X147694523Y-133711904D01*
G04 #@! TO.C,R11*
X137280714Y-133711904D02*
X137014047Y-133330952D01*
X136823571Y-133711904D02*
X136823571Y-132911904D01*
X137128333Y-132911904D01*
X137204523Y-132950000D01*
X137242619Y-132988095D01*
X137280714Y-133064285D01*
X137280714Y-133178571D01*
X137242619Y-133254761D01*
X137204523Y-133292857D01*
X137128333Y-133330952D01*
X136823571Y-133330952D01*
X138042619Y-133711904D02*
X137585476Y-133711904D01*
X137814047Y-133711904D02*
X137814047Y-132911904D01*
X137737857Y-133026190D01*
X137661666Y-133102380D01*
X137585476Y-133140476D01*
X138804523Y-133711904D02*
X138347380Y-133711904D01*
X138575952Y-133711904D02*
X138575952Y-132911904D01*
X138499761Y-133026190D01*
X138423571Y-133102380D01*
X138347380Y-133140476D01*
G04 #@! TO.C,R10*
X134105714Y-133711904D02*
X133839047Y-133330952D01*
X133648571Y-133711904D02*
X133648571Y-132911904D01*
X133953333Y-132911904D01*
X134029523Y-132950000D01*
X134067619Y-132988095D01*
X134105714Y-133064285D01*
X134105714Y-133178571D01*
X134067619Y-133254761D01*
X134029523Y-133292857D01*
X133953333Y-133330952D01*
X133648571Y-133330952D01*
X134867619Y-133711904D02*
X134410476Y-133711904D01*
X134639047Y-133711904D02*
X134639047Y-132911904D01*
X134562857Y-133026190D01*
X134486666Y-133102380D01*
X134410476Y-133140476D01*
X135362857Y-132911904D02*
X135439047Y-132911904D01*
X135515238Y-132950000D01*
X135553333Y-132988095D01*
X135591428Y-133064285D01*
X135629523Y-133216666D01*
X135629523Y-133407142D01*
X135591428Y-133559523D01*
X135553333Y-133635714D01*
X135515238Y-133673809D01*
X135439047Y-133711904D01*
X135362857Y-133711904D01*
X135286666Y-133673809D01*
X135248571Y-133635714D01*
X135210476Y-133559523D01*
X135172380Y-133407142D01*
X135172380Y-133216666D01*
X135210476Y-133064285D01*
X135248571Y-132988095D01*
X135286666Y-132950000D01*
X135362857Y-132911904D01*
G04 #@! TO.C,R9*
X125596666Y-133711904D02*
X125330000Y-133330952D01*
X125139523Y-133711904D02*
X125139523Y-132911904D01*
X125444285Y-132911904D01*
X125520476Y-132950000D01*
X125558571Y-132988095D01*
X125596666Y-133064285D01*
X125596666Y-133178571D01*
X125558571Y-133254761D01*
X125520476Y-133292857D01*
X125444285Y-133330952D01*
X125139523Y-133330952D01*
X125977619Y-133711904D02*
X126130000Y-133711904D01*
X126206190Y-133673809D01*
X126244285Y-133635714D01*
X126320476Y-133521428D01*
X126358571Y-133369047D01*
X126358571Y-133064285D01*
X126320476Y-132988095D01*
X126282380Y-132950000D01*
X126206190Y-132911904D01*
X126053809Y-132911904D01*
X125977619Y-132950000D01*
X125939523Y-132988095D01*
X125901428Y-133064285D01*
X125901428Y-133254761D01*
X125939523Y-133330952D01*
X125977619Y-133369047D01*
X126053809Y-133407142D01*
X126206190Y-133407142D01*
X126282380Y-133369047D01*
X126320476Y-133330952D01*
X126358571Y-133254761D01*
G04 #@! TO.C,PC4*
X145059523Y-124821904D02*
X145059523Y-124021904D01*
X145364285Y-124021904D01*
X145440476Y-124060000D01*
X145478571Y-124098095D01*
X145516666Y-124174285D01*
X145516666Y-124288571D01*
X145478571Y-124364761D01*
X145440476Y-124402857D01*
X145364285Y-124440952D01*
X145059523Y-124440952D01*
X146316666Y-124745714D02*
X146278571Y-124783809D01*
X146164285Y-124821904D01*
X146088095Y-124821904D01*
X145973809Y-124783809D01*
X145897619Y-124707619D01*
X145859523Y-124631428D01*
X145821428Y-124479047D01*
X145821428Y-124364761D01*
X145859523Y-124212380D01*
X145897619Y-124136190D01*
X145973809Y-124060000D01*
X146088095Y-124021904D01*
X146164285Y-124021904D01*
X146278571Y-124060000D01*
X146316666Y-124098095D01*
X147002380Y-124288571D02*
X147002380Y-124821904D01*
X146811904Y-123983809D02*
X146621428Y-124555238D01*
X147116666Y-124555238D01*
G04 #@! TO.C,PC3*
X136169523Y-127361904D02*
X136169523Y-126561904D01*
X136474285Y-126561904D01*
X136550476Y-126600000D01*
X136588571Y-126638095D01*
X136626666Y-126714285D01*
X136626666Y-126828571D01*
X136588571Y-126904761D01*
X136550476Y-126942857D01*
X136474285Y-126980952D01*
X136169523Y-126980952D01*
X137426666Y-127285714D02*
X137388571Y-127323809D01*
X137274285Y-127361904D01*
X137198095Y-127361904D01*
X137083809Y-127323809D01*
X137007619Y-127247619D01*
X136969523Y-127171428D01*
X136931428Y-127019047D01*
X136931428Y-126904761D01*
X136969523Y-126752380D01*
X137007619Y-126676190D01*
X137083809Y-126600000D01*
X137198095Y-126561904D01*
X137274285Y-126561904D01*
X137388571Y-126600000D01*
X137426666Y-126638095D01*
X137693333Y-126561904D02*
X138188571Y-126561904D01*
X137921904Y-126866666D01*
X138036190Y-126866666D01*
X138112380Y-126904761D01*
X138150476Y-126942857D01*
X138188571Y-127019047D01*
X138188571Y-127209523D01*
X138150476Y-127285714D01*
X138112380Y-127323809D01*
X138036190Y-127361904D01*
X137807619Y-127361904D01*
X137731428Y-127323809D01*
X137693333Y-127285714D01*
G04 #@! TO.C,PC1*
X122834523Y-124821904D02*
X122834523Y-124021904D01*
X123139285Y-124021904D01*
X123215476Y-124060000D01*
X123253571Y-124098095D01*
X123291666Y-124174285D01*
X123291666Y-124288571D01*
X123253571Y-124364761D01*
X123215476Y-124402857D01*
X123139285Y-124440952D01*
X122834523Y-124440952D01*
X124091666Y-124745714D02*
X124053571Y-124783809D01*
X123939285Y-124821904D01*
X123863095Y-124821904D01*
X123748809Y-124783809D01*
X123672619Y-124707619D01*
X123634523Y-124631428D01*
X123596428Y-124479047D01*
X123596428Y-124364761D01*
X123634523Y-124212380D01*
X123672619Y-124136190D01*
X123748809Y-124060000D01*
X123863095Y-124021904D01*
X123939285Y-124021904D01*
X124053571Y-124060000D01*
X124091666Y-124098095D01*
X124853571Y-124821904D02*
X124396428Y-124821904D01*
X124625000Y-124821904D02*
X124625000Y-124021904D01*
X124548809Y-124136190D01*
X124472619Y-124212380D01*
X124396428Y-124250476D01*
G04 #@! TO.C,J1*
X99428333Y-115766904D02*
X99428333Y-116338333D01*
X99390238Y-116452619D01*
X99314047Y-116528809D01*
X99199761Y-116566904D01*
X99123571Y-116566904D01*
X100228333Y-116566904D02*
X99771190Y-116566904D01*
X99999761Y-116566904D02*
X99999761Y-115766904D01*
X99923571Y-115881190D01*
X99847380Y-115957380D01*
X99771190Y-115995476D01*
G04 #@! TO.C,F1*
X100063333Y-125672857D02*
X99796666Y-125672857D01*
X99796666Y-126091904D02*
X99796666Y-125291904D01*
X100177619Y-125291904D01*
X100901428Y-126091904D02*
X100444285Y-126091904D01*
X100672857Y-126091904D02*
X100672857Y-125291904D01*
X100596666Y-125406190D01*
X100520476Y-125482380D01*
X100444285Y-125520476D01*
G04 #@! TO.C,D10*
X85424571Y-118787904D02*
X85424571Y-117987904D01*
X85615047Y-117987904D01*
X85729333Y-118026000D01*
X85805523Y-118102190D01*
X85843619Y-118178380D01*
X85881714Y-118330761D01*
X85881714Y-118445047D01*
X85843619Y-118597428D01*
X85805523Y-118673619D01*
X85729333Y-118749809D01*
X85615047Y-118787904D01*
X85424571Y-118787904D01*
X86643619Y-118787904D02*
X86186476Y-118787904D01*
X86415047Y-118787904D02*
X86415047Y-117987904D01*
X86338857Y-118102190D01*
X86262666Y-118178380D01*
X86186476Y-118216476D01*
X87138857Y-117987904D02*
X87215047Y-117987904D01*
X87291238Y-118026000D01*
X87329333Y-118064095D01*
X87367428Y-118140285D01*
X87405523Y-118292666D01*
X87405523Y-118483142D01*
X87367428Y-118635523D01*
X87329333Y-118711714D01*
X87291238Y-118749809D01*
X87215047Y-118787904D01*
X87138857Y-118787904D01*
X87062666Y-118749809D01*
X87024571Y-118711714D01*
X86986476Y-118635523D01*
X86948380Y-118483142D01*
X86948380Y-118292666D01*
X86986476Y-118140285D01*
X87024571Y-118064095D01*
X87062666Y-118026000D01*
X87138857Y-117987904D01*
G04 #@! TO.C,D14*
X140633571Y-142126904D02*
X140633571Y-141326904D01*
X140824047Y-141326904D01*
X140938333Y-141365000D01*
X141014523Y-141441190D01*
X141052619Y-141517380D01*
X141090714Y-141669761D01*
X141090714Y-141784047D01*
X141052619Y-141936428D01*
X141014523Y-142012619D01*
X140938333Y-142088809D01*
X140824047Y-142126904D01*
X140633571Y-142126904D01*
X141852619Y-142126904D02*
X141395476Y-142126904D01*
X141624047Y-142126904D02*
X141624047Y-141326904D01*
X141547857Y-141441190D01*
X141471666Y-141517380D01*
X141395476Y-141555476D01*
X142538333Y-141593571D02*
X142538333Y-142126904D01*
X142347857Y-141288809D02*
X142157380Y-141860238D01*
X142652619Y-141860238D01*
G04 #@! TO.C,D12*
X136823571Y-142126904D02*
X136823571Y-141326904D01*
X137014047Y-141326904D01*
X137128333Y-141365000D01*
X137204523Y-141441190D01*
X137242619Y-141517380D01*
X137280714Y-141669761D01*
X137280714Y-141784047D01*
X137242619Y-141936428D01*
X137204523Y-142012619D01*
X137128333Y-142088809D01*
X137014047Y-142126904D01*
X136823571Y-142126904D01*
X138042619Y-142126904D02*
X137585476Y-142126904D01*
X137814047Y-142126904D02*
X137814047Y-141326904D01*
X137737857Y-141441190D01*
X137661666Y-141517380D01*
X137585476Y-141555476D01*
X138347380Y-141403095D02*
X138385476Y-141365000D01*
X138461666Y-141326904D01*
X138652142Y-141326904D01*
X138728333Y-141365000D01*
X138766428Y-141403095D01*
X138804523Y-141479285D01*
X138804523Y-141555476D01*
X138766428Y-141669761D01*
X138309285Y-142126904D01*
X138804523Y-142126904D01*
G04 #@! TO.C,D11*
X133013571Y-142126904D02*
X133013571Y-141326904D01*
X133204047Y-141326904D01*
X133318333Y-141365000D01*
X133394523Y-141441190D01*
X133432619Y-141517380D01*
X133470714Y-141669761D01*
X133470714Y-141784047D01*
X133432619Y-141936428D01*
X133394523Y-142012619D01*
X133318333Y-142088809D01*
X133204047Y-142126904D01*
X133013571Y-142126904D01*
X134232619Y-142126904D02*
X133775476Y-142126904D01*
X134004047Y-142126904D02*
X134004047Y-141326904D01*
X133927857Y-141441190D01*
X133851666Y-141517380D01*
X133775476Y-141555476D01*
X134994523Y-142126904D02*
X134537380Y-142126904D01*
X134765952Y-142126904D02*
X134765952Y-141326904D01*
X134689761Y-141441190D01*
X134613571Y-141517380D01*
X134537380Y-141555476D01*
G04 #@! TO.C,D9*
X129584523Y-142126904D02*
X129584523Y-141326904D01*
X129775000Y-141326904D01*
X129889285Y-141365000D01*
X129965476Y-141441190D01*
X130003571Y-141517380D01*
X130041666Y-141669761D01*
X130041666Y-141784047D01*
X130003571Y-141936428D01*
X129965476Y-142012619D01*
X129889285Y-142088809D01*
X129775000Y-142126904D01*
X129584523Y-142126904D01*
X130422619Y-142126904D02*
X130575000Y-142126904D01*
X130651190Y-142088809D01*
X130689285Y-142050714D01*
X130765476Y-141936428D01*
X130803571Y-141784047D01*
X130803571Y-141479285D01*
X130765476Y-141403095D01*
X130727380Y-141365000D01*
X130651190Y-141326904D01*
X130498809Y-141326904D01*
X130422619Y-141365000D01*
X130384523Y-141403095D01*
X130346428Y-141479285D01*
X130346428Y-141669761D01*
X130384523Y-141745952D01*
X130422619Y-141784047D01*
X130498809Y-141822142D01*
X130651190Y-141822142D01*
X130727380Y-141784047D01*
X130765476Y-141745952D01*
X130803571Y-141669761D01*
G04 #@! TO.C,D8*
X141014523Y-135616904D02*
X141014523Y-134816904D01*
X141205000Y-134816904D01*
X141319285Y-134855000D01*
X141395476Y-134931190D01*
X141433571Y-135007380D01*
X141471666Y-135159761D01*
X141471666Y-135274047D01*
X141433571Y-135426428D01*
X141395476Y-135502619D01*
X141319285Y-135578809D01*
X141205000Y-135616904D01*
X141014523Y-135616904D01*
X141928809Y-135159761D02*
X141852619Y-135121666D01*
X141814523Y-135083571D01*
X141776428Y-135007380D01*
X141776428Y-134969285D01*
X141814523Y-134893095D01*
X141852619Y-134855000D01*
X141928809Y-134816904D01*
X142081190Y-134816904D01*
X142157380Y-134855000D01*
X142195476Y-134893095D01*
X142233571Y-134969285D01*
X142233571Y-135007380D01*
X142195476Y-135083571D01*
X142157380Y-135121666D01*
X142081190Y-135159761D01*
X141928809Y-135159761D01*
X141852619Y-135197857D01*
X141814523Y-135235952D01*
X141776428Y-135312142D01*
X141776428Y-135464523D01*
X141814523Y-135540714D01*
X141852619Y-135578809D01*
X141928809Y-135616904D01*
X142081190Y-135616904D01*
X142157380Y-135578809D01*
X142195476Y-135540714D01*
X142233571Y-135464523D01*
X142233571Y-135312142D01*
X142195476Y-135235952D01*
X142157380Y-135197857D01*
X142081190Y-135159761D01*
G04 #@! TO.C,D7*
X137204523Y-135616904D02*
X137204523Y-134816904D01*
X137395000Y-134816904D01*
X137509285Y-134855000D01*
X137585476Y-134931190D01*
X137623571Y-135007380D01*
X137661666Y-135159761D01*
X137661666Y-135274047D01*
X137623571Y-135426428D01*
X137585476Y-135502619D01*
X137509285Y-135578809D01*
X137395000Y-135616904D01*
X137204523Y-135616904D01*
X137928333Y-134816904D02*
X138461666Y-134816904D01*
X138118809Y-135616904D01*
G04 #@! TO.C,D6*
X133394523Y-135616904D02*
X133394523Y-134816904D01*
X133585000Y-134816904D01*
X133699285Y-134855000D01*
X133775476Y-134931190D01*
X133813571Y-135007380D01*
X133851666Y-135159761D01*
X133851666Y-135274047D01*
X133813571Y-135426428D01*
X133775476Y-135502619D01*
X133699285Y-135578809D01*
X133585000Y-135616904D01*
X133394523Y-135616904D01*
X134537380Y-134816904D02*
X134385000Y-134816904D01*
X134308809Y-134855000D01*
X134270714Y-134893095D01*
X134194523Y-135007380D01*
X134156428Y-135159761D01*
X134156428Y-135464523D01*
X134194523Y-135540714D01*
X134232619Y-135578809D01*
X134308809Y-135616904D01*
X134461190Y-135616904D01*
X134537380Y-135578809D01*
X134575476Y-135540714D01*
X134613571Y-135464523D01*
X134613571Y-135274047D01*
X134575476Y-135197857D01*
X134537380Y-135159761D01*
X134461190Y-135121666D01*
X134308809Y-135121666D01*
X134232619Y-135159761D01*
X134194523Y-135197857D01*
X134156428Y-135274047D01*
G04 #@! TO.C,D5*
X129584523Y-135616904D02*
X129584523Y-134816904D01*
X129775000Y-134816904D01*
X129889285Y-134855000D01*
X129965476Y-134931190D01*
X130003571Y-135007380D01*
X130041666Y-135159761D01*
X130041666Y-135274047D01*
X130003571Y-135426428D01*
X129965476Y-135502619D01*
X129889285Y-135578809D01*
X129775000Y-135616904D01*
X129584523Y-135616904D01*
X130765476Y-134816904D02*
X130384523Y-134816904D01*
X130346428Y-135197857D01*
X130384523Y-135159761D01*
X130460714Y-135121666D01*
X130651190Y-135121666D01*
X130727380Y-135159761D01*
X130765476Y-135197857D01*
X130803571Y-135274047D01*
X130803571Y-135464523D01*
X130765476Y-135540714D01*
X130727380Y-135578809D01*
X130651190Y-135616904D01*
X130460714Y-135616904D01*
X130384523Y-135578809D01*
X130346428Y-135540714D01*
G04 #@! TO.C,C5*
X98291666Y-128555714D02*
X98253571Y-128593809D01*
X98139285Y-128631904D01*
X98063095Y-128631904D01*
X97948809Y-128593809D01*
X97872619Y-128517619D01*
X97834523Y-128441428D01*
X97796428Y-128289047D01*
X97796428Y-128174761D01*
X97834523Y-128022380D01*
X97872619Y-127946190D01*
X97948809Y-127870000D01*
X98063095Y-127831904D01*
X98139285Y-127831904D01*
X98253571Y-127870000D01*
X98291666Y-127908095D01*
X99015476Y-127831904D02*
X98634523Y-127831904D01*
X98596428Y-128212857D01*
X98634523Y-128174761D01*
X98710714Y-128136666D01*
X98901190Y-128136666D01*
X98977380Y-128174761D01*
X99015476Y-128212857D01*
X99053571Y-128289047D01*
X99053571Y-128479523D01*
X99015476Y-128555714D01*
X98977380Y-128593809D01*
X98901190Y-128631904D01*
X98710714Y-128631904D01*
X98634523Y-128593809D01*
X98596428Y-128555714D01*
G04 #@! TO.C,C1*
X100196666Y-133635714D02*
X100158571Y-133673809D01*
X100044285Y-133711904D01*
X99968095Y-133711904D01*
X99853809Y-133673809D01*
X99777619Y-133597619D01*
X99739523Y-133521428D01*
X99701428Y-133369047D01*
X99701428Y-133254761D01*
X99739523Y-133102380D01*
X99777619Y-133026190D01*
X99853809Y-132950000D01*
X99968095Y-132911904D01*
X100044285Y-132911904D01*
X100158571Y-132950000D01*
X100196666Y-132988095D01*
X100958571Y-133711904D02*
X100501428Y-133711904D01*
X100730000Y-133711904D02*
X100730000Y-132911904D01*
X100653809Y-133026190D01*
X100577619Y-133102380D01*
X100501428Y-133140476D01*
G04 #@! TO.C,C4*
X97656666Y-133635714D02*
X97618571Y-133673809D01*
X97504285Y-133711904D01*
X97428095Y-133711904D01*
X97313809Y-133673809D01*
X97237619Y-133597619D01*
X97199523Y-133521428D01*
X97161428Y-133369047D01*
X97161428Y-133254761D01*
X97199523Y-133102380D01*
X97237619Y-133026190D01*
X97313809Y-132950000D01*
X97428095Y-132911904D01*
X97504285Y-132911904D01*
X97618571Y-132950000D01*
X97656666Y-132988095D01*
X98342380Y-133178571D02*
X98342380Y-133711904D01*
X98151904Y-132873809D02*
X97961428Y-133445238D01*
X98456666Y-133445238D01*
G04 #@! TO.C,C3*
X85591666Y-127920714D02*
X85553571Y-127958809D01*
X85439285Y-127996904D01*
X85363095Y-127996904D01*
X85248809Y-127958809D01*
X85172619Y-127882619D01*
X85134523Y-127806428D01*
X85096428Y-127654047D01*
X85096428Y-127539761D01*
X85134523Y-127387380D01*
X85172619Y-127311190D01*
X85248809Y-127235000D01*
X85363095Y-127196904D01*
X85439285Y-127196904D01*
X85553571Y-127235000D01*
X85591666Y-127273095D01*
X85858333Y-127196904D02*
X86353571Y-127196904D01*
X86086904Y-127501666D01*
X86201190Y-127501666D01*
X86277380Y-127539761D01*
X86315476Y-127577857D01*
X86353571Y-127654047D01*
X86353571Y-127844523D01*
X86315476Y-127920714D01*
X86277380Y-127958809D01*
X86201190Y-127996904D01*
X85972619Y-127996904D01*
X85896428Y-127958809D01*
X85858333Y-127920714D01*
G04 #@! TD*
M02*
